<?xml version="1.0" standalone="no"?>
<!DOCTYPE svg PUBLIC "-//W3C//DTD SVG 1.1//EN" "http://www.w3.org/Graphics/SVG/1.1/DTD/svg11.dtd" >
<svg xmlns="http://www.w3.org/2000/svg" xmlns:xlink="http://www.w3.org/1999/xlink" version="1.1">
<metadata>
Created by FontForge 20150318 at Fri May 29 20:09:35 2015
 By uniteet7
(c) 2001-2012 Typodermic Fonts Inc. See attached license agreement. If agreement is missing visit typodermicfonts.com for more info.
</metadata>
<defs>
<font id="steelfish_outline" horiz-adv-x="324" >
  <font-face 
    font-family="steelfish_outline"
    font-weight="400"
    font-stretch="normal"
    units-per-em="1000"
    panose-1="2 11 6 8 2 2 2 4 5 4"
    ascent="851"
    descent="-149"
    x-height="671"
    cap-height="867"
    bbox="-136 -143 733 1057"
    underline-thickness="50"
    underline-position="-75"
    unicode-range="U+0017-25CA"
  />
<missing-glyph horiz-adv-x="500" 
d="M216 79l-107 18l-23 -133l106 -17zM247 263q5 26 8.5 42.5t10 30t18.5 26t33 30.5q34 29 53.5 66.5t30.5 99.5l18 100q2 11 2 22t1 22q0 61 -38.5 97.5t-116.5 36.5q-54 0 -83.5 -31.5t-40.5 -97.5l-26 -153l111 -20l26 155q4 28 26 28q29 0 29 -28l-20 -112
q-6 -31 -10.5 -49.5t-11.5 -32t-19 -25t-32 -27.5q-16 -15 -27.5 -30t-20 -34t-15 -42.5t-12.5 -55.5l-22 -118l108 -19zM119 -100q-86 0 -86 76v834q0 77 86 77h263q88 0 88 -77v-834q0 -76 -88 -76h-263z" />
    <glyph glyph-name="copyright" unicode="&#x28;C&#x29;" horiz-adv-x="554" 
d="M538 251q0 -71 -15.5 -120t-47.5 -80.5t-81 -45.5t-117 -14t-117 14t-80.5 45.5t-47 80.5t-15.5 120v365q0 70 15.5 119.5t47 81t80.5 45.5t117 14q67 0 116.5 -14.5t81.5 -45.5t47.5 -80.5t15.5 -119.5v-365zM300 268q0 -28 -22 -28q-23 0 -23 28v339q0 29 23 29
q22 0 22 -29v-89h51v89q0 85 -73 85q-80 0 -80 -86v-338q0 -44 20.5 -64t59.5 -20q40 0 56.5 20.5t16.5 64.5v103h-51v-104zM439 243q0 -83 -36 -119.5t-126 -36.5q-89 0 -125.5 36.5t-36.5 119.5v380q0 45 8.5 75t27.5 48t50 26t76 8t76 -8t50 -26t27.5 -48t8.5 -75v-380z
M499 616q0 119 -53.5 170t-168.5 51t-168 -50.5t-53 -170.5v-365q0 -120 53 -170.5t168 -50.5t168.5 50.5t53.5 170.5v365z" />
    <glyph glyph-name="registered" unicode="&#x28;R&#x29;" horiz-adv-x="554" 
d="M537 251q0 -71 -15.5 -120t-47.5 -80.5t-81 -45.5t-117 -14t-117 14t-80.5 45.5t-47 80.5t-15.5 120v365q0 140 63 200t197 60q68 0 117 -14t81 -45.5t47.5 -81t15.5 -119.5v-365zM369 189q-8 58 -17 116.5t-21 116.5q32 17 32 72v102q0 49 -21 69.5t-66 20.5h-77v-497
h56v221h22q9 -55 16 -109.5t13 -111.5h63zM306 495q0 -31 -30 -31h-21v165h21q19 0 24.5 -11t5.5 -33v-90zM439 243q0 -42 -8.5 -71.5t-27.5 -48t-50.5 -27.5t-76.5 -9q-89 0 -125 36.5t-36 119.5v380q0 45 8.5 75t27 48t49.5 26t76 8t76.5 -8t50.5 -26t27.5 -48t8.5 -75
v-380zM498 616q0 120 -53.5 170.5t-168.5 50.5q-114 0 -167.5 -51t-53.5 -170v-365q0 -120 53 -170.5t168 -50.5t168.5 50.5t53.5 170.5v365z" />
    <glyph glyph-name="uni2117" unicode="&#x28;P&#x29;" horiz-adv-x="554" 
d="M538 251q0 -71 -15.5 -120t-47.5 -80.5t-81 -45.5t-117 -14t-117 14t-80.5 45.5t-47 80.5t-15.5 120v365q0 70 15.5 119.5t47 81t80.5 45.5t117 14q67 0 116.5 -14.5t81.5 -45.5t47.5 -80.5t15.5 -119.5v-365zM255 189v236h24q44 0 64.5 21t20.5 69v82q0 89 -86 89h-79
v-497h56zM308 513q0 -33 -29 -33h-24v150h23q30 0 30 -33v-84zM439 243q0 -83 -36 -119.5t-126 -36.5q-89 0 -125.5 36.5t-36.5 119.5v380q0 45 8.5 75t27.5 48t50 26t76 8t76 -8t50 -26t27.5 -48t8.5 -75v-380zM499 616q0 119 -53.5 170t-168.5 51t-168 -50.5t-53 -170.5
v-365q0 -120 53 -170.5t168 -50.5t168.5 50.5t53.5 170.5v365z" />
    <glyph glyph-name=".notdef" horiz-adv-x="500" 
d="M216 79l-107 18l-23 -133l106 -17zM247 263q5 26 8.5 42.5t10 30t18.5 26t33 30.5q34 29 53.5 66.5t30.5 99.5l18 100q2 11 2 22t1 22q0 61 -38.5 97.5t-116.5 36.5q-54 0 -83.5 -31.5t-40.5 -97.5l-26 -153l111 -20l26 155q4 28 26 28q29 0 29 -28l-20 -112
q-6 -31 -10.5 -49.5t-11.5 -32t-19 -25t-32 -27.5q-16 -15 -27.5 -30t-20 -34t-15 -42.5t-12.5 -55.5l-22 -118l108 -19zM119 -100q-86 0 -86 76v834q0 77 86 77h263q88 0 88 -77v-834q0 -76 -88 -76h-263z" />
    <glyph glyph-name=".null" horiz-adv-x="0" 
 />
    <glyph glyph-name="nonmarkingreturn" horiz-adv-x="143" 
 />
    <glyph glyph-name="uni0017" horiz-adv-x="131" 
 />
    <glyph glyph-name="space" unicode=" " horiz-adv-x="143" 
 />
    <glyph glyph-name="exclam" unicode="!" horiz-adv-x="220" 
d="M64 0q-16 0 -27 11t-11 27v105q0 22 20 34q-3 4 -3 12l-17 286v353q0 17 11 28t27 11h92q16 0 27 -11t11 -28v-351l-18 -288q0 -8 -3 -12q9 -5 15 -14t6 -20v-105q0 -16 -11 -27t-27 -11h-92zM137 191l19 287v350h-92v-352l18 -285h55zM156 38v105h-92v-105h92z" />
    <glyph glyph-name="quotedbl" unicode="&#x22;" horiz-adv-x="319" 
d="M201 571q-15 0 -26 10t-13 24l-3 21l-3 -21q-2 -14 -13 -24t-25 -10h-45q-14 0 -25.5 10t-12.5 24l-18 130v93q0 17 11.5 28t27.5 11h79q15 0 24 -9q10 9 24 9h80q16 0 27 -11t11 -28v-93l-17 -130q-2 -14 -14 -24t-24 -10h-45zM246 610l17 130v88h-80v-88l18 -130h45z
M118 610l17 130v88h-79v-88l17 -130h45z" />
    <glyph glyph-name="numbersign" unicode="#" horiz-adv-x="439" 
d="M196 0q-17 0 -28.5 10.5t-11.5 26.5q-3 -17 -14.5 -27t-25.5 -10h-57q-17 0 -28.5 10.5t-11.5 26.5q0 2 0.5 3.5t0.5 3.5l37 234h-11q-16 0 -27 11.5t-11 27.5v76q0 16 11 27t27 11h35l3 27h-22q-16 0 -27 11t-11 27v76q0 16 11 27.5t27 11.5h46q9 56 18 111t17 112
q2 14 13 23.5t25 9.5h61q16 0 26.5 -10t11.5 -26q3 16 14.5 26t25.5 10h59q20 0 29.5 -13t9.5 -31l-35 -212h10q16 0 27 -11.5t11 -27.5v-76q0 -16 -11 -27t-27 -11h-34l-4 -27h19q17 0 28 -11t11 -27v-76q0 -16 -11 -27.5t-28 -11.5h-44l-37 -245q-2 -14 -13.5 -23.5
t-25.5 -9.5h-58zM252 393h-80l16 103h80zM254 38l44 279h76v76h-64l16 103h67v76h-55l41 256h-59l-41 -256h-78l41 256h-61l-39 -256h-80v-76h68l-17 -103h-67v-76h56l-43 -279h57l44 279h80l-44 -279h58z" />
    <glyph glyph-name="dollar" unicode="$" horiz-adv-x="329" 
d="M149 -50q-16 0 -27.5 11t-11.5 27v28q-48 15 -71 56.5t-23 105.5v150q0 16 11.5 27.5t27.5 11.5h58v6l-21 23q-24 24 -38.5 43.5t-23 39t-11.5 42.5t-3 55v113q0 68 24 107t70 54v23q0 16 11.5 27t27.5 11h30q16 0 27 -11t11 -27v-23q46 -15 69 -54t23 -107v-126
q0 -17 -11 -28t-27 -11h-58v-24q32 -30 51.5 -52.5t30 -46t14 -51.5t3.5 -68v-104q0 -131 -95 -163v-27q0 -16 -11 -27t-27 -11h-30zM204 170q0 -37 -29 -42v242q18 -23 23.5 -45.5t5.5 -57.5v-97zM152 503q-17 17 -23.5 32.5t-6.5 38.5v122q0 37 30 43v-236zM179 -12v59
q48 5 71.5 38.5t23.5 92.5v104q0 35 -2.5 59t-10 42.5t-20 34t-32.5 34.5l-34 32v255q30 -8 30 -43v-133h66v126q0 62 -22 93t-70 36v55h-30v-55q-46 -5 -70 -36.5t-24 -92.5v-113q0 -27 2.5 -46.5t9.5 -37t19.5 -34t32.5 -36.5l33 -33v-261q-17 3 -23.5 14.5t-6.5 34.5v151
h-67v-150q0 -58 22.5 -91.5t71.5 -38.5v-60h30z" />
    <glyph glyph-name="percent" unicode="%" horiz-adv-x="518" 
d="M54 0q-18 0 -29 11t-11 26q0 9 4 17l159 356q-21 -10 -54 -10q-55 0 -80 27.5t-25 78.5v270q0 51 25 78t80 27q104 0 104 -105v-255l144 323q3 8 14.5 15.5t20.5 7.5h59q17 0 28 -11t11 -26q0 -9 -4 -17l-158 -356q11 5 24 7.5t30 2.5q103 0 103 -106v-270
q0 -105 -103 -105q-55 0 -80 27t-25 78v252l-142 -320q-4 -8 -15 -15.5t-21 -7.5h-59zM409 90q0 -14 -13 -14q-15 0 -15 14v272q0 14 15 14q13 0 13 -14v-272zM329 91q0 -32 16 -49.5t51 -17.5q65 0 65 67v270q0 67 -65 67q-35 0 -51 -17.5t-16 -49.5v-270zM113 38l352 790
h-59l-352 -790h59zM136 505q0 -14 -13 -14q-15 0 -15 14v272q0 14 15 14q13 0 13 -14v-272zM57 506q0 -32 15.5 -49.5t50.5 -17.5q65 0 65 67v270q0 67 -65 67q-35 0 -50.5 -17.5t-15.5 -49.5v-270z" />
    <glyph glyph-name="ampersand" unicode="&#x26;" horiz-adv-x="419" 
d="M415 45q0 -23 -24 -36t-63 -13q-14 0 -27.5 4t-24.5 10q-20 -11 -42.5 -15t-48.5 -4q-52 0 -85.5 12.5t-53 38t-27 63.5t-7.5 89v57q0 31 2 56t9 49.5t21 50.5t38 59l-14 34v-1q-11 29 -17 50.5t-9 39.5t-3.5 34.5t-0.5 36.5v48q0 90 35 128.5t112 38.5q40 0 67.5 -12.5
t44 -35t23.5 -52.5t7 -66v-58q0 -28 -4.5 -52t-13.5 -48.5t-23.5 -50.5t-34.5 -57q6 -20 13 -40.5t14 -40.5q11 8 24 8h69q16 0 27 -11.5t11 -27.5v-31q0 -37 -5 -70.5t-14 -63.5q10 -4 17.5 -13t7.5 -23v-85zM176 203v-7q0 -45 17 -45h1zM347 156l1 -1l-1 -1l1 2h-1z
M169 557q-5 18 -8.5 33t-5 28.5t-2 26.5t-0.5 28v31q0 46 33 46q18 0 25 -14t7 -43v-28q0 -41 -11 -75t-29 -60zM243 128q-8 -8 -21.5 -12t-28.5 -4q-32 0 -44 20.5t-12 63.5v58q0 42 4 67t17 48zM376 130q-6 -8 -14.5 -10t-16.5 -2t-16 5q42 70 42 177v31h-69v-27
q0 -25 -2.5 -47.5t-8.5 -42.5l-83 233q21 32 36.5 58t25.5 49.5t14.5 47t4.5 49.5v58q0 27 -5.5 50t-17.5 40.5t-32 27t-49 9.5q-58 0 -83 -29t-25 -99v-48q0 -18 0.5 -33t3.5 -31.5t8.5 -36t15.5 -46.5l19 -54q-24 -32 -38.5 -57.5t-22 -49.5t-10 -48t-2.5 -53v-57
q0 -41 6 -72t21 -51.5t41 -30.5t66 -10q29 0 52.5 6.5t38.5 21.5q18 -23 52 -23q18 0 29 2.5t19 7.5v85z" />
    <glyph glyph-name="quotesingle" unicode="'" horiz-adv-x="191" 
d="M73 571q-14 0 -25 10t-13 24l-18 130v93q0 17 11.5 28t27.5 11h79q16 0 27.5 -11t11.5 -28v-93l-18 -130q-2 -14 -13 -24t-25 -10h-45zM118 610l17 130v88h-79v-88l17 -130h45z" />
    <glyph glyph-name="parenleft" unicode="(" horiz-adv-x="300" 
d="M245 -77q-95 0 -140.5 48.5t-45.5 156.5v611q0 108 45.5 156.5t140.5 48.5h8q17 0 28 -11.5t11 -27.5v-64q0 -16 -11 -27t-28 -11h-8q-46 0 -46 -64v-611q0 -64 46 -64h8q17 0 28 -11t11 -27v-64q0 -17 -11 -28t-28 -11h-8zM253 -38v64h-8q-85 0 -85 102v611
q0 102 85 102h8v64h-8q-75 0 -111.5 -39t-36.5 -127v-611q0 -88 36.5 -127t111.5 -39h8z" />
    <glyph glyph-name="parenright" unicode=")" horiz-adv-x="300" 
d="M97 -77q-16 0 -27 11t-11 28v64q0 16 11 27t27 11h9q46 0 46 64v611q0 64 -46 64h-9q-16 0 -27 11t-11 27v64q0 16 11 27.5t27 11.5h9q94 0 140 -48.5t46 -156.5v-611q0 -108 -46 -156.5t-140 -48.5h-9zM106 -38q75 0 111 39t36 127v611q0 88 -36 127t-111 39h-9v-64h9
q84 0 84 -102v-611q0 -102 -84 -102h-9v-64h9z" />
    <glyph glyph-name="asterisk" unicode="*" horiz-adv-x="367" 
d="M268 526q-10 -7 -22 -7q-22 0 -34 18l-29 45l-28 -45q-6 -10 -15 -14t-18 -5q-12 0 -23 8l-43 32q-16 12 -16 29q0 14 9 25l34 42l-52 13q-14 3 -21 13.5t-8 23.5q0 3 2 11l16 51q4 12 14.5 19.5t22.5 7.5q8 0 13 -2l50 -19l-3 55q0 17 10.5 28.5t28.5 11.5h54
q17 0 28 -11.5t11 -28.5l-3 -53l50 19q7 3 15 3q28 0 36 -28l16 -52q1 -4 1 -11q0 -14 -8 -23.5t-21 -13.5l-51 -14l34 -41q9 -11 9 -24q0 -18 -16 -31zM288 588l-72 88l109 30l-16 51l-105 -42l6 113h-54l6 -113l-105 41l-17 -51l110 -29l-71 -88l43 -31l60 96l63 -96z" />
    <glyph glyph-name="plus" unicode="+" horiz-adv-x="501" 
d="M218 212q-16 0 -27 11t-11 28v119h-119q-16 0 -27 11t-11 27v66q0 16 11 27.5t27 11.5h119v118q0 16 11 27t27 11h66q16 0 27.5 -11t11.5 -27v-118h119q16 0 27 -11.5t11 -27.5v-66q0 -16 -11 -27t-27 -11h-119v-119q0 -17 -11.5 -28t-27.5 -11h-66zM284 251v157h158v66
h-158v157h-66v-157h-157v-66h157v-157h66z" />
    <glyph glyph-name="comma" unicode="," horiz-adv-x="194" 
d="M66 -59q-16 0 -27 11.5t-11 27.5v36q0 10 2 15q-13 10 -13 29v98q0 17 11.5 28t27.5 11h82q16 0 27.5 -11t11.5 -28v-116q0 -21 -5.5 -39t-17.5 -32t-31.5 -22t-46.5 -8h-10zM76 -20q34 0 48 18t14 44v116h-82v-98h37v-24q0 -20 -18 -20h-9v-36h10z" />
    <glyph glyph-name="hyphen" unicode="-" horiz-adv-x="228" 
d="M38 364q-16 0 -27 11t-11 27v68q0 17 11 28t27 11h154q16 0 27 -11t11 -28v-68q0 -16 -11 -27t-27 -11h-154zM192 402v68h-154v-68h154z" />
    <glyph glyph-name="period" unicode="." horiz-adv-x="193" 
d="M56 0q-16 0 -27.5 11t-11.5 27v120q0 17 11.5 28t27.5 11h82q16 0 27.5 -11t11.5 -28v-120q0 -16 -11.5 -27t-27.5 -11h-82zM138 38v120h-82v-120h82z" />
    <glyph glyph-name="slash" unicode="/" horiz-adv-x="286" 
d="M32 0q-17 0 -28 10.5t-11 27.5q0 5 1 8l158 790q2 12 13 21.5t24 9.5h65q17 0 28 -11t11 -27q0 -2 -0.5 -4t-0.5 -4l-159 -790q-2 -13 -13 -22t-24 -9h-64zM96 38l158 790h-65l-157 -790h64z" />
    <glyph glyph-name="zero" unicode="0" horiz-adv-x="371" 
d="M17 703q0 85 40 129t128 44t128 -44t40 -129v-539q0 -85 -40 -129t-128 -44t-128 44t-40 129v539zM189 705q0 6 -4 6q-3 0 -3 -6v-543q0 -6 3 -6q4 0 4 6v543zM228 162q0 -45 -43 -45q-41 0 -41 45v543q0 45 41 45q43 0 43 -45v-543zM56 164q0 -66 31 -100t98 -34
q68 0 99 34t31 100v539q0 66 -31 100t-99 34q-67 0 -98 -34t-31 -100v-539z" />
    <glyph glyph-name="one" unicode="1" horiz-adv-x="236" 
d="M85 0q-16 0 -27 11t-11 27v607h-5q-16 0 -27 11t-11 28v86q0 16 11 27t27 11h14v20q0 17 11 28t27 11h79q16 0 27 -11t11 -28v-790q0 -16 -11 -27t-27 -11h-88zM173 38v790h-79v-21q0 -37 -32 -37h-20v-86h43v-646h88z" />
    <glyph glyph-name="two" unicode="2" horiz-adv-x="352" 
d="M51 0q-16 0 -27.5 11t-11.5 27v144q0 36 4.5 67t14 60.5t25 59t37.5 61.5q20 30 35 53.5t26 43.5q-8 -3 -15 -3h-88q-16 0 -27.5 11t-11.5 28v137q0 94 40 135t124 41q83 0 124 -42t41 -134v-92q0 -67 -22.5 -124t-67.5 -119q-25 -34 -39 -58t-21.5 -43.5t-9.5 -38.5
t-2 -43v-17h123q17 0 28 -11t11 -27v-89q0 -16 -11 -27t-28 -11h-251zM302 38v89h-162v55q0 27 2.5 48t10.5 43.5t24 49t43 64.5q42 58 62 109.5t20 111.5v92q0 72 -31.5 104.5t-94.5 32.5q-64 0 -94.5 -32t-30.5 -105v-137h88v138q0 47 37 47t37 -47v-85q0 -28 -3 -49
t-12.5 -43t-27 -49t-45.5 -67q-24 -34 -39 -60.5t-22.5 -51.5t-10 -52t-2.5 -62v-144h251z" />
    <glyph glyph-name="three" unicode="3" horiz-adv-x="353" 
d="M140 357q12 -1 22 -7.5t15 -19.5v31h-40q-16 0 -27 11t-11 27v84q0 16 11 27t27 11h41q-2 0 -2 8v17q-5 -10 -14.5 -16.5t-21.5 -6.5h-87q-16 0 -27.5 11t-11.5 28v139q0 93 39.5 134t123.5 41q85 0 123 -41t38 -135v-175q0 -25 -7 -47t-16 -36q11 -16 18 -37t7 -50v-191
q0 -78 -39.5 -125.5t-123.5 -47.5q-83 0 -124 47.5t-41 124.5v156q0 16 11.5 27t27.5 11h89zM215 164q0 -46 -38 -46q-37 0 -37 46v155h-89v-156q0 -60 31 -96.5t95 -36.5t94 37t30 97v191q0 38 -13.5 58t-38.5 28q26 11 38.5 30.5t12.5 53.5v175q0 73 -29.5 105t-93.5 32
t-94 -32t-30 -104v-139h87v140q0 23 8.5 34.5t28.5 11.5t28.5 -11.5t8.5 -34.5v-173q0 -23 -7 -34.5t-27 -11.5h-43v-84h40q22 0 30 -11.5t8 -34.5v-189z" />
    <glyph glyph-name="four" unicode="4" horiz-adv-x="362" 
d="M204 0q-16 0 -27 11t-11 27v119h-131q-17 0 -28 11.5t-11 27.5v81l171 563q3 11 14 19t23 8h83q16 0 27 -11t11 -28v-510q17 0 28 -11.5t11 -27.5v-83q0 -16 -11 -27.5t-28 -11.5v-119q0 -16 -11 -27t-27 -11h-83zM166 318v3q-1 -1 -1 -3h1zM287 38v158h38v83h-38v549
h-83l-169 -555v-77h169v-158h83zM113 279q18 59 32 105.5t25.5 85t20.5 70.5t18 62q-1 -30 -2 -62.5t-1.5 -71t-1 -85t-0.5 -104.5h-91z" />
    <glyph glyph-name="five" unicode="5" horiz-adv-x="358" 
d="M143 367q13 0 23.5 -8.5t13.5 -21.5v83q0 2 -1 2q-8 0 -9 -10q-2 -14 -13.5 -23.5t-25.5 -8.5l-77 3q-16 1 -27 12t-10 27l10 407q0 17 10.5 27.5t27.5 10.5h235q16 0 27 -11t11 -28v-89q0 -16 -11 -27t-27 -11h-118q-1 -16 -1.5 -29t-0.5 -27t-0.5 -30.5t-0.5 -39.5
q7 2 16.5 2.5t17.5 0.5q61 0 95.5 -36.5t34.5 -123.5v-256q0 -87 -39 -129t-123 -42q-163 0 -163 171v166q0 16 11.5 27.5t27.5 11.5h86zM219 164q0 -46 -38 -46t-38 45v165h-86v-166q0 -132 124 -132q64 0 93.5 32.5t29.5 99.5v256q0 66 -23.5 94t-67.5 28q-29 0 -47 -9
t-29 -23l9 231h154v89h-235l-9 -407l76 -2q4 19 15.5 30.5t31.5 11.5q40 0 40 -41v-256z" />
    <glyph glyph-name="six" unicode="6" horiz-adv-x="362" 
d="M347 164q0 -81 -41 -127t-125 -46q-83 0 -124 46t-41 127v539q0 81 41 127t124 46q85 0 123 -46t38 -127v-137q0 -12 -7 -21t-17 -14q29 -40 29 -120v-247zM308 411q0 66 -23 95t-72 29q-28 0 -44 -10t-25 -22v200q0 45 37 45t37 -45v-137h85v137q0 63 -29 98.5t-93 35.5
q-63 0 -94.5 -35.5t-31.5 -98.5v-539q0 -63 31.5 -98.5t94.5 -35.5q64 0 95.5 35.5t31.5 98.5v247zM219 164q0 -23 -7.5 -34.5t-30.5 -11.5q-22 0 -29.5 11.5t-7.5 34.5v254q2 14 11 22.5t26 8.5q24 0 31 -18t7 -50v-217z" />
    <glyph glyph-name="seven" unicode="7" horiz-adv-x="332" 
d="M86 0q-16 0 -27 11t-11 27q0 125 10.5 229.5t25.5 188t33 145t33 100.5h-111q-16 0 -27 11t-11 27v89q0 17 11 28t27 11h254q16 0 27 -11t11 -28v-91q-63 -142 -90.5 -313t-27.5 -386q0 -16 -11 -27t-27 -11h-89zM175 38q0 220 27 393t91 315v82h-254v-89h170
q-9 -15 -29 -64t-41 -135.5t-37 -211t-16 -290.5h89z" />
    <glyph glyph-name="eight" unicode="8" horiz-adv-x="357" 
d="M342 162q0 -171 -164 -171t-164 171v191q0 32 8.5 56t21.5 41q-11 15 -17 35t-6 50v167q0 81 36 127.5t121 46.5q84 0 120 -46.5t36 -127.5v-167q0 -55 -22 -86q14 -17 22 -40.5t8 -55.5v-191zM215 523q0 -40 -37 -40t-37 40v179q0 25 8 35.5t29 10.5q22 0 29.5 -10.5
t7.5 -35.5v-179zM216 163q0 -45 -38 -45t-38 45v197q0 40 38 40t38 -40v-197zM303 353q0 40 -14.5 62.5t-37.5 31.5q20 11 32.5 31t12.5 57v167q0 63 -27.5 99t-90.5 36q-64 0 -91 -36t-27 -99v-167q0 -37 12.5 -57t33.5 -31q-24 -9 -38.5 -31.5t-14.5 -62.5v-191
q0 -132 125 -132t125 132v191z" />
    <glyph glyph-name="nine" unicode="9" horiz-adv-x="361" 
d="M16 300q0 16 10.5 26.5t24.5 12.5q-18 20 -27 51t-9 78v235q0 82 40 127.5t124 45.5q83 0 124 -45.5t41 -126.5v-540q0 -81 -41 -127t-124 -46q-77 0 -120 46t-43 127v136zM216 164q0 -46 -37 -46q-38 0 -38 46v136h-86v-136q0 -63 32.5 -98.5t91.5 -35.5q63 0 94.5 35.5
t31.5 98.5v540q0 63 -31.5 98t-94.5 35q-64 0 -94.5 -35t-30.5 -99v-235q0 -66 22.5 -94.5t71.5 -28.5q26 0 42.5 9.5t25.5 21.5v-212zM216 466q-2 -14 -11 -23.5t-26 -9.5q-38 0 -38 44v226q0 25 9 35t29 10q37 0 37 -45v-237z" />
    <glyph glyph-name="colon" unicode=":" horiz-adv-x="193" 
d="M56 351q-16 0 -27.5 11.5t-11.5 27.5v119q0 16 11.5 27t27.5 11h82q16 0 27.5 -11t11.5 -27v-119q0 -16 -11.5 -27.5t-27.5 -11.5h-82zM56 0q-16 0 -27.5 11t-11.5 27v120q0 17 11.5 28t27.5 11h82q16 0 27.5 -11t11.5 -28v-120q0 -16 -11.5 -27t-27.5 -11h-82zM138 38
v120h-82v-120h82zM138 390v119h-82v-119h82z" />
    <glyph glyph-name="semicolon" unicode=";" horiz-adv-x="194" 
d="M56 351q-16 0 -27.5 11.5t-11.5 27.5v119q0 16 11.5 27t27.5 11h82q16 0 27.5 -11t11.5 -27v-119q0 -16 -11.5 -27.5t-27.5 -11.5h-82zM66 -59q-16 0 -27 11.5t-11 27.5v36q0 10 2 15q-13 10 -13 29v98q0 17 11.5 28t27.5 11h82q16 0 27.5 -11t11.5 -28v-116
q0 -21 -5.5 -39t-17.5 -32t-31.5 -22t-46.5 -8h-10zM76 -20q34 0 48 18t14 44v116h-82v-98h37v-24q0 -20 -18 -20h-9v-36h10zM138 390v119h-82v-119h82z" />
    <glyph glyph-name="less" unicode="&#x3c;" horiz-adv-x="501" 
d="M50 364q-11 4 -19 14.5t-8 21.5v81q0 11 8 22t19 14l380 117q4 1 12 1q16 0 27 -10.5t11 -27.5v-66q0 -12 -8 -23.5t-20 -14.5l-184 -52l184 -55q11 -4 19.5 -14.5t8.5 -22.5v-66q0 -17 -11 -27.5t-26 -10.5h-6.5t-6.5 2zM442 283v66l-313 94l313 88v66l-381 -116v-81z
" />
    <glyph glyph-name="equal" unicode="=" horiz-adv-x="501" 
d="M61 459q-16 0 -27 11t-11 27v67q0 17 11 28t27 11h381q16 0 27 -11t11 -28v-67q0 -16 -11 -27t-27 -11h-381zM61 279q-16 0 -27 11.5t-11 27.5v67q0 16 11 27t27 11h381q16 0 27 -11t11 -27v-67q0 -16 -11 -27.5t-27 -11.5h-381zM442 318v67h-381v-67h381zM442 497v67
h-381v-67h381z" />
    <glyph glyph-name="greater" unicode="&#x3e;" horiz-adv-x="501" 
d="M73 247q-4 -1 -7 -1.5t-6 -0.5q-15 0 -26 10.5t-11 27.5v66q0 11 8.5 22t19.5 15l184 55q-48 14 -92.5 26.5t-91.5 25.5q-11 3 -19.5 15t-8.5 23v66q0 17 11 27.5t27 10.5q8 0 12 -1l380 -117q11 -4 19 -14.5t8 -21.5v-81q0 -11 -8 -21.5t-19 -14.5zM442 400v81l-381 116
v-66l313 -88l-313 -94v-66z" />
    <glyph glyph-name="question" unicode="?" horiz-adv-x="342" 
d="M118 0q-16 0 -27 11t-11 27v120q0 18 13 30q-13 10 -13 30v106q0 33 2.5 58.5t9 46.5t17 39t26.5 37q7 8 12 14t9 12q-8 -7 -23 -7h-84q-16 0 -27 11t-11 28v138q0 90 38 132.5t122 42.5q83 0 122.5 -42t39.5 -134v-87q0 -64 -14 -107t-43 -77q-13 -15 -20.5 -25.5
t-11 -21t-4.5 -23.5t-1 -33v-108q0 -18 -14 -30q14 -14 14 -30v-120q0 -16 -11 -27t-27 -11h-83zM201 38v120h-83v-120h83zM201 218v108q0 25 1 41t5.5 28.5t13.5 25.5t26 33q25 29 36.5 65.5t11.5 93.5v87q0 72 -30.5 104.5t-93.5 32.5q-64 0 -93 -33t-29 -103v-138h84v140
q0 45 38 45q36 0 36 -46v-89q0 -28 -1 -46.5t-5.5 -32.5t-13 -26t-22.5 -28q-13 -16 -22 -31.5t-14.5 -33.5t-8 -40t-2.5 -51v-106h83z" />
    <glyph glyph-name="at" unicode="@" horiz-adv-x="553" 
d="M527 241q0 -68 -36 -106h6q23 0 32 -18.5t9 -36.5q0 -35 -11 -67.5t-40 -57.5t-79.5 -39.5t-130.5 -14.5q-60 0 -108.5 14t-82.5 46.5t-52.5 85.5t-18.5 132v335q0 70 15.5 119t47.5 80t81 45.5t117 14.5q130 0 190.5 -57.5t60.5 -183.5v-291zM402 87q-2 6 -2 10h-3
q-42 0 -73 20q-12 -8 -26.5 -12t-33.5 -4q-36 0 -62.5 12t-40.5 43q5 -61 37 -83.5t90 -22.5q65 0 89.5 10t24.5 25v2zM276 627q-65 0 -90.5 -29t-25.5 -83q14 35 40 47t64 12q23 0 41 -8q4 1 7 2t7 1h43q14 0 26 -10q-8 32 -34.5 50t-77.5 18zM309 218q-8 -23 -29 -23
q-18 0 -26 9t-8 32v199q0 20 8.5 28.5t25.5 8.5q22 0 29 -28v-226zM440 99q1 -3 1 -14q0 -16 -7.5 -29.5t-25 -23t-47 -15t-73.5 -5.5q-41 0 -72 8t-52 27t-31.5 51t-10.5 79v337q0 73 34 112t120 39q81 0 117 -35.5t36 -95.5v-296q0 -26 -9.5 -35.5t-24.5 -9.5
q-17 0 -23.5 8.5t-9.5 20.5v309h-43q-1 -7 -1.5 -14t-0.5 -16q-13 35 -53 35q-18 0 -32 -4.5t-24 -15.5t-15.5 -30t-5.5 -48v-210q0 -51 21 -70t56 -19q26 0 40 10.5t19 23.5q8 -17 28 -27.5t46 -10.5q40 0 66 28t26 78v291q0 106 -51.5 154t-161.5 48q-58 0 -100 -12
t-69 -38.5t-40 -68.5t-13 -101v-335q0 -68 15.5 -114t44.5 -73.5t70.5 -39.5t92.5 -12q68 0 111 11.5t68 31t34 44.5t9 53q0 5 -0.5 9.5t-1.5 9.5h-57z" />
    <glyph glyph-name="A" unicode="A" horiz-adv-x="377" 
d="M250 0q-14 0 -25.5 10t-13.5 24l-10 88h-29l-11 -87q-2 -15 -13 -25t-25 -10h-87q-17 0 -27.5 10.5t-10.5 26.5v6l103 790q2 14 13 24t25 10h103q14 0 25 -10t13 -24l97 -790v-6q0 -16 -10.5 -26.5t-27.5 -10.5h-89zM147 242q11 88 21.5 177.5t18.5 181.5
q9 -92 18.5 -180.5t20.5 -178.5h-79zM339 38l-97 790h-103l-103 -790h87q4 32 7 61.5t8 60.5h97l15 -122h89z" />
    <glyph glyph-name="B" unicode="B" horiz-adv-x="368" 
d="M61 0q-16 0 -27 11t-11 27v790q0 17 11 28t27 11h128q85 0 121.5 -42t36.5 -134v-160q0 -46 -20 -78q13 -15 21 -37.5t8 -50.5v-193q0 -91 -41.5 -131.5t-125.5 -40.5h-128zM189 365h-1v-200h1v200zM189 38q65 0 97 32t32 102v193q0 38 -15.5 57.5t-36.5 24.5
q42 17 42 84v160q0 72 -27 104.5t-92 32.5h-128v-790h128zM228 173q0 -46 -39 -46h-39v276h40q21 0 29.5 -10t8.5 -36v-184zM226 522q0 -41 -36 -41h-40v258h39q20 0 28.5 -9.5t8.5 -35.5v-172z" />
    <glyph glyph-name="C" unicode="C" horiz-adv-x="351" 
d="M220 524q-12 0 -21.5 6.5t-14.5 16.5v-204q5 11 14.5 17.5t21.5 6.5h80q17 0 28 -11.5t11 -27.5v-163q0 -89 -37 -131.5t-119 -42.5q-166 0 -166 172v538q0 175 166 175q156 0 156 -173v-140q0 -17 -11 -28t-28 -11h-80zM220 164q0 -46 -37 -46t-37 46v539q0 45 37 45
q20 0 28.5 -11t8.5 -34v-140h80v140q0 134 -117 134q-127 0 -127 -136v-538q0 -133 127 -133q62 0 89.5 33t27.5 102v163h-80v-164z" />
    <glyph glyph-name="D" unicode="D" horiz-adv-x="369" 
d="M61 0q-16 0 -27 11t-11 27v790q0 17 11 28t27 11h125q84 0 124.5 -46t40.5 -128v-520q0 -173 -165 -173h-125zM186 38q127 0 127 135v520q0 64 -31.5 99.5t-95.5 35.5h-125v-790h125zM225 173q0 -46 -39 -46h-36v612h36q39 0 39 -46v-520z" />
    <glyph glyph-name="E" unicode="E" 
d="M61 0q-16 0 -27 11t-11 27v790q0 17 11 28t27 11h214q16 0 27 -11t11 -28v-89q0 -16 -11 -27t-27 -11h-87v-177h45q16 0 27.5 -11t11.5 -27v-90q0 -16 -11.5 -27t-27.5 -11h-45v-193h91q16 0 27.5 -11t11.5 -27v-89q0 -16 -11.5 -27t-27.5 -11h-218zM279 38v89h-129v269
h83v90h-83v253h125v89h-214v-790h218z" />
    <glyph glyph-name="F" unicode="F" horiz-adv-x="314" 
d="M61 0q-16 0 -27 11t-11 27v790q0 17 11 28t27 11h218q16 0 27.5 -11t11.5 -28v-89q0 -16 -11.5 -27t-27.5 -11h-91v-181h46q16 0 27.5 -11t11.5 -27v-89q0 -16 -11.5 -27.5t-27.5 -11.5h-46v-316q0 -16 -11 -27t-27 -11h-89zM150 38v355h84v89h-84v257h129v89h-218v-790
h89z" />
    <glyph glyph-name="G" unicode="G" horiz-adv-x="365" 
d="M300 -5q-5 0 -16 6t-15 10l-3 3q-20 -11 -43.5 -17t-46.5 -6q-34 0 -63 9t-50.5 29t-33.5 53.5t-12 81.5v538q0 85 41 129.5t124 44.5q85 0 123 -44.5t38 -129.5v-139q0 -17 -11.5 -28t-27.5 -11h-79q-14 0 -26 8t-17 20v-101h128q16 0 27 -11t11 -27v-379q0 -17 -11 -28
t-27 -11h-10zM310 34v379h-132v-85h47v-170q-3 -40 -44 -40q-17 0 -27 11t-10 35v539q0 45 38 45q43 0 43 -45v-140h79v139q0 66 -28.5 100.5t-93.5 34.5q-63 0 -94.5 -34.5t-31.5 -100.5v-538q0 -38 9 -63.5t25.5 -41.5t38 -22.5t47.5 -6.5q29 0 55 9t40 32l29 -37h10z" />
    <glyph glyph-name="H" unicode="H" horiz-adv-x="374" 
d="M225 0q-14 0 -24.5 8t-13.5 22q-4 -14 -14 -22t-23 -8h-89q-16 0 -27 11t-11 27v790q0 17 11 28t27 11h89q13 0 23 -8.5t14 -21.5q3 13 13.5 21.5t24.5 8.5h88q16 0 27 -11t11 -28v-790q0 -16 -11 -27t-27 -11h-88zM313 38v790h-88v-343h-75v343h-89v-790h89v358h75v-358
h88z" />
    <glyph glyph-name="I" unicode="I" horiz-adv-x="215" 
d="M63 0q-16 0 -27 11t-11 27v790q0 17 11 28t27 11h89q16 0 27 -11t11 -28v-790q0 -16 -11 -27t-27 -11h-89zM152 38v790h-89v-790h89z" />
    <glyph glyph-name="J" unicode="J" horiz-adv-x="262" 
d="M-3 127q0 17 10.5 27.5t26.5 10.5q10 0 20.5 -2.5t24.5 -2.5q-2 0 -2 10v658q0 17 11 28t27 11h89q17 0 28 -11t11 -28v-658q0 -93 -42 -134.5t-122 -41.5q-38 0 -60 9.5t-22 34.5v89zM36 38q8 -2 18.5 -3.5t24.5 -1.5q61 0 93 32.5t32 104.5v658h-89v-658q0 -48 -36 -48
q-14 0 -24.5 1.5t-18.5 3.5v-89z" />
    <glyph glyph-name="K" unicode="K" horiz-adv-x="391" 
d="M259 0q-11 0 -22 8t-14 19l-35 117v-106q0 -16 -11 -27t-27 -11h-90q-16 0 -27 11t-11 27v790q0 17 11 28t27 11h90q16 0 27 -11t11 -28v-82l32 95q3 10 14 18t22 8h95q17 0 28.5 -10t11.5 -27q0 -7 -3 -14l-123 -346l132 -420q2 -10 2 -14q0 -15 -10.5 -25.5
t-27.5 -10.5h-102zM361 38l-136 434l126 356h-95q-28 -85 -55 -167t-53 -169q2 22 2 44.5v48.5v80v163h-90v-790h90v166v95v62t-2 59q28 -95 55 -189t56 -193h102z" />
    <glyph glyph-name="L" unicode="L" horiz-adv-x="315" 
d="M61 0q-16 0 -27 11t-11 27v790q0 17 11 28t27 11h89q16 0 27 -11t11 -28v-663h91q16 0 27.5 -11t11.5 -27v-89q0 -16 -11.5 -27t-27.5 -11h-218zM279 38v89h-129v701h-89v-790h218z" />
    <glyph glyph-name="M" unicode="M" horiz-adv-x="491" 
d="M349 0q-11 0 -19.5 6t-13.5 14q-6 -8 -14.5 -14t-19.5 -6h-77q-10 0 -18.5 5t-13.5 13q-5 -8 -13.5 -13t-19.5 -5h-81q-17 0 -28 11t-11 27v790q0 17 11 28t28 11h118q14 0 25 -10t13 -25q8 -79 15 -142.5t13 -115.5l29 258q2 15 13 25t25 10h121q16 0 27 -11t11 -28
v-790q0 -16 -11 -27t-27 -11h-82zM431 38v790h-121q-14 -134 -24.5 -226t-18.5 -157.5t-14 -111.5t-10 -88q-5 42 -10.5 88t-13 111.5t-18 157.5t-24.5 226h-118v-790h81v231q0 78 -1 154.5t-3 154.5l69 -540h77q13 105 23.5 184t18.5 142t15 114t14 100q-2 -78 -3 -154.5
t-1 -154.5v-231h82z" />
    <glyph glyph-name="N" unicode="N" horiz-adv-x="395" 
d="M249 0q-13 0 -24 9t-14 22l-38 176v-169q0 -16 -11 -27t-28 -11h-75q-17 0 -28 11t-11 27v790q0 17 11 28t28 11h103q14 0 25 -9.5t13 -22.5l21 -120v113q0 17 11 28t27 11h76q16 0 27 -11t11 -28v-790q0 -16 -11 -27t-27 -11h-86zM335 38v790h-76v-268v-107v-80t2 -81
q-9 46 -18 94.5t-20.5 110t-26.5 141.5t-34 190h-103v-790h75v205v130v97.5t-2 97.5q10 -48 21 -98.5t25 -112.5l31.5 -139.5t39.5 -179.5h86z" />
    <glyph glyph-name="O" unicode="O" horiz-adv-x="364" 
d="M17 703q0 85 40.5 129t123.5 44q85 0 125.5 -44t40.5 -129v-539q0 -85 -40.5 -129t-125.5 -44q-83 0 -123.5 44t-40.5 129v539zM220 164q0 -46 -39 -46q-37 0 -37 46v539q0 45 37 45q39 0 39 -45v-539zM56 164q0 -134 125 -134q127 0 127 134v539q0 134 -127 134
q-125 0 -125 -134v-539z" />
    <glyph glyph-name="P" unicode="P" horiz-adv-x="365" 
d="M61 0q-16 0 -27 11t-11 27v790q0 17 11 28t27 11h125q92 0 134 -43.5t42 -138.5v-129q0 -96 -42.5 -138.5t-131.5 -42.5v-337q0 -16 -11 -27t-27 -11h-89zM150 38v376h37q70 0 103.5 33.5t33.5 108.5v129q0 75 -33 109t-105 34h-125v-790h89zM236 553q0 -53 -49 -53h-37
v239h36q27 0 38.5 -13t11.5 -40v-133z" />
    <glyph glyph-name="Q" unicode="Q" horiz-adv-x="364" 
d="M347 -33q0 -23 -29 -41t-75 -18q-60 0 -92 31.5t-40 76.5q-95 32 -95 162v525q0 85 40.5 129t124.5 44q85 0 125.5 -44t40.5 -129v-525q0 -64 -23 -105q9 -4 16 -13.5t7 -23.5v-69zM219 173q0 -45 -38 -45q-37 0 -37 45v530q0 45 37 45q38 0 38 -45v-530zM308 36
q-20 -20 -51 -20q-43 0 -51 28q53 7 77.5 40.5t24.5 93.5v525q0 134 -127 134q-126 0 -126 -134v-525q0 -114 92 -132q0 -19 6 -37t18 -32t30 -22.5t42 -8.5q25 0 41 6.5t24 14.5v69z" />
    <glyph glyph-name="R" unicode="R" horiz-adv-x="372" 
d="M232 0q-15 0 -25.5 10.5t-12.5 25.5l-6 48v-46q0 -16 -11 -27t-27 -11h-90q-16 0 -27 11t-11 27v790q0 17 11 28t27 11h123q88 0 133 -41t45 -140v-160q0 -48 -11 -80t-37 -52q14 -71 24 -142.5t21 -141.5l10 -67v-5q0 -17 -11 -27.5t-28 -10.5h-97zM329 38
q-14 93 -27 186t-31 188q26 15 39 42t13 72v160q0 78 -35 110t-105 32h-123v-790h90v356h36q14 -90 24.5 -177.5t21.5 -178.5h97zM232 525q0 -51 -48 -51h-34v265h33q32 0 40.5 -17t8.5 -54v-143z" />
    <glyph glyph-name="S" unicode="S" horiz-adv-x="353" 
d="M12 328q0 16 11.5 27.5t27.5 11.5h71q-22 26 -41 50t-38 50t-25 56t-6 65v119q0 169 165 169q87 0 123.5 -42t36.5 -127v-144q0 -17 -11 -28t-27 -11h-84q33 -38 57 -67.5t39 -57t22 -57.5t7 -68v-114q0 -82 -38 -125.5t-125 -43.5q-88 0 -126.5 43.5t-38.5 125.5v168z
M213 160q0 -42 -39 -42q-20 0 -29 11t-9 31v168h-85v-168q0 -63 29.5 -96.5t96.5 -33.5q66 0 95 33.5t29 96.5v114q0 40 -6.5 68.5t-26.5 56.5q-26 37 -55.5 69.5t-56.5 67.5q-9 12 -12 24t-3 29v118q0 41 38 41q20 0 28.5 -11t8.5 -31v-143h83v144q0 66 -28 98t-94 32
q-126 0 -126 -130v-119q0 -29 5 -54t19 -45q29 -42 56 -72.5t54 -64.5q17 -21 22.5 -37.5t5.5 -41.5v-113z" />
    <glyph glyph-name="T" unicode="T" horiz-adv-x="326" 
d="M119 0q-16 0 -27 11t-11 27v663h-45q-16 0 -27 11t-11 27v89q0 17 11 28t27 11h254q16 0 27 -11t11 -28v-89q0 -16 -11 -27t-27 -11h-44v-663q0 -16 -11.5 -27t-27.5 -11h-88zM207 38v701h83v89h-254v-89h83v-701h88z" />
    <glyph glyph-name="U" unicode="U" horiz-adv-x="369" 
d="M147 867q13 0 23.5 -8.5t13.5 -21.5q3 13 13.5 21.5t24.5 8.5h88q16 0 27 -11t11 -28v-664q0 -173 -164 -173t-164 173v664q0 17 11 28t28 11h88zM222 164q0 -46 -38 -46q-37 0 -37 46v664h-88v-664q0 -134 125 -134q126 0 126 134v664h-88v-664z" />
    <glyph glyph-name="V" unicode="V" horiz-adv-x="380" 
d="M128 0q-15 0 -26 10.5t-13 24.5l-90 790q0 17 9.5 29.5t28.5 12.5h93q14 0 25 -10.5t13 -25.5l22 -244l26 245q2 15 13 25t25 10h89q19 0 28.5 -12.5t9.5 -30.5l-97 -790q-2 -14 -13 -24t-25 -10h-118zM246 38l97 790h-89q-7 -66 -13.5 -133.5t-13.5 -132t-13.5 -123.5
t-11.5 -108t-8.5 -85t-4.5 -54q-1 18 -4 54t-8 85t-10.5 108t-12 123.5t-12.5 132t-12 133.5h-93l91 -790h118z" />
    <glyph glyph-name="W" unicode="W" horiz-adv-x="564" 
d="M328 0q-14 0 -25 10t-13 25q-4 35 -7.5 68.5t-6.5 66.5l-13 -135q-2 -15 -13 -25t-25 -10h-106q-14 0 -25 10t-13 25l-82 790q0 17 9.5 29.5t28.5 12.5h93q14 0 25 -10.5t13 -25.5l14 -182l21 183q1 15 12.5 25t25.5 10h83q14 0 25 -10.5t13 -25.5l16 -171l18 172
q1 15 12.5 25t25.5 10h93q19 0 28.5 -13t9.5 -30l-94 -790q-2 -14 -13 -24t-25 -10h-105zM433 38l94 790h-93q-10 -104 -19.5 -202t-17.5 -177.5t-13.5 -134t-6.5 -71.5q-1 17 -6 71.5t-12.5 134t-16.5 177.5t-18 202h-83q-12 -104 -22.5 -202t-19 -177.5t-14 -134
t-6.5 -71.5q-1 17 -6 71.5t-12 134t-15.5 177.5t-15.5 202h-93l82 -790h106q10 99 19 191.5t16.5 166.5t12.5 124.5t6 65.5q0 -15 4 -65t10.5 -124.5t15.5 -167t19 -191.5h105z" />
    <glyph glyph-name="X" unicode="X" horiz-adv-x="382" 
d="M256 0q-13 0 -24 9t-13 23q-7 35 -15 72.5t-16 73.5q-6 -35 -15 -74t-15 -73q-2 -13 -12.5 -22t-24.5 -9h-90q-17 0 -28.5 10.5t-11.5 25.5q0 4 2 12l107 414l-89 358q-1 2 -1 4.5v4.5q0 17 10.5 27.5t27.5 10.5h95q16 0 25 -10t13.5 -25t6 -32.5t4.5 -32.5q3 15 5 32.5
t6.5 32.5t13 25t25.5 10h92q17 0 27.5 -10.5t10.5 -27.5v-10l-92 -355l109 -416q1 -4 1 -12q0 -15 -11 -25.5t-28 -10.5h-95zM351 38l-110 426l93 364h-92q-6 -37 -14 -78t-15.5 -78.5t-13.5 -67t-7 -41.5q-1 12 -7 41.5t-13.5 67t-15 78.5t-13.5 78h-95l91 -367l-108 -423
h90q10 48 21 100t20.5 97.5t16.5 81t9 51.5q2 -16 9.5 -51.5t17.5 -81.5t21 -97.5t20 -99.5h95z" />
    <glyph glyph-name="Y" unicode="Y" horiz-adv-x="374" 
d="M140 0q-16 0 -27 11t-11 27v342l-105 440q-1 2 -1 4.5v4.5q0 17 11 27.5t28 10.5h93q12 0 23.5 -9.5t13.5 -22.5l25 -130l26 130q2 13 12.5 22.5t24.5 9.5h87q17 0 27.5 -10.5t10.5 -27.5v-4.5t-1 -5.5l-108 -441v-340q0 -16 -11 -27t-28 -11h-90zM230 38v346l110 444
h-87q-9 -48 -19 -98t-19.5 -93t-16.5 -75.5t-9 -45.5q-2 14 -8.5 46t-15.5 75t-18.5 92.5t-18.5 98.5h-93l105 -444v-346h90z" />
    <glyph glyph-name="Z" unicode="Z" horiz-adv-x="350" 
d="M50 0q-16 0 -27 11t-11 27v96l151 570h-106q-16 0 -27.5 11t-11.5 27v86q0 17 11.5 28t27.5 11h244q17 0 28 -11t11 -28v-85l-148 -576h109q17 0 28 -11t11 -27v-91q0 -16 -11 -27t-28 -11h-251zM301 38v91h-159l159 620v79h-244v-86h156l-163 -613v-91h251z" />
    <glyph glyph-name="bracketleft" unicode="[" horiz-adv-x="294" 
d="M97 -77q-16 0 -27 11t-11 28v943q0 16 11 27.5t27 11.5h151q16 0 27 -11.5t11 -27.5v-64q0 -16 -11 -27t-27 -11h-49v-739h49q16 0 27 -11t11 -27v-64q0 -17 -11 -28t-27 -11h-151zM248 -38v64h-88v815h88v64h-151v-943h151z" />
    <glyph glyph-name="backslash" unicode="\" horiz-adv-x="286" 
d="M190 0q-13 0 -24 9t-13 22l-159 790q-1 3 -1 7q0 17 11 28t28 11h65q13 0 24 -9.5t13 -21.5l158 -790q0 -2 0.5 -4.5t0.5 -4.5q0 -16 -11 -26.5t-28 -10.5h-64zM254 38l-157 790h-65l158 -790h64z" />
    <glyph glyph-name="bracketright" unicode="]" horiz-adv-x="294" 
d="M97 -77q-16 0 -27 11t-11 28v64q0 16 11 27t27 11h49v739h-49q-16 0 -27 11t-11 27v64q0 16 11 27.5t27 11.5h151q16 0 27 -11.5t11 -27.5v-943q0 -17 -11 -28t-27 -11h-151zM248 -38v943h-151v-64h87v-815h-87v-64h151z" />
    <glyph glyph-name="asciicircum" unicode="^" horiz-adv-x="360" 
d="M235 505q-12 0 -23 9t-14 21l-17 69l-19 -70q-3 -12 -14.5 -20.5t-22.5 -8.5h-64q-17 0 -28 10.5t-11 26.5q0 4 2 12l79 285q3 11 14.5 19.5t22.5 8.5h81q11 0 22.5 -8.5t14.5 -19.5l78 -285q1 -4 1 -12q0 -16 -10.5 -26.5t-27.5 -10.5h-64zM299 543l-78 285h-81
l-79 -285h64l57 216l53 -216h64z" />
    <glyph glyph-name="underscore" unicode="_" horiz-adv-x="345" 
d="M26 -104q-16 0 -27 11.5t-11 27.5v59q0 16 11 27.5t27 11.5h293q16 0 27 -11.5t11 -27.5v-59q0 -16 -11 -27.5t-27 -11.5h-293zM319 -65v59h-293v-59h293z" />
    <glyph glyph-name="grave" unicode="`" horiz-adv-x="331" 
d="M193 630q-6 0 -15.5 4t-13.5 9l-131 155q-11 11 -11 27q0 14 10.5 25t28.5 11h102q7 0 17.5 -5.5t14.5 -10.5l106 -155q5 -5 6.5 -11.5t1.5 -12.5q0 -14 -10.5 -25t-28.5 -11h-77zM270 668l-107 155h-102l132 -155h77z" />
    <glyph glyph-name="a" unicode="a" horiz-adv-x="327" 
d="M199 0q-7 0 -17 5q-22 -14 -53 -14q-59 0 -89.5 31.5t-30.5 101.5v87q0 57 14.5 92t39.5 58h-7q-16 0 -27.5 11t-11.5 27v126q0 156 143 156q145 0 145 -156v-436q0 -21 2.5 -32.5t2.5 -19.5q0 -16 -10.5 -26.5t-27.5 -10.5h-73zM190 133q-9 -25 -32 -25q-32 0 -32 36v61
q0 24 1 42.5t7 32.5t19 25t37 20v-192zM272 38q-5 18 -5 51v436q0 117 -107 117q-104 0 -104 -117v-126h70v125q0 18 6 28t26 10q32 0 32 -38v-134q-30 -14 -56 -27.5t-45.5 -33t-30.5 -48t-11 -70.5v-87q0 -50 21 -72t61 -22q23 0 39 10.5t27 30.5q0 -22 4 -33h73z" />
    <glyph glyph-name="b" unicode="b" horiz-adv-x="346" 
d="M61 0q-16 0 -27 11t-11 27v790q0 17 11 28t27 11h80q16 0 27.5 -11t11.5 -28v-149q5 1 11.5 1.5t12.5 0.5q63 0 93.5 -35t30.5 -113v-377q0 -82 -33 -122t-106 -40q-36 0 -62 17q-6 -5 -13 -8t-12 -3h-41zM102 38q5 10 7.5 19t4.5 20q12 -20 30.5 -32t44.5 -12
q53 0 77 30t24 93v377q0 58 -21 83.5t-65 25.5q-41 0 -63 -28v214h-80v-790h41zM210 156q0 -38 -32 -38q-27 0 -37 27v388q5 14 15 20t22 6q32 0 32 -35v-368z" />
    <glyph glyph-name="c" unicode="c" horiz-adv-x="326" 
d="M199 353q-16 0 -27 11v-56q12 12 27 12h75q16 0 27 -11.5t11 -27.5v-132q0 -72 -35.5 -115t-110.5 -43q-77 0 -113 44t-36 116v368q0 72 36 117t113 45q76 0 110 -44.5t34 -116.5v-128q0 -16 -11 -27.5t-27 -11.5h-73zM199 151q0 -40 -33 -40t-33 40v370q0 39 33 39
t33 -38v-130h73v128q0 55 -25 88.5t-81 33.5q-57 0 -83.5 -34t-26.5 -89v-368q0 -55 26.5 -88t83.5 -33q56 0 82 32.5t26 86.5v132h-75v-130z" />
    <glyph glyph-name="d" unicode="d" horiz-adv-x="346" 
d="M217 0q-10 0 -18 5q-25 -11 -60 -11q-60 0 -91 37t-31 114v388q0 78 31 113t94 35q6 0 12.5 -0.5t11.5 -1.5v149q0 17 11 28t27 11h80q16 0 27.5 -11t11.5 -28v-790q0 -16 -11.5 -27t-27.5 -11h-67zM284 38v790h-80v-214q-22 28 -62 28q-44 0 -65 -25.5t-21 -83.5v-388
q0 -112 83 -112q31 0 48.5 10.5t26.5 33.5q0 -21 3 -39h67zM204 145q-5 -14 -15 -20.5t-21 -6.5q-33 0 -33 38v369q0 36 33 36q11 0 21 -6t15 -20v-390z" />
    <glyph glyph-name="e" unicode="e" 
d="M306 324q0 -6 -2 -11.5t-4 -10.5q2 -5 4 -10.5t2 -11.5v-130q0 -159 -146 -159q-143 0 -143 159v370q0 161 143 161q146 0 146 -161v-196zM193 151q0 -40 -33 -40q-30 0 -30 39v174h138v196q0 122 -108 122q-104 0 -104 -122v-370q0 -120 104 -120q108 0 108 120v130h-75
v-129zM193 382h-63v138q0 39 30 39q33 0 33 -39v-138z" />
    <glyph glyph-name="f" unicode="f" horiz-adv-x="237" 
d="M64 0q-16 0 -27 11t-11 27v487q-12 3 -20.5 13.5t-8.5 24.5v70q0 13 8.5 23t20.5 14v45q0 34 7 63t22.5 50t40.5 32.5t61 11.5q13 0 27.5 -1.5t27 -6t20.5 -13.5t8 -23v-69q0 -18 -10.5 -28.5t-26.5 -10.5q-9 0 -16 3h-5v-52h18q16 0 27 -11t11 -27v-70q0 -17 -11 -28
t-27 -11h-18v-486q0 -16 -11 -27t-27 -11h-80zM144 38v525h56v70h-56v80q0 31 12 39.5t34 8.5q9 0 12 -2v69q-22 5 -45 5q-52 0 -72.5 -33t-20.5 -85v-82h-28v-70h28v-525h80z" />
    <glyph glyph-name="g" unicode="g" horiz-adv-x="346" 
d="M25 32q0 23 20 33q-28 37 -28 110v351q0 77 31 114t91 37q33 0 59 -12q9 6 19 6h67q16 0 27.5 -11t11.5 -27v-625q0 -74 -36 -112.5t-113 -38.5q-42 0 -71 10t-46 29t-24.5 47.5t-7.5 64.5v24zM207 169q-12 -26 -39 -26q-34 0 -34 36v338q0 35 34 35q28 0 39 -26v-357z
M207 4q0 -39 -35 -39q-37 0 -37 39v28h-72v-24q0 -54 24 -83.5t87 -29.5q57 0 83.5 29t26.5 84v625h-67q-3 -18 -3 -39q-11 23 -28.5 33.5t-46.5 10.5q-83 0 -83 -112v-351q0 -58 20.5 -83.5t64.5 -25.5q43 0 66 28v-90z" />
    <glyph glyph-name="h" unicode="h" horiz-adv-x="345" 
d="M206 0q-10 0 -18.5 5t-13.5 13q-5 -8 -13.5 -13t-19.5 -5h-80q-16 0 -27 11t-11 27v790q0 17 11 28t27 11h80q16 0 27.5 -11t11.5 -28v-151q7 2 15.5 3t16.5 1q113 0 113 -148v-495q0 -16 -11 -27t-27 -11h-81zM287 38v495q0 109 -75 109q-44 0 -71 -33v219h-80v-790h80
v502q6 13 16 18.5t21 5.5q28 0 28 -36v-490h81z" />
    <glyph glyph-name="i" unicode="i" horiz-adv-x="205" 
d="M63 0q-16 0 -27 11t-11 27v595q0 14 9 24.5t23 12.5q-14 2 -23 13t-9 25v120q0 17 11 28t27 11h80q16 0 27 -11t11 -28v-120q0 -14 -9 -25t-23 -13q14 -2 23 -12.5t9 -24.5v-595q0 -16 -11 -27t-27 -11h-80zM143 38v595h-80v-595h80zM143 708v120h-80v-120h80z" />
    <glyph glyph-name="j" unicode="j" horiz-adv-x="219" 
d="M-35 -16q0 17 11 27.5t27 10.5q8 0 11.5 -2t13.5 -2q9 0 9 8v607q0 14 9 24.5t23 12.5q-14 2 -23 13t-9 25v120q0 17 11.5 28t27.5 11h80q16 0 27 -11t11 -28v-120q0 -14 -9.5 -25t-23.5 -13q14 -2 23.5 -12.5t9.5 -24.5v-607q0 -87 -39 -125.5t-116 -38.5q-32 0 -53 8
t-21 34v80zM156 708v120h-80v-120h80zM4 -96q13 -4 35 -4q58 0 87.5 30t29.5 96v607h-80v-607q0 -46 -37 -46q-9 0 -18 1t-17 3v-80z" />
    <glyph glyph-name="k" unicode="k" horiz-adv-x="342" 
d="M222 0q-12 0 -23.5 8.5t-14.5 20.5l-6 24v-15q0 -16 -11.5 -27t-27.5 -11h-79q-16 0 -27 11t-11 27v790q0 17 11 28t27 11h79q16 0 27.5 -11t11.5 -28v-209l9 27q4 11 15 18t22 7h82q17 0 28.5 -10.5t11.5 -25.5q0 -8 -3 -15l-91 -249l94 -322q2 -8 2 -13
q0 -15 -11 -25.5t-28 -10.5h-87zM309 38l-97 335l94 260h-82q-27 -75 -49 -139.5t-37 -113.5q0 33 0.5 63t0.5 74v311h-79v-790h79v142v47t-0.5 39.5t-0.5 36v37.5q5 -18 10 -36.5t14 -50t23 -82.5t37 -133h87z" />
    <glyph glyph-name="l" unicode="l" horiz-adv-x="203" 
d="M61 0q-16 0 -27 11t-11 27v790q0 17 11 28t27 11h80q16 0 27.5 -11t11.5 -28v-790q0 -16 -11.5 -27t-27.5 -11h-80zM141 38v790h-80v-790h80z" />
    <glyph glyph-name="m" unicode="m" horiz-adv-x="478" 
d="M340 0q-18 0 -30 14q-6 -6 -13.5 -10t-16.5 -4h-79q-18 0 -30 14q-6 -6 -13.5 -10t-16.5 -4h-80q-16 0 -27 11t-11 27v595q0 16 11 27t27 11h68q8 0 20 -7q26 17 58 17q42 0 69 -21q32 21 72 21q56 0 83 -38t27 -112v-493q0 -16 -11 -27t-27 -11h-80zM420 38v493
q0 111 -72 111q-26 0 -46 -12t-32 -32q-15 44 -63 44q-47 0 -75 -47q0 20 -3 38h-68v-595h80v502q6 13 15 18.5t18 5.5q27 0 27 -34v-492h79v502q13 24 34 24q26 0 26 -34v-492h80z" />
    <glyph glyph-name="n" unicode="n" horiz-adv-x="345" 
d="M206 0q-10 0 -18.5 5t-13.5 13q-5 -8 -13.5 -13t-19.5 -5h-80q-16 0 -27 11t-11 27v595q0 16 11 27t27 11h68q8 0 20 -7q28 17 62 17q114 0 114 -148v-495q0 -16 -11 -27t-27 -11h-81zM287 38v495q0 109 -76 109q-51 0 -79 -48q0 21 -3 39h-68v-595h80v502q6 13 16 18.5
t21 5.5q28 0 28 -36v-490h81z" />
    <glyph glyph-name="o" unicode="o" horiz-adv-x="333" 
d="M17 523q0 77 36 117.5t114 40.5q74 0 112 -40.5t38 -117.5v-375q0 -77 -38 -117t-112 -40q-78 0 -114 40t-36 117v375zM200 151q0 -20 -6.5 -30t-26.5 -10t-27 9.5t-7 29.5v370q0 20 7 30t27 10t26.5 -10t6.5 -30v-369zM56 148q0 -58 26.5 -88t84.5 -30q111 0 111 118
v375q0 58 -28 88.5t-83 30.5q-58 0 -84.5 -30.5t-26.5 -88.5v-375z" />
    <glyph glyph-name="p" unicode="p" horiz-adv-x="346" 
d="M61 -133q-16 0 -27 11t-11 27v728q0 16 11 27t27 11h68q8 0 18 -5q24 11 59 11q60 0 91 -37t31 -114v-388q0 -78 -30.5 -112.5t-93.5 -34.5q-6 0 -12.5 0.5t-11.5 1.5v-88q0 -16 -11.5 -27t-27.5 -11h-80zM141 -95v152q21 -27 63 -27q44 0 65 25t21 83v388
q0 57 -21.5 84.5t-62.5 27.5q-31 0 -48 -10.5t-26 -33.5q0 19 -3 39h-68v-728h80zM210 146q0 -36 -32 -36q-12 0 -22 6t-15 20v391q5 14 15 20t22 6q17 0 24.5 -8.5t7.5 -28.5v-370z" />
    <glyph glyph-name="q" unicode="q" horiz-adv-x="346" 
d="M204 -133q-16 0 -27 11t-11 27v88q-5 -1 -11.5 -1.5t-12.5 -0.5q-63 0 -94 34.5t-31 112.5v388q0 77 31 114t91 37q17 0 31.5 -3.5t26.5 -8.5q9 6 20 6h67q16 0 27.5 -11t11.5 -27v-728q0 -16 -11.5 -27t-27.5 -11h-80zM284 -95v728h-67q-3 -20 -3 -39q-9 20 -26.5 32
t-48.5 12q-83 0 -83 -112v-388q0 -58 21 -83t65 -25q42 0 62 27v-152h80zM204 136q-5 -14 -15 -20t-21 -6q-33 0 -33 36v371q0 38 33 38q11 0 21 -6t15 -20v-393z" />
    <glyph glyph-name="r" unicode="r" horiz-adv-x="252" 
d="M61 0q-16 0 -27 11t-11 27v595q0 16 11 27t27 11h68q7 0 17 -5q21 12 51 12q8 0 18 -2t18.5 -7t14 -13t5.5 -20v-90q0 -18 -10.5 -28.5t-25.5 -10.5q-9 0 -14.5 4t-18.5 4h-4v-477q0 -16 -11.5 -27t-27.5 -11h-80zM141 38v489q7 15 19 20.5t24 5.5q20 0 31 -7v90
q-11 3 -18 3q-44 0 -65 -43q0 19 -3 37h-68v-595h80z" />
    <glyph glyph-name="s" unicode="s" horiz-adv-x="322" 
d="M307 139q0 -78 -37.5 -113t-113.5 -35q-72 0 -108 37t-36 115v94q0 16 11.5 27.5t27.5 11.5h59l-17 19h1q-25 26 -41 46t-25 38.5t-12.5 39.5t-3.5 49v57q0 85 37.5 120.5t108.5 35.5q43 0 71 -9t44.5 -28.5t23.5 -49t7 -69.5v-94q0 -16 -11 -27t-27 -11h-53l6 -6
q14 -15 28.5 -30.5t19.5 -21.5q12 -16 20 -31t12.5 -31t6 -34.5t1.5 -40.5v-59zM269 198q0 37 -6.5 62t-26.5 51t-44 49t-47 52q-11 14 -13 24t-2 24v65q0 37 30 37q15 0 24 -9.5t9 -27.5v-94h73v94q0 61 -22.5 89t-85.5 28q-52 0 -79.5 -26t-27.5 -91v-57q0 -29 5.5 -52.5
t20.5 -43.5q23 -29 47 -54t47 -54q11 -15 14.5 -25t3.5 -30v-64q0 -37 -32 -37q-15 0 -24 9.5t-9 27.5v92h-73v-94q0 -59 26 -86t79 -27q57 0 85 25t28 84v59z" />
    <glyph glyph-name="t" unicode="t" horiz-adv-x="237" 
d="M239 34q0 -14 -7 -22t-17 -13t-22 -6.5t-22 -1.5q-75 0 -110.5 43t-35.5 119v372q-12 3 -20.5 13.5t-8.5 24.5v70q0 13 8.5 23t20.5 14v151q0 16 11 27t27 11h81q16 0 27 -11t11 -27v-150h17q16 0 27 -11t11 -27v-70q0 -17 -11 -28t-27 -11h-17v-370q0 -17 6 -17h3
q4 1 11 1q16 0 26.5 -10.5t10.5 -27.5v-66zM201 100q-3 -1 -6.5 -1h-6.5q-44 0 -44 55v409h55v70h-55v188h-81v-188h-28v-70h28v-410q0 -58 26.5 -90.5t81.5 -32.5q8 0 16 1t14 3v66z" />
    <glyph glyph-name="u" unicode="u" horiz-adv-x="343" 
d="M214 0q-11 0 -22 8q-26 -14 -59 -14q-55 0 -84 36t-29 104v499q0 16 11 27t28 11h79q20 0 32 -17q12 17 32 17h80q16 0 27.5 -11t11.5 -27v-595q0 -16 -11.5 -27t-27.5 -11h-68zM282 38v595h-80v-499q-6 -12 -15.5 -17.5t-20.5 -5.5q-28 0 -28 36v486h-79v-499
q0 -49 18.5 -75t55.5 -26q51 0 78 43q0 -20 3 -38h68z" />
    <glyph glyph-name="v" unicode="v" horiz-adv-x="321" 
d="M118 0q-14 0 -25 10t-13 24l-83 599q0 17 11 27.5t28 10.5h80q14 0 25.5 -10t13.5 -25l5 -56l8 57q2 14 12.5 24t25.5 10h77q17 0 28 -10.5t11 -26.5v-7l-86 -594q-2 -14 -13 -23.5t-25 -9.5h-80zM198 38l85 595h-77q-10 -78 -17 -136t-12.5 -104t-10 -82.5t-8.5 -71.5
q-3 35 -6.5 71.5t-8.5 82.5t-11.5 104t-15.5 136h-80l82 -595h80z" />
    <glyph glyph-name="w" unicode="w" horiz-adv-x="459" 
d="M264 0q-15 0 -27 10.5t-12 34.5q0 -18 -10.5 -31.5t-29.5 -13.5h-93q-14 0 -25 10.5t-13 25.5l-54 594q0 17 10 29t28 12h74q16 0 27.5 -11t12.5 -35q2 23 13.5 34.5t25.5 11.5h74q14 0 25.5 -13t14.5 -45q3 32 14.5 45t26.5 13h74q18 0 28 -12.5t10 -29.5l-62 -594
q-1 -15 -12.5 -25t-25.5 -10h-94zM358 38l62 595h-74l-40 -438l-41 438h-74l-47 -438l-32 438h-74l54 -595h93l42 412l37 -412h94z" />
    <glyph glyph-name="x" unicode="x" horiz-adv-x="328" 
d="M213 0q-7 0 -13 3.5t-12 13.5t-12.5 28t-12.5 48q-3 -13 -5 -29t-7 -30.5t-14 -24t-25 -9.5h-79q-17 0 -28.5 10.5t-11.5 26.5q0 3 2 11l77 309l-65 267q-1 3 -1 10q0 16 10.5 26.5t27.5 10.5h84q13 0 24 -9t13 -22q4 13 14.5 22t24.5 9h79q17 0 28 -10.5t11 -26.5
q0 -7 -1 -10l-66 -266l78 -310q1 -4 1 -11q0 -16 -10.5 -26.5t-27.5 -10.5h-83zM296 38l-80 319l67 276h-79q-7 -30 -13.5 -60.5t-11.5 -58.5t-8.5 -52t-5.5 -41q-2 17 -6 41t-9 52t-10.5 58.5t-11.5 60.5h-84l67 -277l-78 -318h79q9 39 17 79.5t14.5 76t11.5 64t7 43.5
q2 -15 7.5 -43.5t12.5 -64t15 -75.5l16 -80h83z" />
    <glyph glyph-name="y" unicode="y" horiz-adv-x="321" 
d="M6 -15q0 17 10.5 27.5t26.5 10.5q7 0 12.5 -2t19.5 -2q6 0 7.5 2.5t1.5 7.5v6t-1 8l-87 591q0 16 11.5 26.5t28.5 10.5h83q14 0 25 -10.5t13 -24.5l6 -35l5 36q2 14 10.5 24t27.5 10h77q17 0 28 -10.5t11 -26.5l-81 -579q-6 -45 -15.5 -81t-27 -60.5t-45.5 -38t-73 -13.5
q-14 0 -27 1.5t-23.5 6t-17 13t-6.5 22.5v80zM44 -95q18 -5 36 -5q33 0 54 11t34.5 32t21 50.5t13.5 66.5l80 573h-77q-10 -79 -17 -139.5t-12 -109t-9.5 -89t-8.5 -79.5q-3 39 -6 79.5t-8 89t-11 109t-15 139.5h-83l83 -576l-2 -13q-5 -29 -12.5 -46t-27.5 -17q-21 0 -33 4
v-80z" />
    <glyph glyph-name="z" unicode="z" horiz-adv-x="300" 
d="M50 0q-16 0 -27 11t-11 27v80l114 398h-74q-16 0 -27.5 11t-11.5 27v79q0 16 11.5 27t27.5 11h200q16 0 27 -11t11 -27v-81l-110 -394h71q16 0 27 -11t11 -27v-82q0 -16 -11 -27t-27 -11h-201zM251 38v82h-121l122 439v74h-200v-79h124l-126 -440v-76h201z" />
    <glyph glyph-name="braceleft" unicode="{" horiz-adv-x="316" 
d="M265 -77q-175 0 -175 170v203q0 8 -1.5 12t-4.5 9l-73 93q-8 10 -8 23q0 14 9 25l72 91q3 4 4.5 8.5t1.5 13.5v202q0 171 175 171h8q16 0 27 -11.5t11 -27.5v-64q0 -16 -11 -27t-27 -11h-7q-36 0 -36 -33v-195q0 -39 -7.5 -61.5t-29.5 -48.5l-25 -31l26 -33
q21 -26 28.5 -49.5t7.5 -60.5v-194q0 -33 36 -33h7q16 0 27 -11t11 -27v-64q0 -17 -11 -28t-27 -11h-8zM273 -38v64h-7q-38 0 -56 16.5t-18 54.5v194q0 29 -6 47.5t-22 38.5l-45 57l45 56q16 20 22 36.5t6 48.5v195q0 38 18 54.5t56 16.5h7v64h-8q-136 0 -136 -132v-202
q0 -18 -3.5 -27t-11.5 -19l-73 -91l73 -92q8 -10 11.5 -19t3.5 -27v-203q0 -131 136 -131h8z" />
    <glyph glyph-name="bar" unicode="|" horiz-adv-x="248" 
d="M91 -77q-16 0 -27 11t-11 28v943q0 16 11 27.5t27 11.5h65q16 0 27 -11.5t11 -27.5v-943q0 -17 -11 -28t-27 -11h-65zM156 -38v943h-65v-943h65z" />
    <glyph glyph-name="braceright" unicode="}" horiz-adv-x="316" 
d="M41 -77q-16 0 -27 11t-11 28v64q0 16 11 27t27 11h7q36 0 36 33v194q0 37 7.5 60.5t28.5 49.5l26 33q-18 22 -30 37.5t-19 30t-10 31.5t-3 42v195q0 33 -36 33h-7q-16 0 -27 11t-11 27v64q0 16 11 27.5t27 11.5h8q175 0 175 -171v-202q0 -9 1.5 -13.5t3.5 -8.5l73 -91
q9 -11 9 -25q0 -13 -8 -23l-74 -93q-2 -4 -3.5 -8.5t-1.5 -12.5v-203q0 -170 -175 -170h-8zM49 -38q136 0 136 131v203q0 18 3.5 27t11.5 19l73 92l-73 91q-8 10 -11.5 19t-3.5 27v202q0 132 -136 132h-8v-64h7q38 0 56 -16.5t18 -54.5v-195q0 -16 1.5 -27.5t4.5 -21
t8.5 -18t13.5 -18.5l45 -56l-45 -57q-16 -20 -22.5 -38.5t-5.5 -47.5v-194q0 -38 -18 -54.5t-56 -16.5h-7v-64h8z" />
    <glyph glyph-name="asciitilde" unicode="~" horiz-adv-x="502" 
d="M481 422q0 -5 -5 -15.5t-9 -13.5q-28 -23 -59 -34t-74 -11q-26 0 -49 7t-44 15.5t-41 15.5t-40 7q-18 0 -35 -7.5t-35 -28.5q-12 -14 -30 -14q-14 0 -25.5 10.5t-11.5 28.5v79q0 13 11 26t29.5 24t42.5 18t51 7q28 0 53.5 -7t48 -15t42 -15t36.5 -7q23 0 41 7.5t37 27.5
q12 13 29 13q14 0 25.5 -10.5t11.5 -28.5v-79zM443 501q-26 -26 -50 -37t-56 -11q-21 0 -41.5 7t-42 15t-45.5 15t-51 7q-34 0 -57.5 -11t-38.5 -25v-79q26 29 49.5 39t49.5 10q21 0 42.5 -7t43 -15t43.5 -15t45 -7q35 0 60.5 8.5t48.5 26.5v79z" />
    <glyph glyph-name="nonbreakingspace" unicode="&#xa0;" horiz-adv-x="131" 
 />
    <glyph glyph-name="exclamdown" unicode="&#xa1;" horiz-adv-x="220" 
d="M156 867q16 0 27 -11t11 -28v-104q0 -11 -6 -20t-14 -14l2 -6t1 -6l17 -286v-354q0 -16 -11 -27t-27 -11h-92q-16 0 -27 11t-11 27v352l18 288q0 3 0.5 5.5t1.5 5.5q-8 5 -14 14t-6 21v104q0 17 11 28t27 11h92zM83 676l-19 -287v-351h92v353l-18 285h-55zM64 828v-104
h92v104h-92z" />
    <glyph glyph-name="cent" unicode="&#xa2;" 
d="M152 0q-16 0 -27.5 11t-11.5 27v53q-49 14 -72.5 55t-23.5 99v366q0 58 23 98t73 54v65q0 17 11.5 28t27.5 11h29q17 0 28 -11t11 -28v-65q48 -15 69 -55t21 -96v-131q0 -16 -11 -27t-27 -11h-55v-33h57q16 0 27 -11t11 -27v-129q0 -57 -22 -96t-70 -54v-55
q0 -16 -11 -27t-28 -11h-29zM156 207q-30 1 -30 38v367q0 32 30 37v-442zM181 38v87q49 5 71 36.5t22 81.5v129h-67v-127q0 -34 -28 -39v443q28 -5 28 -37v-131h65v131q0 50 -21 82.5t-70 37.5v96h-29v-96q-50 -5 -73 -37t-23 -84v-366q0 -51 23 -84t73 -37v-86h29z" />
    <glyph glyph-name="sterling" unicode="&#xa3;" horiz-adv-x="329" 
d="M323 47q-41 -55 -102 -55q-26 0 -46 8t-37 16h1q-9 5 -17.5 8.5t-13.5 3.5q-7 0 -13 -6t-13 -12.5t-15 -12.5t-18 -6h-4q-16 0 -27 11.5t-11 27.5v94q11 16 23 28.5t27 18.5q1 17 2 32t1.5 32.5t0.5 39v52.5v116h-13q-16 0 -27 11t-11 27v67q0 16 11 27.5t27 11.5h13v98
q0 92 40.5 141.5t117.5 49.5q15 0 30.5 -2t28 -7t20.5 -14t8 -23v-81q0 -18 -10.5 -29t-25.5 -11q-8 0 -17.5 4t-16.5 4q-21 0 -21 -31v-99h53q16 0 27 -11.5t11 -27.5v-67q0 -16 -11 -27t-27 -11h-53v-117q0 -61 -2 -102t-6 -76q7 -3 17 -3q9 0 15 4.5t12 10t12.5 10
t16.5 4.5h4q16 0 27.5 -11.5t11.5 -27.5v-88zM284 135h-4q-11 -17 -24.5 -22.5t-31.5 -5.5t-32.5 6.5t-26.5 11.5q3 21 5 41.5t3.5 44.5t2.5 52t1 63v155h91v67h-91v138q0 33 14 51.5t45 18.5q15 0 32 -7v81q-9 4 -22 5.5t-27 1.5q-58 0 -88.5 -39.5t-30.5 -112.5v-137h-52
v-67h52v-154q0 -36 -0.5 -61t-1 -45t-2 -38.5t-3.5 -42.5q-17 -2 -28.5 -10t-19.5 -19v-81h4q15 23 28.5 29.5t30.5 6.5q12 0 25 -5.5t27 -12t29 -12t32 -5.5q43 0 63 29v75z" />
    <glyph glyph-name="currency" unicode="&#xa4;" horiz-adv-x="525" 
d="M368 207q-23 -11 -50 -18.5t-56 -7.5q-55 0 -105 25l-41 -42q-11 -11 -28 -11q-16 0 -27 11l-47 48q-12 14 -12 28q0 13 12 27l41 40q-25 46 -25 107q0 29 5.5 55t20.5 52q-8 7 -17 14.5t-16.5 16t-13 17t-5.5 18.5q0 13 10 25l47 49q12 13 29 13q15 0 27 -12l39 -41
q47 26 106 26q30 0 55.5 -6.5t51.5 -20.5l36 41q12 13 28 13t29 -13l48 -49q10 -12 10 -25q0 -16 -11 -27l-41 -39q14 -24 20.5 -51t6.5 -56q0 -31 -6.5 -56.5t-20.5 -50.5l42 -40q11 -13 11 -28q0 -14 -11 -27l-48 -48q-11 -11 -27 -11q-17 0 -28 12zM346 414q0 34 -25 58
t-59 24t-58 -24t-24 -58q0 -35 24 -59t58 -24q17 0 32 6.5t26.5 17.5t18.5 26t7 33zM384 414q0 -26 -10 -48t-26.5 -38.5t-38.5 -25.5t-47 -9t-47 9t-38.5 25.5t-26 38.5t-9.5 48q0 25 9.5 47t26 38.5t38.5 26t47 9.5t47 -9.5t38.5 -26t26.5 -38.5t10 -47zM435 191l48 48
l-63 62q17 23 27 52t10 61q0 61 -37 112l62 61l-48 49l-59 -66q-50 39 -113 39q-65 0 -112 -38l-61 65l-47 -49l63 -61q-17 -26 -27 -53.5t-10 -58.5q0 -32 10 -61t27 -52l-64 -62l47 -48l63 65q22 -17 51 -26.5t60 -9.5q32 0 59.5 9.5t52.5 26.5z" />
    <glyph glyph-name="yen" unicode="&#xa5;" horiz-adv-x="382" 
d="M269 84v-46q0 -16 -11 -27t-28 -11h-83q-16 0 -27.5 11t-11.5 27v46h-66q-16 0 -27 11t-11 27v69q0 16 11 27t27 11h66v5h-66q-16 0 -27 11.5t-11 27.5v69q0 16 11 27t27 11h66l-108 439q-2 8 -2 10q0 17 11 27.5t28 10.5h95q12 0 23.5 -9t13.5 -22l24 -125l26 125
q2 12 13 21.5t24 9.5h88q17 0 27.5 -10.5t10.5 -27.5v-4.5t-1 -5.5l-111 -439h65q16 0 27 -11t11 -27v-69q0 -16 -11 -27.5t-27 -11.5h-66v-5h66q16 0 27 -11t11 -27v-69q0 -16 -11 -27t-27 -11h-66zM335 122v69h-105v82h105v69h-105v39l114 447h-88l-63 -312l-61 312h-95
l110 -447v-39h-105v-69h105v-82h-105v-69h105v-84h83v84h105z" />
    <glyph glyph-name="brokenbar" unicode="&#xa6;" horiz-adv-x="248" 
d="M91 480q-16 0 -27 11t-11 27v387q0 16 11 27.5t27 11.5h65q16 0 27 -11.5t11 -27.5v-387q0 -16 -11 -27t-27 -11h-65zM91 -77q-16 0 -27 11t-11 28v386q0 17 11 28t27 11h65q16 0 27 -11t11 -28v-386q0 -17 -11 -28t-27 -11h-65zM156 -38v386h-65v-386h65zM156 518v387
h-65v-387h65z" />
    <glyph glyph-name="section" unicode="&#xa7;" horiz-adv-x="331" 
d="M307 18q0 -151 -148 -151q-78 0 -111 37t-33 114v97q0 16 11.5 27.5t27.5 11.5h60q-4 3 -6.5 7t-6.5 9q-6 8 -11.5 14t-11.5 12.5t-13 15t-16 22.5q-20 30 -28.5 60.5t-8.5 71.5v67q0 71 37 108q-13 22 -21.5 48.5t-8.5 60.5v74q0 152 148 152q79 0 111.5 -37t32.5 -115
v-97q0 -16 -11 -27.5t-27 -11.5h-63l15 -16q25 -30 42.5 -52.5t27.5 -44t14.5 -44.5t4.5 -55v-67q0 -35 -9.5 -62t-26.5 -45q15 -23 22 -48.5t7 -61.5v-74zM199 309q0 -17 -5 -26t-22 -11l-20 26q-14 18 -19.5 32t-4.5 37v66q0 17 4.5 25.5t21.5 10.5l21 -25
q14 -17 19 -32.5t5 -36.5v-66zM269 92q0 20 -2.5 35t-7.5 28t-14 26t-21 29q52 21 52 99v67q0 35 -6 59.5t-24 50.5q-23 31 -48 59.5t-48 58.5q-9 11 -11.5 22t-2.5 25v73q0 35 33 35q18 0 25 -10t7 -30v-92h72v97q0 58 -24 85.5t-82 27.5q-109 0 -109 -113v-74
q0 -20 2.5 -35.5t8 -29t14 -26t20.5 -27.5q-52 -22 -52 -99v-67q0 -35 6 -59.5t24 -50.5q22 -31 47.5 -58.5t48.5 -59.5q8 -11 10.5 -22t2.5 -25v-73q0 -35 -33 -35q-18 0 -24.5 10t-6.5 30v92h-72v-97q0 -58 24 -85.5t81 -27.5q110 0 110 113v74z" />
    <glyph glyph-name="dieresis" unicode="&#xa8;" horiz-adv-x="348" 
d="M61 641q-16 0 -27 11.5t-11 27.5v120q0 16 11 27t27 11h80q11 0 19.5 -5.5t13.5 -13.5q10 19 33 19h81q16 0 27 -11t11 -27v-120q0 -16 -11 -27.5t-27 -11.5h-81q-23 0 -33 19q-5 -8 -13.5 -13.5t-19.5 -5.5h-80zM141 680v120h-80v-120h80zM288 680v120h-81v-120h81z" />
    <glyph glyph-name="ordfeminine" unicode="&#xaa;" horiz-adv-x="262" 
d="M139 288q-13 -5 -30 -5q-39 0 -60 20.5t-21 69.5v48q0 26 5 43.5t13 30.5q-13 12 -13 30v69q0 103 96 103q99 0 99 -103v-253q1 -5 1.5 -8.5t0.5 -8.5q0 -15 -10.5 -25.5t-27.5 -10.5h-53zM139 380q-3 -8 -10 -8q-12 0 -12 11v59q0 14 5.5 21t16.5 13v-96zM192 326
q-3 7 -3 28v240q0 65 -60 65q-58 0 -58 -65v-69h45v69q0 13 12 13q11 0 11 -13v-77q-16 -8 -29.5 -15.5t-23 -18t-15 -25t-5.5 -37.5v-48q0 -28 11.5 -39.5t31.5 -11.5q13 0 20.5 5.5t13.5 15.5q0 -11 2 -17h47z" />
    <glyph glyph-name="guillemotleft" unicode="&#xab;" horiz-adv-x="428" 
d="M22 281q-6 4 -11 14.5t-5 17.5v91q0 8 5.5 18t11.5 14l153 102q12 7 23 7q15 0 25.5 -11t10.5 -28v-54l128 86q6 3 11.5 5t11.5 2q15 0 25.5 -11t10.5 -28v-75q0 -8 -5.5 -18t-11.5 -14l-62 -40l63 -44q6 -4 11 -14t5 -18v-78q0 -18 -11 -28.5t-25 -10.5q-13 0 -24 8
l-127 89v-58q0 -18 -11 -28.5t-25 -10.5q-15 0 -24 8zM193 333v50l-37 -24zM384 205v78l-110 76l110 72v75l-153 -102v-91zM197 205v78l-111 76l111 72v75l-153 -102v-91z" />
    <glyph glyph-name="logicalnot" unicode="&#xac;" horiz-adv-x="464" 
d="M320 0q-16 0 -27.5 11t-11.5 27v321h-236q-16 0 -27 11t-11 27v85q0 16 11 27t27 11h357q16 0 27.5 -11t11.5 -27v-444q0 -16 -11.5 -27t-27.5 -11h-82zM402 38v444h-357v-85h275v-359h82z" />
    <glyph glyph-name="macron" unicode="&#xaf;" horiz-adv-x="347" 
d="M61 666q-16 0 -27 11.5t-11 27.5v69q0 16 11 27t27 11h225q16 0 27 -11t11 -27v-69q0 -16 -11 -27.5t-27 -11.5h-225zM286 705v69h-225v-69h225z" />
    <glyph glyph-name="degree" unicode="&#xb0;" horiz-adv-x="348" 
d="M174 538q-80 0 -118.5 45.5t-38.5 118.5q0 36 9.5 66.5t29 53t49 35t69.5 12.5q38 0 67.5 -12.5t49 -35t29.5 -53t10 -66.5q0 -73 -39.5 -118.5t-116.5 -45.5zM173 663q29 0 29 39q0 40 -29 40q-31 0 -31 -40q0 -39 31 -39zM173 625q-69 0 -69 77q0 78 69 78
q35 0 51 -18.5t16 -59.5q0 -40 -16 -58.5t-51 -18.5zM174 576q59 0 88.5 35t29.5 91q0 55 -29.5 91.5t-88.5 36.5q-60 0 -89 -36.5t-29 -91.5q0 -56 29 -91t89 -35z" />
    <glyph glyph-name="plusminus" unicode="&#xb1;" horiz-adv-x="501" 
d="M60 110q-16 0 -27 11.5t-11 27.5v66q0 16 11 27t27 11h120v117h-119q-16 0 -27 11t-11 27v66q0 16 11 27.5t27 11.5h119v118q0 16 11 27t27 11h66q16 0 27.5 -11t11.5 -27v-118h119q16 0 27 -11.5t11 -27.5v-66q0 -16 -11 -27t-27 -11h-119v-117h118q16 0 27 -11t11 -27
v-66q0 -16 -11 -27.5t-27 -11.5h-381zM441 149v66h-381v-66h381zM284 251v157h158v66h-158v157h-66v-157h-157v-66h157v-157h66z" />
    <glyph glyph-name="twosuperior" unicode="&#xb2;" horiz-adv-x="232" 
d="M53 405q-16 0 -27.5 11t-11.5 28v72q0 21 2 37.5t7.5 31.5t14 31t22.5 38l8 13h-15q-16 0 -27.5 11t-11.5 28v69q0 58 25 82t77 24q103 0 103 -106v-48q0 -65 -46 -133h1q-15 -23 -21.5 -36t-8.5 -24h36q17 0 28 -11.5t11 -27.5v-51q0 -17 -11 -28t-28 -11h-127zM180 444
v51h-75v21q0 12 1 21.5t4.5 20.5t11 24.5t19.5 32.5q39 60 39 112v48q0 68 -64 68q-32 0 -47.5 -15.5t-15.5 -52.5v-69h52v70q0 14 11 14q12 0 12 -14v-43q0 -28 -8.5 -49.5t-28.5 -50.5q-12 -18 -19.5 -32t-11.5 -27t-5.5 -26.5t-1.5 -31.5v-72h127z" />
    <glyph glyph-name="threesuperior" unicode="&#xb3;" horiz-adv-x="232" 
d="M13 584q0 16 11.5 27t27.5 11h6v44h-4q-16 0 -27.5 11.5t-11.5 27.5v70q0 58 24 82t77 24t77 -25t24 -82v-90q0 -19 -8 -37q5 -9 7 -19.5t2 -24.5v-97q0 -49 -25 -77.5t-77 -28.5q-51 0 -77 28.5t-26 77.5v78zM129 506q0 -14 -13 -14q-11 0 -11 14v78h-53v-78
q0 -31 16 -49t48 -18t48 18t16 49v97q0 32 -24 41q23 14 23 40v90q0 37 -15.5 53t-47.5 16t-47 -15.5t-15 -52.5v-70h51v71q0 14 11 14q13 0 13 -14v-92q0 -15 -10 -15h-23v-49h20q13 0 13 -15v-99z" />
    <glyph glyph-name="acute" unicode="&#xb4;" horiz-adv-x="331" 
d="M61 630q-17 0 -27.5 10.5t-10.5 24.5q0 13 7 24l105 155q4 6 14 11.5t18 5.5h103q17 0 28 -11t11 -26t-10 -26l-132 -155q-4 -5 -13.5 -9t-15.5 -4h-77zM138 668l132 155h-103l-106 -155h77z" />
    <glyph glyph-name="paragraph" unicode="&#xb6;" horiz-adv-x="468" 
d="M294 -129q-16 0 -27.5 11.5t-11.5 27.5v58q-9 -47 -41 -77.5t-88 -30.5q-12 0 -26 1.5t-26.5 6.5t-20.5 14t-8 23v61q0 17 10.5 28t27.5 11q5 0 12 -1.5t8 -1.5q4 0 4 10v565q-56 8 -80 46.5t-24 94.5q0 31 7.5 58t23.5 47.5t42 32t64 11.5h285q16 0 27.5 -11t11.5 -28
v-85q0 -16 -11.5 -27t-27.5 -11h-19v-795q0 -16 -11 -27.5t-27 -11.5h-74zM145 657h-14q-15 0 -22 12.5t-7 29.5q0 20 7 32t25 12h11v-86zM368 -90v833h57v85h-285q-54 0 -76.5 -31.5t-22.5 -78.5q0 -46 22 -75.5t74 -29.5h8v-601q0 -27 -9.5 -37.5t-32.5 -10.5h-8.5
t-10.5 2v-61q20 -7 42 -7q48 0 71.5 32.5t23.5 80.5v732h73v-833h74z" />
    <glyph glyph-name="periodcentered" unicode="&#xb7;" horiz-adv-x="193" 
d="M56 336q-16 0 -27.5 11t-11.5 27v120q0 17 11.5 28t27.5 11h82q16 0 27.5 -11t11.5 -28v-120q0 -16 -11.5 -27t-27.5 -11h-82zM138 374v120h-82v-120h82z" />
    <glyph glyph-name="cedilla" unicode="&#xb8;" horiz-adv-x="189" 
d="M69 -143q-16 0 -27 11t-11 27v32q-8 11 -8 23v69q0 16 11 27.5t27 11.5h67q16 0 27 -11.5t11 -27.5v-84q0 -35 -19 -56.5t-62 -21.5h-16zM85 -105q23 0 33 11t10 29v84h-67v-69h32v-16q0 -12 -10 -12h-14v-27h16z" />
    <glyph glyph-name="onesuperior" unicode="&#xb9;" horiz-adv-x="180" 
d="M70 405q-16 0 -27 11t-11 28v279q-10 5 -16 14.5t-6 20.5v51q0 14 8 23.5t19 13.5q3 13 13.5 21.5t24.5 8.5h47q16 0 27 -11t11 -27v-394q0 -17 -11 -28t-27 -11h-52zM122 444v394h-47v-10q0 -19 -17 -19h-10v-51h22v-314h52z" />
    <glyph glyph-name="ordmasculine" unicode="&#xba;" horiz-adv-x="266" 
d="M32 593q0 104 100 104q101 0 101 -104v-206q0 -104 -101 -104q-100 0 -100 104v206zM144 389q0 -15 -12 -15q-11 0 -11 15v202q0 14 11 14q12 0 12 -14v-202zM70 387q0 -65 62 -65q63 0 63 65v206q0 66 -63 66q-62 0 -62 -66v-206z" />
    <glyph glyph-name="guillemotright" unicode="&#xbb;" horiz-adv-x="428" 
d="M253 174q-5 -5 -11.5 -6.5t-12.5 -1.5q-14 0 -25 10.5t-11 28.5v58l-127 -89q-5 -5 -11.5 -6.5t-12.5 -1.5q-14 0 -25 10.5t-11 28.5v78q0 8 5 18t11 14l64 44q-11 7 -25 14.5t-26 16.5t-20.5 19t-8.5 22v75q0 17 10.5 28t24.5 11q12 0 24 -7l128 -86v54q0 17 10.5 28
t24.5 11q12 0 24 -7l153 -102q6 -4 11.5 -14t5.5 -18v-91q0 -7 -5 -17.5t-11 -14.5zM274 359q-10 6 -19.5 11.5t-19.5 12.5v-51zM384 313v91l-153 102v-75l111 -72l-111 -76v-78zM197 313v91l-153 102v-75l111 -72l-111 -76v-78z" />
    <glyph glyph-name="onequarter" unicode="&#xbc;" horiz-adv-x="518" 
d="M54 0q-17 0 -28.5 10t-11.5 26q0 10 4 18l158 352q-4 -1 -11 -1h-52q-16 0 -27 11t-11 28v279q-22 11 -22 35v51q0 29 28 37q2 13 12.5 21.5t24.5 8.5h47q16 0 27.5 -11t11.5 -27v-370l167 376q3 8 14.5 15.5t20.5 7.5h59q17 0 28 -10.5t11 -26.5q0 -9 -4 -17l-351 -790
q-5 -9 -15 -16t-21 -7h-59zM390 -10q-16 0 -27.5 11.5t-11.5 27.5v37h-42q-16 0 -27 11.5t-11 27.5v49l82 280q3 11 14 19.5t23 8.5h48q16 0 27 -11.5t11 -27.5v-236q19 -11 19 -32v-50q0 -23 -19 -34v-42q0 -16 -11 -27.5t-27 -11.5h-48zM438 29v76h19v50h-19v268h-48
l-81 -273v-45h81v-76h48zM355 155q9 30 15.5 52t11 37.5t7 26.5t4.5 20q0 -18 -1.5 -48t-1.5 -88h-35zM113 38l352 790h-59l-352 -790h59zM165 444v394h-47v-10q0 -19 -17 -19h-10v-51h22v-314h52z" />
    <glyph glyph-name="onehalf" unicode="&#xbd;" horiz-adv-x="518" 
d="M327 -10q-16 0 -27 11.5t-11 27.5v72q0 21 2 37t7 31.5t13.5 32t22.5 37.5l9 13h-16q-16 0 -27 11.5t-11 27.5v47l-140 -315q-4 -8 -15 -15.5t-21 -7.5h-59q-17 0 -28.5 10.5t-11.5 25.5q0 10 4 18l158 352q-4 -1 -11 -1h-52q-16 0 -27 11t-11 28v279q-22 11 -22 35v51
q0 29 28 37q2 13 12.5 21.5t24.5 8.5h47q16 0 27.5 -11t11.5 -27v-370l167 376q3 8 14.5 15.5t20.5 7.5h59q17 0 28 -10.5t11 -26.5q0 -9 -4 -17l-157 -353q10 3 22 5t26 2q102 0 102 -107v-48q0 -64 -46 -132h1q-15 -23 -21.5 -36.5t-7.5 -24.5h36q16 0 27 -11t11 -27v-52
q0 -16 -11 -27.5t-27 -11.5h-128zM455 29v52h-76v20q0 12 1 21.5t5 21t11.5 25t19.5 32.5q39 58 39 111v48q0 68 -64 68q-32 0 -48 -15.5t-16 -52.5v-69h52v70q0 14 12 14q11 0 11 -14v-42q0 -29 -8 -50.5t-28 -50.5q-12 -18 -20 -32t-12 -27t-5.5 -26.5t-1.5 -31.5v-72h128
zM113 38l352 790h-59l-352 -790h59zM165 444v394h-47v-10q0 -19 -17 -19h-10v-51h22v-314h52z" />
    <glyph glyph-name="threequarters" unicode="&#xbe;" horiz-adv-x="518" 
d="M54 0q-17 1 -28.5 10.5t-11.5 25.5q0 10 4 18l157 351q-9 -2 -18.5 -3.5t-20.5 -1.5q-51 0 -76.5 28.5t-25.5 77.5v78q0 16 11 27t27 11h6v44h-4q-16 0 -27 11.5t-11 27.5v70q0 58 23.5 82t76.5 24t77 -25t24 -82v-90q0 -19 -8 -37q5 -9 7 -19.5t2 -24.5v-57l133 298
q3 8 14.5 15.5t20.5 7.5h59q17 0 28 -10.5t11 -26.5q0 -9 -4 -17l-351 -790q-5 -9 -15 -16t-21 -7h-59zM371 -10q-17 0 -28 11.5t-11 27.5v37h-42q-16 0 -27 11.5t-11 27.5v49l82 280q3 11 14 19.5t23 8.5h48q16 0 27 -11.5t11 -27.5v-236q8 -5 13.5 -13.5t5.5 -18.5v-50
q0 -11 -5.5 -20t-13.5 -14v-42q0 -16 -11 -27.5t-27 -11.5h-48zM419 29v76h19v50h-19v268h-48l-81 -273v-45h81v-76h48zM336 155q9 30 15.5 52t11 37.5t6.5 26.5t4 20q0 -18 -1 -48t-1 -88h-35zM113 38l352 790h-59l-352 -790h59zM149 506q0 -14 -13 -14q-11 0 -11 14v78
h-53v-78q0 -31 16 -49t48 -18q33 0 48.5 18t15.5 49v97q0 32 -24 41q23 14 23 40v90q0 37 -15 53t-48 16q-32 0 -47 -15.5t-15 -52.5v-70h51v71q0 14 11 14q13 0 13 -14v-92q0 -15 -10 -15h-23v-49h20q13 0 13 -15v-99z" />
    <glyph glyph-name="questiondown" unicode="&#xbf;" horiz-adv-x="342" 
d="M224 867q16 0 27 -11t11 -28v-120q0 -19 -14 -29q6 -6 10 -14t4 -16v-107q0 -33 -3 -58t-9.5 -45.5t-17.5 -39t-27 -37.5q-8 -8 -13 -14.5t-8 -12.5q11 8 24 8h85q16 0 27 -11.5t11 -27.5v-138q0 -90 -38 -132.5t-122 -42.5t-123 42t-39 134v86q0 64 14 107t43 78
q13 15 20.5 25.5t11 21t4.5 23t1 32.5v109q0 17 13 30q-13 10 -13 29v120q0 17 11 28t27 11h83zM141 828v-120h83v120h-83zM141 649v-109q0 -25 -1 -40.5t-5.5 -28.5t-14 -26t-25.5 -32q-26 -30 -37 -66t-11 -94v-86q0 -72 30 -104.5t94 -32.5q63 0 92.5 33t29.5 103v138
h-85v-140q0 -45 -37 -45t-37 46v88q0 28 1.5 47t6 33t13 26t22.5 28q13 16 22 31.5t14.5 33.5t8 39.5t2.5 50.5v107h-83z" />
    <glyph glyph-name="Agrave" unicode="&#xc0;" horiz-adv-x="377" 
d="M250 0q-14 0 -25.5 10t-13.5 24l-10 88h-29l-11 -87q-2 -15 -13 -25t-25 -10h-87q-17 0 -27.5 10.5t-10.5 26.5l103 796q2 18 19 28l-112 133q-11 11 -11 26t10.5 26t28.5 11h102q7 0 17.5 -5.5t14.5 -10.5l106 -155q8 -11 8 -24q0 -11 -6 -20l2 -9l97 -796
q0 -16 -10.5 -26.5t-27.5 -10.5h-89zM245 864l-107 155h-102l132 -155h77zM147 242q11 88 21.5 177.5t18.5 181.5q9 -92 18.5 -180.5t20.5 -178.5h-79zM339 38l-97 790h-103l-103 -790h87q4 32 7 61.5t8 60.5h97l15 -122h89z" />
    <glyph glyph-name="Aacute" unicode="&#xc1;" horiz-adv-x="377" 
d="M250 0q-14 0 -25.5 10t-13.5 24l-10 88h-29l-11 -87q-2 -15 -13 -25t-25 -10h-87q-19 0 -28.5 12.5t-9.5 30.5l103 790q0 3 1 5q-9 10 -9 23q0 12 8 24l105 155q4 5 14 11t18 6h103q18 0 28.5 -11t10.5 -26q0 -13 -10 -26l-112 -131q19 -9 22 -30l97 -790q0 -18 -9 -30.5
t-29 -12.5h-89zM209 864l132 155h-103l-106 -155h77zM147 242q11 88 21.5 177.5t18.5 181.5q9 -92 18.5 -180.5t20.5 -178.5h-79zM339 38l-97 790h-103l-103 -790h87q4 32 7 61.5t8 60.5h97l15 -122h89z" />
    <glyph glyph-name="Acircumflex" unicode="&#xc2;" horiz-adv-x="377" 
d="M250 0q-14 0 -25.5 10t-13.5 24l-10 88h-29l-11 -87q-2 -15 -13 -25t-25 -10h-87q-19 0 -28.5 12.5t-9.5 30.5l102 783h-54q-18 0 -28.5 10.5t-10.5 25.5q0 11 6 23l98 155q4 6 14.5 11.5t18.5 5.5h94q8 0 18 -6t15 -12l93 -155q6 -12 6 -22q0 -15 -11 -25.5t-28 -10.5
h-50l96 -783q0 -18 -9 -30.5t-29 -12.5h-89zM166 867h40l-19 33zM331 864l-93 155h-94l-98 -155h74l68 111l65 -111h78zM147 242q11 88 21.5 177.5t18.5 181.5q9 -92 18.5 -180.5t20.5 -178.5h-79zM339 38l-97 790h-103l-103 -790h87q4 32 7 61.5t8 60.5h97l15 -122h89z" />
    <glyph glyph-name="Atilde" unicode="&#xc3;" horiz-adv-x="377" 
d="M344 913q0 -11 -7 -21t-17.5 -18t-23.5 -14t-25 -8q7 -7 9 -19l97 -796q0 -16 -10.5 -26.5t-27.5 -10.5h-89q-14 0 -25.5 10t-13.5 24l-10 88h-29l-11 -87q-2 -15 -13 -25t-25 -10h-87q-17 0 -27.5 10.5t-10.5 26.5l103 796q2 14 13 24t25 10h37l-7 3q-11 5 -22 8t-21 3
q-7 0 -13 -4.5t-13 -10t-14 -10t-15 -4.5q-15 0 -26.5 11t-11.5 29v81q17 22 41 36t57 14q18 0 33.5 -4.5t30 -10t28 -10t28.5 -4.5q9 0 15 4t12 9t12.5 9t15.5 4q14 0 26 -10t12 -28v-69zM305 982h-1q-8 -12 -22 -19.5t-31 -7.5t-31.5 4.5t-28.5 10.5t-28.5 10.5t-31.5 4.5
q-23 0 -37 -7t-23 -18v-68h1q22 28 54 28q15 0 29.5 -5t29 -10.5t29.5 -10.5t32 -5q20 0 34 6.5t25 17.5v69zM147 242q11 88 21.5 177.5t18.5 181.5q9 -92 18.5 -180.5t20.5 -178.5h-79zM339 38l-97 790h-103l-103 -790h87q4 32 7 61.5t8 60.5h97l15 -122h89z" />
    <glyph glyph-name="Adieresis" unicode="&#xc4;" horiz-adv-x="377" 
d="M75 837q-16 0 -27.5 11t-11.5 28v120q0 16 11.5 27t27.5 11h80q10 0 18.5 -5.5t13.5 -13.5q5 8 14 13.5t20 5.5h80q17 0 28 -11t11 -27v-120q0 -17 -11 -28t-28 -11h-22l98 -800q0 -16 -10.5 -26.5t-27.5 -10.5h-89q-14 0 -25.5 10t-13.5 24l-10 88h-29l-11 -87
q-2 -15 -13 -25t-25 -10h-87q-17 0 -27.5 10.5t-10.5 26.5l103 800h-26zM155 876v120h-80v-120h80zM301 876v120h-80v-120h80zM147 242q11 88 21.5 177.5t18.5 181.5q9 -92 18.5 -180.5t20.5 -178.5h-79zM339 38l-97 790h-103l-103 -790h87q4 32 7 61.5t8 60.5h97l15 -122
h89z" />
    <glyph glyph-name="Aring" unicode="&#xc5;" horiz-adv-x="377" 
d="M321 942q0 -62 -47 -92q4 -7 6 -17l97 -790q0 -18 -9 -30.5t-29 -12.5h-89q-14 0 -25.5 10t-13.5 24l-10 88h-29l-11 -87q-2 -15 -14 -25t-24 -10h-87q-19 0 -28.5 12.5t-9.5 30.5l103 790q0 7 5 15q-26 14 -38 38t-12 56q0 51 32.5 83t98.5 32q68 0 101 -32t33 -83z
M240 942q0 -20 -12 -30.5t-41 -10.5q-54 0 -54 41q0 42 54 42q29 0 41 -10.5t12 -31.5zM282 942q0 34 -23 55.5t-72 21.5q-47 0 -70 -21.5t-23 -55.5q0 -32 23 -53.5t70 -21.5q49 0 72 21.5t23 53.5zM147 242q11 88 21.5 177.5t18.5 181.5q9 -92 18.5 -180.5t20.5 -178.5
h-79zM339 38l-97 790h-103l-103 -790h87q4 32 7 61.5t8 60.5h97l15 -122h89z" />
    <glyph glyph-name="AE" unicode="&#xc6;" horiz-adv-x="502" 
d="M239 0q-16 0 -27 11t-11 27v85h-27q-3 -22 -6.5 -45.5t-5.5 -43.5q-2 -14 -13 -24t-25 -10h-87q-19 0 -28.5 12.5t-9.5 30.5l103 790q2 14 13 24t25 10h313q16 0 27.5 -11t11.5 -28v-89q0 -16 -11.5 -27t-27.5 -11h-85v-177h45q16 0 27 -11t11 -27v-90q0 -16 -11 -27
t-27 -11h-45v-193h89q16 0 27 -11t11 -27v-89q0 -16 -11 -27t-27 -11h-218zM239 242h-90l60 497h30v-497zM457 38v89h-128v269h84v90h-84v253h124v89h-313l-103 -790h87l15 123h100v-123h218z" />
    <glyph glyph-name="Ccedilla" unicode="&#xc7;" horiz-adv-x="351" 
d="M159 -143q-16 0 -27 11t-11 27v32q-8 11 -8 23v51q-96 31 -96 162v538q0 175 166 175q156 0 156 -173v-140q0 -17 -11 -28t-28 -11h-80q-12 0 -21.5 6.5t-14.5 16.5v-204q5 11 14.5 17.5t21.5 6.5h80q17 0 28 -11.5t11 -27.5v-163q0 -130 -83 -162v-68q0 -35 -19 -56.5
t-61 -21.5h-17zM176 -105q22 0 32 11t10 29v84h-66v-69h31v-16q0 -12 -10 -12h-14v-27h17zM220 164q0 -46 -37 -46t-37 46v539q0 45 37 45q20 0 28.5 -11t8.5 -34v-140h80v140q0 134 -117 134q-127 0 -127 -136v-538q0 -133 127 -133q62 0 89.5 33t27.5 102v163h-80v-164z
" />
    <glyph glyph-name="Egrave" unicode="&#xc8;" 
d="M61 0q-16 0 -27 11t-11 27v790q0 17 11 28t27 11h32l-107 127q-11 11 -11 26t10.5 26t28.5 11h102q7 0 17.5 -5.5t14.5 -10.5l106 -155q7 -12 8 -19h13q16 0 27 -11t11 -28v-89q0 -16 -11 -27t-27 -11h-87v-177h45q16 0 27.5 -11t11.5 -27v-90q0 -16 -11.5 -27t-27.5 -11
h-45v-193h91q16 0 27.5 -11t11.5 -27v-89q0 -16 -11.5 -27t-27.5 -11h-218zM223 864l-107 155h-102l132 -155h77zM279 38v89h-129v269h83v90h-83v253h125v89h-214v-790h218z" />
    <glyph glyph-name="Eacute" unicode="&#xc9;" 
d="M61 0q-16 0 -27 11t-11 27v790q0 17 11 28t27 11h5q1 8 8 18l106 155q3 5 13.5 11t17.5 6h103q18 0 28.5 -11t10.5 -26q0 -13 -10 -26l-109 -127h41q16 0 27 -11t11 -28v-89q0 -16 -11 -27t-27 -11h-87v-177h45q16 0 27.5 -11t11.5 -27v-90q0 -16 -11.5 -27t-27.5 -11
h-45v-193h91q16 0 27.5 -11t11.5 -27v-89q0 -16 -11.5 -27t-27.5 -11h-218zM182 864l132 155h-103l-105 -155h76zM279 38v89h-129v269h83v90h-83v253h125v89h-214v-790h218z" />
    <glyph glyph-name="Ecircumflex" unicode="&#xca;" 
d="M61 0q-16 0 -27 11t-11 27v788q-17 0 -27.5 10.5t-10.5 25.5q0 11 6 23l98 155q4 6 14.5 11.5t18.5 5.5h94q8 0 18 -6t15 -12l93 -155q6 -12 6 -22q0 -14 -9.5 -24.5t-25.5 -11.5v-87q0 -16 -11 -27t-27 -11h-87v-177h45q16 0 27.5 -11t11.5 -27v-90q0 -16 -11.5 -27
t-27.5 -11h-45v-193h91q16 0 27.5 -11t11.5 -27v-89q0 -16 -11.5 -27t-27.5 -11h-218zM144 867h40l-19 33zM309 864l-93 155h-94l-98 -155h74l68 111l65 -111h78zM279 38v89h-129v269h83v90h-83v253h125v89h-214v-790h218z" />
    <glyph glyph-name="Edieresis" unicode="&#xcb;" 
d="M61 0q-16 0 -27 11t-11 27v790q0 9 5 19q-13 11 -13 29v120q0 16 11.5 27t27.5 11h79q11 0 19.5 -5.5t13.5 -13.5q5 8 14 13.5t20 5.5h80q16 0 27.5 -11t11.5 -27v-120q0 -16 -12 -28l4 -10t2 -10v-89q0 -16 -11 -27t-27 -11h-87v-177h45q16 0 27.5 -11t11.5 -27v-90
q0 -16 -11.5 -27t-27.5 -11h-45v-193h91q16 0 27.5 -11t11.5 -27v-89q0 -16 -11.5 -27t-27.5 -11h-218zM133 876v120h-79v-120h79zM280 876v120h-80v-120h80zM279 38v89h-129v269h83v90h-83v253h125v89h-214v-790h218z" />
    <glyph glyph-name="Igrave" unicode="&#xcc;" horiz-adv-x="215" 
d="M63 0q-16 0 -27 11t-11 27v790q0 19 15 31l-113 135q-11 11 -11 26t11 26t29 11h102q6 0 16.5 -5.5t14.5 -10.5l107 -155q8 -11 8 -24q0 -17 -15 -29q0 -2 0.5 -2.5t0.5 -2.5v-790q0 -16 -11 -27t-27 -11h-89zM164 864l-106 155h-102l131 -155h77zM152 38v790h-89v-790
h89z" />
    <glyph glyph-name="Iacute" unicode="&#xcd;" horiz-adv-x="215" 
d="M63 0q-16 0 -27 11t-11 27v790q0 4 1 6q-14 11 -14 27q0 11 8 24l106 155q4 5 14 11t17 6h103q18 0 29 -11t11 -26q0 -13 -11 -26l-114 -135q6 -5 10.5 -13t4.5 -18v-790q0 -16 -11 -27t-27 -11h-89zM129 864l131 155h-103l-105 -155h77zM152 38v790h-89v-790h89z" />
    <glyph glyph-name="Icircumflex" unicode="&#xce;" horiz-adv-x="215" 
d="M63 0q-16 0 -27 11t-11 27v788h-60q-18 0 -28.5 10.5t-10.5 25.5q0 12 7 23l98 155q4 6 14.5 11.5t17.5 5.5h94q8 0 18 -6t15 -12l93 -155q6 -12 6 -22q0 -15 -10.5 -25.5t-27.5 -10.5h-61v-788q0 -16 -11 -27t-27 -11h-89zM85 867h41l-19 33zM251 864l-94 155h-94
l-98 -155h74l69 111l65 -111h78zM152 38v790h-89v-790h89z" />
    <glyph glyph-name="Idieresis" unicode="&#xcf;" horiz-adv-x="215" 
d="M-6 837q-16 0 -27 11t-11 28v120q0 16 11 27t27 11h80q10 0 19 -5.5t14 -13.5q10 19 33 19h81q16 0 27 -11t11 -27v-120q0 -17 -11 -28t-27 -11h-32q0 -2 0.5 -4.5t0.5 -4.5v-790q0 -16 -11 -27t-27 -11h-89q-16 0 -27 11t-11 27v790q0 2 0.5 4.5t0.5 4.5h-32zM74 876
v120h-80v-120h80zM221 876v120h-81v-120h81zM152 38v790h-89v-790h89z" />
    <glyph glyph-name="Eth" unicode="&#xd0;" horiz-adv-x="367" 
d="M60 0q-17 0 -28 11t-11 27v323q-10 5 -17 14t-7 21v90q0 11 7 21t17 14v307q0 17 11 28t28 11h125q84 0 124.5 -46t40.5 -128v-520q0 -173 -165 -173h-125zM224 173q0 -46 -39 -46h-36v269h43v90h-43v253h36q20 0 29.5 -12.5t9.5 -32.5v-521zM185 38q127 0 127 135v520
q0 64 -31.5 99.5t-95.5 35.5h-125v-342h-24v-90h24v-358h125z" />
    <glyph glyph-name="Ntilde" unicode="&#xd1;" horiz-adv-x="395" 
d="M352 913q0 -15 -12.5 -27.5t-23.5 -18.5h19q16 0 27 -11t11 -28v-790q0 -16 -11 -27t-27 -11h-86q-13 0 -24 9t-14 22l-38 176v-169q0 -16 -11 -27t-28 -11h-75q-17 0 -28 11t-11 27v790q0 14 8.5 24.5t21.5 13.5q-9 10 -9 26v81q17 22 41.5 36t56.5 14q18 0 34 -4.5
t30 -10t28 -10t28 -4.5q9 0 15.5 4t12.5 9t12.5 9t15.5 4q14 0 25.5 -10t11.5 -28v-69zM162 867q14 0 25 -9.5t13 -22.5l21 -120v113q0 13 7 24q-28 5 -50.5 17t-43.5 12q-11 0 -25 -14h53zM314 982h-1q-9 -12 -23 -19.5t-31 -7.5t-31 4.5t-28 10.5t-29 10.5t-32 4.5
q-23 0 -37 -7t-22 -18v-68h1q11 14 23.5 21t29.5 7q16 0 30.5 -5t28.5 -10.5t29 -10.5t32 -5q20 0 34.5 6.5t25.5 17.5v69zM335 38v790h-76v-268v-107v-80t2 -81q-9 46 -18 94.5t-20.5 110t-26.5 141.5t-34 190h-103v-790h75v205v130v97.5t-2 97.5q10 -48 21 -98.5
t25 -112.5l31.5 -139.5t39.5 -179.5h86z" />
    <glyph glyph-name="Ograve" unicode="&#xd2;" horiz-adv-x="364" 
d="M17 703q0 129 93 162l-109 129q-11 11 -11 26t11 26t29 11h102q6 0 16.5 -5.5t14.5 -10.5l107 -155q7 -11 7 -24q0 -6 -1 -8q71 -38 71 -151v-539q0 -85 -40.5 -129t-125.5 -44q-83 0 -123.5 44t-40.5 129v539zM238 864l-106 155h-102l131 -155h77zM220 164
q0 -46 -39 -46q-37 0 -37 46v539q0 45 37 45q39 0 39 -45v-539zM56 164q0 -134 125 -134q127 0 127 134v539q0 134 -127 134q-125 0 -125 -134v-539z" />
    <glyph glyph-name="Oacute" unicode="&#xd3;" horiz-adv-x="364" 
d="M17 703q0 112 70 151q-1 2 -1 7q0 11 8 24l106 155q3 5 13.5 11t17.5 6h103q18 0 28.5 -11t10.5 -26t-10 -26l-110 -129q94 -33 94 -162v-539q0 -85 -40.5 -129t-125.5 -44q-83 0 -123.5 44t-40.5 129v539zM203 864l131 155h-103l-105 -155h77zM220 164q0 -46 -39 -46
q-37 0 -37 46v539q0 45 37 45q39 0 39 -45v-539zM56 164q0 -134 125 -134q127 0 127 134v539q0 134 -127 134q-125 0 -125 -134v-539z" />
    <glyph glyph-name="Ocircumflex" unicode="&#xd4;" horiz-adv-x="364" 
d="M17 703q0 79 36 123h-14q-18 0 -28.5 10.5t-10.5 25.5q0 12 7 23l98 155q3 6 14 11.5t18 5.5h94q8 0 18 -6t15 -12l93 -155q6 -12 6 -22q0 -15 -10.5 -25.5t-28.5 -10.5h-14q37 -45 37 -123v-539q0 -85 -40.5 -129t-125.5 -44q-83 0 -123.5 44t-40.5 129v539zM181 876
q4 0 7.5 -0.5t6.5 -0.5l-15 25l-15 -25q4 1 8 1h8zM324 864l-93 155h-94l-98 -155h74l68 111l66 -111h77zM220 164q0 -46 -39 -46q-37 0 -37 46v539q0 45 37 45q39 0 39 -45v-539zM56 164q0 -134 125 -134q127 0 127 134v539q0 134 -127 134q-125 0 -125 -134v-539z" />
    <glyph glyph-name="Otilde" unicode="&#xd5;" horiz-adv-x="364" 
d="M337 913q0 -10 -6 -19.5t-15 -17t-20 -13t-21 -8.5q72 -41 72 -152v-539q0 -85 -40.5 -129t-125.5 -44q-83 0 -123.5 44t-40.5 129v539q0 155 135 171q-9 2 -17 4.5t-16 2.5q-6 0 -12.5 -4.5t-13 -10t-14 -10t-15.5 -4.5q-15 0 -26.5 11t-11.5 29v81q17 22 41.5 36
t56.5 14q18 0 33.5 -4.5t30 -10t28 -10t28.5 -4.5q9 0 15.5 4t12.5 9t12.5 9t15.5 4q14 0 25.5 -10t11.5 -28v-69zM299 982h-1q-9 -12 -23 -19.5t-31 -7.5t-31 4.5t-28 10.5t-29 10.5t-32 4.5q-23 0 -37 -7t-23 -18v-68h1q11 14 24 21t30 7q15 0 29.5 -5t29 -10.5
t29.5 -10.5t32 -5q20 0 34.5 6.5t25.5 17.5v69zM220 164q0 -46 -39 -46q-37 0 -37 46v539q0 45 37 45q39 0 39 -45v-539zM56 164q0 -134 125 -134q127 0 127 134v539q0 134 -127 134q-125 0 -125 -134v-539z" />
    <glyph glyph-name="Odieresis" unicode="&#xd6;" horiz-adv-x="364" 
d="M17 703q0 90 46 134q-14 2 -23.5 12.5t-9.5 26.5v120q0 16 11 27t27 11h80q22 0 32 -19q5 8 14 13.5t20 5.5h81q16 0 27 -11t11 -27v-120q0 -15 -9.5 -26t-23.5 -13q47 -44 47 -134v-539q0 -85 -40.5 -129t-125.5 -44q-83 0 -123.5 44t-40.5 129v539zM148 876v120h-80
v-120h80zM295 876v120h-81v-120h81zM220 164q0 -46 -39 -46q-37 0 -37 46v539q0 45 37 45q39 0 39 -45v-539zM56 164q0 -134 125 -134q127 0 127 134v539q0 134 -127 134q-125 0 -125 -134v-539z" />
    <glyph glyph-name="multiply" unicode="&#xd7;" horiz-adv-x="501" 
d="M389 255q-13 -11 -27 -11t-27 11l-84 85l-84 -84q-13 -11 -27 -11t-27 11l-47 47q-11 13 -11 27t11 27l85 84l-85 83q-11 13 -11 27t11 27l47 47q11 11 27 11t27 -11l84 -84l84 85q11 11 27 11t27 -11l47 -47q11 -11 11 -27t-11 -27l-85 -84l85 -85q11 -11 11 -27
t-11 -27zM409 329l-111 112l111 111l-47 47l-111 -111l-111 110l-47 -47l111 -110l-111 -111l47 -47l111 111l111 -112z" />
    <glyph glyph-name="Oslash" unicode="&#xd8;" horiz-adv-x="364" 
d="M55 -90q-17 0 -28 10.5t-11 26.5q0 6 1 9l24 105q-11 20 -17.5 47t-6.5 56v539q0 85 40.5 129t123.5 44q11 0 19.5 -0.5t18.5 -2.5l12 53q3 13 14 22t24 9h39q17 0 28 -10.5t11 -26.5q0 -2 -0.5 -4.5t-0.5 -4.5l-24 -106q25 -42 25 -102v-539q0 -85 -40.5 -129
t-125.5 -44q-11 0 -19.5 0.5t-18.5 2.5l-12 -54q-3 -12 -14.5 -21t-23.5 -9h-38zM144 353v350q0 45 37 45q39 0 39 -45v-6zM220 164q0 -46 -39 -46q-37 0 -37 46v14l76 342v-356zM93 -52l21 95q31 -13 67 -13q127 0 127 134v539q0 61 -27 94l27 122h-39l-21 -95
q-15 6 -31.5 9.5t-35.5 3.5q-125 0 -125 -134v-539q0 -61 26 -94l-27 -122h38z" />
    <glyph glyph-name="Ugrave" unicode="&#xd9;" horiz-adv-x="369" 
d="M310 867q16 0 27 -11t11 -28v-664q0 -173 -164 -173t-164 173v664q0 17 11 28t28 11h52l-107 127q-11 11 -11 26t11 26t29 11h101q7 0 17.5 -5.5t14.5 -10.5l107 -155q2 -5 4 -9.5t3 -9.5h30zM241 864l-107 155h-101l131 -155h77zM222 164q0 -46 -38 -46q-37 0 -37 46
v664h-88v-664q0 -134 125 -134q126 0 126 134v664h-88v-664z" />
    <glyph glyph-name="Uacute" unicode="&#xda;" horiz-adv-x="369" 
d="M310 867q16 0 27 -11t11 -28v-664q0 -173 -164 -173t-164 173v664q0 17 11 28t28 11h29q1 8 8 18l106 155q3 5 13.5 11t17.5 6h103q18 0 28.5 -11t10.5 -26t-10 -26l-109 -127h54zM204 864l132 155h-103l-105 -155h76zM222 164q0 -46 -38 -46q-37 0 -37 46v664h-88v-664
q0 -134 125 -134q126 0 126 134v664h-88v-664z" />
    <glyph glyph-name="Ucircumflex" unicode="&#xdb;" horiz-adv-x="369" 
d="M348 164q0 -173 -164 -173t-164 173v667q-17 11 -17 31q0 12 7 23l98 155q3 6 14 11.5t18 5.5h94q8 0 18 -6t15 -12l93 -155q6 -12 6 -22q0 -21 -18 -32v-666zM184 837q2 9 7.5 15.5t13.5 10.5l-22 37l-23 -36q18 -8 24 -27zM327 864l-93 155h-94l-98 -155h74l68 111
l66 -111h77zM222 164q0 -46 -38 -46q-37 0 -37 46v664h-88v-664q0 -134 125 -134q126 0 126 134v664h-88v-664z" />
    <glyph glyph-name="Udieresis" unicode="&#xdc;" horiz-adv-x="369" 
d="M348 164q0 -173 -164 -173t-164 173v664q0 10 4.5 18t11.5 13q-3 7 -3 17v120q0 16 11 27t27 11h80q22 0 32 -19q5 8 14 13.5t20 5.5h81q16 0 27 -11t11 -27v-120q0 -10 -4 -17q16 -11 16 -31v-664zM151 876v120h-80v-120h80zM298 876v120h-81v-120h81zM222 164
q0 -46 -38 -46q-37 0 -37 46v664h-88v-664q0 -134 125 -134q126 0 126 134v664h-88v-664z" />
    <glyph glyph-name="Yacute" unicode="&#xdd;" horiz-adv-x="374" 
d="M140 0q-16 0 -27 11t-11 27v342l-105 440q-1 2 -1 4.5v4.5q0 17 11 27.5t28 10.5h57q1 8 8 18l105 155q4 5 14.5 11t17.5 6h103q18 0 28.5 -11t10.5 -26q0 -13 -10 -26l-109 -127h80q17 0 27.5 -10.5t10.5 -27.5v-4.5t-1 -5.5l-108 -441v-340q0 -16 -11 -27t-28 -11h-90z
M214 826h-48l24 -121zM208 864l132 155h-103l-105 -155h76zM230 38v346l110 444h-87q-9 -48 -19 -98t-19.5 -93t-16.5 -75.5t-9 -45.5q-2 14 -8.5 46t-15.5 75t-18.5 92.5t-18.5 98.5h-93l105 -444v-346h90z" />
    <glyph glyph-name="Thorn" unicode="&#xde;" horiz-adv-x="370" 
d="M61 0q-16 0 -27 11t-11 27v790q0 17 11 28t27 11h89q16 0 27 -11t11 -28v-101h1q90 0 134 -44t44 -137v-243q0 -88 -44 -134t-133 -46h-2v-85q0 -16 -11 -27t-27 -11h-89zM150 38v123h40q69 0 103.5 36.5t34.5 105.5v243q0 73 -34.5 107.5t-104.5 34.5h-39v140h-89v-790
h89zM239 303q0 -53 -49 -53h-40v349h39q50 0 50 -53v-243z" />
    <glyph glyph-name="germandbls" unicode="&#xdf;" horiz-adv-x="371" 
d="M161 -2l-4 2t-4 3q-6 -3 -14 -3h-78q-16 0 -27 11t-11 27v681q0 77 36 117t114 40q74 0 111.5 -40t37.5 -117v-197q0 -26 -8 -45q17 -17 29.5 -44.5t12.5 -64.5v-216q0 -83 -33 -122t-113 -39q-19 0 -29.5 1.5t-19.5 5.5zM201 371l1 1h-24v-220q9 0 16 3t7 16v200z
M177 34q8 -4 33 -4q59 0 83.5 29.5t24.5 92.5v216q0 43 -17.5 66t-43.5 31q8 5 17 19.5t9 37.5v197q0 118 -110 118q-58 0 -85 -30t-27 -88v-681h78v678q0 18 8 29t26 11q17 0 24.5 -11t7.5 -29v-194q0 -20 -7 -27t-19 -7h-14v-77h39q17 0 26 -9t9 -31v-219q0 -23 -8 -32.5
t-27 -9.5q-17 0 -26 3z" />
    <glyph glyph-name="agrave" unicode="&#xe0;" horiz-adv-x="327" 
d="M199 0q-7 0 -17 5q-22 -14 -53 -14q-59 0 -89.5 31.5t-30.5 101.5v87q0 57 14.5 92t39.5 58h-7q-16 0 -27.5 11t-11.5 27v126q0 113 75 144l-109 129q-11 11 -11 27q0 14 11 25t29 11h101q7 0 17.5 -5.5t14.5 -10.5l107 -155q7 -12 7 -23q0 -7 -3 -14q49 -39 49 -128
v-436q0 -21 2.5 -32.5t2.5 -19.5q0 -16 -10.5 -26.5t-27.5 -10.5h-73zM220 668l-107 155h-101l131 -155h77zM190 133q-9 -25 -32 -25q-32 0 -32 36v61q0 24 1 42.5t7 32.5t19 25t37 20v-192zM272 38q-5 18 -5 51v436q0 117 -107 117q-104 0 -104 -117v-126h70v125q0 18 6 28
t26 10q32 0 32 -38v-134q-30 -14 -56 -27.5t-45.5 -33t-30.5 -48t-11 -70.5v-87q0 -50 21 -72t61 -22q23 0 39 10.5t27 30.5q0 -22 4 -33h73z" />
    <glyph glyph-name="aacute" unicode="&#xe1;" horiz-adv-x="327" 
d="M199 0q-7 0 -17 5q-22 -14 -53 -14q-59 0 -89.5 31.5t-30.5 101.5v87q0 57 14.5 92t39.5 58h-7q-16 0 -27.5 11t-11.5 27v126q0 93 52 131q-1 3 -1 9q0 13 8 24l105 155q4 6 14.5 11.5t17.5 5.5h103q18 0 28.5 -11t10.5 -25t-10 -27l-112 -131q72 -33 72 -142v-436
q0 -21 2.5 -32.5t2.5 -19.5q0 -16 -10.5 -26.5t-27.5 -10.5h-73zM184 668l132 155h-103l-105 -155h76zM190 133q-9 -25 -32 -25q-32 0 -32 36v61q0 24 1 42.5t7 32.5t19 25t37 20v-192zM272 38q-5 18 -5 51v436q0 117 -107 117q-104 0 -104 -117v-126h70v125q0 18 6 28
t26 10q32 0 32 -38v-134q-30 -14 -56 -27.5t-45.5 -33t-30.5 -48t-11 -70.5v-87q0 -50 21 -72t61 -22q23 0 39 10.5t27 30.5q0 -22 4 -33h73z" />
    <glyph glyph-name="acircumflex" unicode="&#xe2;" horiz-adv-x="327" 
d="M199 0q-7 0 -17 5q-22 -14 -53 -14q-59 0 -89.5 31.5t-30.5 101.5v87q0 57 14.5 92t39.5 58h-7q-16 0 -27.5 11t-11.5 27v126q0 65 26 105h-22q-18 0 -28.5 10.5t-10.5 25.5q0 12 6 23l98 155q4 6 14.5 11.5t18.5 5.5h94q8 0 18 -5.5t15 -12.5l93 -155q6 -11 6 -22
q0 -15 -11 -25.5t-28 -10.5h-28q27 -37 27 -105v-436q0 -21 2.5 -32.5t2.5 -19.5q0 -16 -10.5 -26.5t-27.5 -10.5h-73zM160 681h8.5t8.5 -1l-15 25l-15 -25q4 0 7 0.5t6 0.5zM306 668l-93 155h-94l-98 -155h74l68 112l65 -112h78zM190 133q-9 -25 -32 -25q-32 0 -32 36v61
q0 24 1 42.5t7 32.5t19 25t37 20v-192zM272 38q-5 18 -5 51v436q0 117 -107 117q-104 0 -104 -117v-126h70v125q0 18 6 28t26 10q32 0 32 -38v-134q-30 -14 -56 -27.5t-45.5 -33t-30.5 -48t-11 -70.5v-87q0 -50 21 -72t61 -22q23 0 39 10.5t27 30.5q0 -22 4 -33h73z" />
    <glyph glyph-name="atilde" unicode="&#xe3;" horiz-adv-x="327" 
d="M320 717q0 -11 -6.5 -20.5t-16.5 -17.5t-22.5 -13.5t-23.5 -7.5q54 -38 54 -133v-436q0 -21 2.5 -32.5t2.5 -19.5q0 -16 -10.5 -26.5t-27.5 -10.5h-73q-7 0 -17 5q-22 -14 -53 -14q-59 0 -89.5 31.5t-30.5 101.5v87q0 57 14.5 92t39.5 58h-7q-16 0 -27.5 11t-11.5 27v126
q0 139 115 154q-17 6 -30 6q-7 0 -13 -4.5t-13 -9.5t-14 -9.5t-15 -4.5q-15 0 -26.5 10.5t-11.5 28.5v82q17 21 41 35.5t57 14.5q18 0 33.5 -4.5t30 -10.5t28 -10.5t28.5 -4.5q9 0 15 4t12 9.5t12.5 9.5t15.5 4q14 0 26 -10.5t12 -28.5v-69zM281 786h-1q-8 -12 -22 -19.5
t-31 -7.5t-31.5 4.5t-28.5 10.5t-28.5 10.5t-31.5 4.5q-23 0 -37 -7t-23 -18v-68h1q22 28 54 28q15 0 29.5 -5t29 -10.5t29.5 -10.5t32 -5q20 0 34 6.5t25 17.5v69zM190 133q-9 -25 -32 -25q-32 0 -32 36v61q0 24 1 42.5t7 32.5t19 25t37 20v-192zM272 38q-5 18 -5 51v436
q0 117 -107 117q-104 0 -104 -117v-126h70v125q0 18 6 28t26 10q32 0 32 -38v-134q-30 -14 -56 -27.5t-45.5 -33t-30.5 -48t-11 -70.5v-87q0 -50 21 -72t61 -22q23 0 39 10.5t27 30.5q0 -22 4 -33h73z" />
    <glyph glyph-name="adieresis" unicode="&#xe4;" horiz-adv-x="327" 
d="M51 641q-16 0 -27.5 11.5t-11.5 27.5v120q0 16 11.5 27t27.5 11h80q10 0 18.5 -5.5t13.5 -13.5q5 8 14 13.5t20 5.5h80q17 0 28 -11t11 -27v-120q0 -16 -11 -27.5t-28 -11.5h-7q35 -38 35 -116v-436q0 -20 2.5 -31.5t2.5 -20.5q0 -15 -10.5 -26t-27.5 -11h-73q-7 0 -17 5
q-22 -14 -53 -14q-59 0 -89.5 31.5t-30.5 101.5v87q0 57 14.5 92t39.5 58h-7q-16 0 -27.5 11t-11.5 27v126q0 76 35 116h-1zM131 680v120h-80v-120h80zM277 680v120h-80v-120h80zM190 133q-9 -25 -32 -25q-32 0 -32 36v61q0 24 1 42.5t7 32.5t19 25t37 20v-192zM272 38
q-5 18 -5 51v436q0 117 -107 117q-104 0 -104 -117v-126h70v125q0 18 6 28t26 10q32 0 32 -38v-134q-30 -14 -56 -27.5t-45.5 -33t-30.5 -48t-11 -70.5v-87q0 -50 21 -72t61 -22q23 0 39 10.5t27 30.5q0 -22 4 -33h73z" />
    <glyph glyph-name="aring" unicode="&#xe5;" horiz-adv-x="327" 
d="M296 746q0 -29 -11 -52t-33 -38q53 -37 53 -131v-436q0 -21 2.5 -32.5t2.5 -19.5q0 -16 -10.5 -26.5t-27.5 -10.5h-73q-7 0 -17 5q-22 -14 -53 -14q-59 0 -89.5 31.5t-30.5 101.5v87q0 57 14.5 92t39.5 58h-7q-16 0 -27.5 11t-11.5 27v126q0 95 55 133q-41 29 -41 88
q0 51 32.5 83t98.5 32q68 0 101 -32t33 -83zM215 746q0 -20 -12 -30t-41 -10q-54 0 -54 40q0 42 54 42q29 0 41 -10.5t12 -31.5zM257 746q0 34 -23 55.5t-72 21.5q-47 0 -70 -21.5t-23 -55.5q0 -32 23 -53.5t70 -21.5q49 0 72 21.5t23 53.5zM190 133q-9 -25 -32 -25
q-32 0 -32 36v61q0 24 1 42.5t7 32.5t19 25t37 20v-192zM272 38q-5 18 -5 51v436q0 117 -107 117q-104 0 -104 -117v-126h70v125q0 18 6 28t26 10q32 0 32 -38v-134q-30 -14 -56 -27.5t-45.5 -33t-30.5 -48t-11 -70.5v-87q0 -50 21 -72t61 -22q23 0 39 10.5t27 30.5
q0 -22 4 -33h73z" />
    <glyph glyph-name="ae" unicode="&#xe6;" horiz-adv-x="461" 
d="M444 324q0 -12 -7 -22q7 -11 7 -22v-130q0 -159 -146 -159q-26 0 -47 6t-36 17q-14 -11 -34 -17t-48 -6q-57 0 -90.5 31.5t-33.5 101.5v87q0 57 14.5 92t39.5 58h-7q-16 0 -27.5 11t-11.5 27v126q0 156 143 156q21 0 38 -3.5t32 -11.5q30 15 68 15q146 0 146 -161v-196z
M330 382h-63v138q0 39 31 39q32 0 32 -39v-138zM190 133q-9 -25 -32 -25q-20 0 -26 12.5t-6 35.5v49q0 24 1 42.5t7 32.5t19 25t37 20v-192zM330 150q0 -39 -32 -39q-31 0 -31 36v177h138v196q0 122 -107 122q-43 0 -68 -22q-23 22 -70 22q-104 0 -104 -117v-126h70v126
q0 37 32 37t32 -37v-135q-30 -14 -56 -27.5t-45.5 -33t-30.5 -48t-11 -70.5v-87q0 -50 23.5 -72t62.5 -22q35 0 53 12t29 32q14 -23 32 -33.5t51 -10.5q107 0 107 120v130h-75v-130z" />
    <glyph glyph-name="ccedilla" unicode="&#xe7;" horiz-adv-x="326" 
d="M142 -143q-16 0 -27 11t-11 27v32q-8 11 -8 23v55q-41 17 -60 55t-19 91v368q0 72 36 117t113 45q76 0 110 -44.5t34 -116.5v-128q0 -16 -11 -27.5t-27 -11.5h-73q-16 0 -27 11v-56q12 12 27 12h75q16 0 27 -11.5t11 -27.5v-132q0 -51 -18 -88t-55 -55v-71
q0 -35 -19 -56.5t-62 -21.5h-16zM158 -105q23 0 33 11t10 29v84h-67v-69h32v-16q0 -12 -10 -12h-14v-27h16zM199 151q0 -40 -33 -40t-33 40v370q0 39 33 39t33 -38v-130h73v128q0 55 -25 88.5t-81 33.5q-57 0 -83.5 -34t-26.5 -89v-368q0 -55 26.5 -88t83.5 -33
q56 0 82 32.5t26 86.5v132h-75v-130z" />
    <glyph glyph-name="egrave" unicode="&#xe8;" 
d="M306 324q0 -6 -2 -11.5t-4 -10.5q2 -5 4 -10.5t2 -11.5v-130q0 -159 -146 -159q-143 0 -143 159v370q0 115 74 148l-110 130q-11 11 -11 27q0 14 11 25t29 11h101q7 0 17.5 -5.5t14.5 -10.5l107 -155q7 -10 7 -24q0 -4 -0.5 -6.5t-1.5 -5.5q51 -39 51 -134v-196zM218 668
l-107 155h-101l131 -155h77zM193 151q0 -40 -33 -40q-30 0 -30 39v174h138v196q0 122 -108 122q-104 0 -104 -122v-370q0 -120 104 -120q108 0 108 120v130h-75v-129zM193 382h-63v138q0 39 30 39q33 0 33 -39v-138z" />
    <glyph glyph-name="eacute" unicode="&#xe9;" 
d="M306 324q0 -6 -2 -11.5t-4 -10.5q2 -5 4 -10.5t2 -11.5v-130q0 -159 -146 -159q-143 0 -143 159v370q0 96 51 135q-1 3 -1.5 5t-0.5 5q0 13 8 24l106 155q3 6 13.5 11.5t17.5 5.5h103q18 0 28.5 -11t10.5 -25t-10 -27l-112 -131q75 -32 75 -147v-196zM182 668l132 155
h-103l-105 -155h76zM193 151q0 -40 -33 -40q-30 0 -30 39v174h138v196q0 122 -108 122q-104 0 -104 -122v-370q0 -120 104 -120q108 0 108 120v130h-75v-129zM193 382h-63v138q0 39 30 39q33 0 33 -39v-138z" />
    <glyph glyph-name="ecircumflex" unicode="&#xea;" 
d="M306 324q0 -6 -2 -11.5t-4 -10.5q2 -5 4 -10.5t2 -11.5v-130q0 -159 -146 -159q-143 0 -143 159v370q0 35 7 62.5t20 47.5h-25q-18 0 -28.5 10.5t-10.5 25.5q0 13 7 23l97 155q4 6 15 11.5t18 5.5h94q8 0 18 -5.5t15 -12.5l93 -155q6 -11 6 -22q0 -15 -11 -25.5
t-28 -10.5h-26q28 -40 28 -110v-196zM160 681q10 0 15 -1l-15 25l-15 -25q5 1 15 1zM304 668l-93 155h-94l-98 -155h74l68 112l66 -112h77zM193 151q0 -40 -33 -40q-30 0 -30 39v174h138v196q0 122 -108 122q-104 0 -104 -122v-370q0 -120 104 -120q108 0 108 120v130h-75
v-129zM193 382h-63v138q0 39 30 39q33 0 33 -39v-138z" />
    <glyph glyph-name="edieresis" unicode="&#xeb;" 
d="M49 641q-16 0 -27 11.5t-11 27.5v120q0 16 11 27t27 11h80q22 0 32 -19q5 8 14 13.5t20 5.5h81q16 0 27 -11t11 -27v-120q0 -16 -11 -27.5t-27 -11.5h-6q36 -41 36 -121v-196q0 -6 -2 -11.5t-4 -10.5q2 -5 4 -10.5t2 -11.5v-130q0 -159 -146 -159q-143 0 -143 159v370
q0 80 36 121h-4zM129 680v120h-80v-120h80zM276 680v120h-81v-120h81zM193 151q0 -40 -33 -40q-30 0 -30 39v174h138v196q0 122 -108 122q-104 0 -104 -122v-370q0 -120 104 -120q108 0 108 120v130h-75v-129zM193 382h-63v138q0 39 30 39q33 0 33 -39v-138z" />
    <glyph glyph-name="igrave" unicode="&#xec;" horiz-adv-x="217" 
d="M75 0q-16 0 -27.5 11t-11.5 27v595q0 17 13 28l-115 137q-11 11 -11 27q0 14 11 25t29 11h101q7 0 17.5 -5.5t14.5 -10.5l107 -155q7 -10 7 -24q0 -9 -4.5 -17t-12.5 -13v-598q0 -16 -11 -27t-27 -11h-80zM171 668l-107 155h-101l131 -155h77zM155 38v595h-80v-595h80z
" />
    <glyph glyph-name="iacute" unicode="&#xed;" horiz-adv-x="232" 
d="M63 0q-16 0 -27 11t-11 27v598q-17 9 -17 29q0 12 7 24l106 155q4 6 14 11.5t18 5.5h102q18 0 29 -11t11 -25t-11 -27l-116 -137q13 -9 13 -28v-595q0 -16 -11 -27t-27 -11h-80zM124 668l131 155h-102l-106 -155h77zM143 38v595h-80v-595h80z" />
    <glyph glyph-name="icircumflex" unicode="&#xee;" horiz-adv-x="285" 
d="M103 0q-16 0 -27.5 11t-11.5 27v592h-64q-18 0 -28.5 10.5t-10.5 25.5q0 12 6 23l98 155q4 6 14.5 11.5t18.5 5.5h94q8 0 18 -5.5t15 -12.5l93 -155q6 -11 6 -22q0 -15 -11 -25.5t-28 -10.5h-64v-592q0 -16 -11 -27t-28 -11h-79zM120 671h40l-19 34zM285 668l-93 155h-94
l-98 -155h74l68 112l65 -112h78zM182 38v595h-79v-595h79z" />
    <glyph glyph-name="idieresis" unicode="&#xef;" horiz-adv-x="236" 
d="M4 641q-16 0 -27.5 11.5t-11.5 27.5v120q0 16 11.5 27t27.5 11h80q10 0 18.5 -5.5t13.5 -13.5q5 8 14 13.5t20 5.5h80q17 0 28 -11t11 -27v-120q0 -16 -11 -27.5t-28 -11.5h-35q0 -2 0.5 -4t0.5 -4v-595q0 -16 -11 -27t-28 -11h-79q-16 0 -27.5 11t-11.5 27v595q0 5 1 8
h-36zM84 680v120h-80v-120h80zM230 680v120h-80v-120h80zM157 38v595h-79v-595h79z" />
    <glyph glyph-name="eth" unicode="&#xf0;" horiz-adv-x="364" 
d="M17 420q0 57 18 91.5t52 50.5l-16 14q-12 9 -12 28q0 6 1.5 13t6.5 12l65 79q-18 0 -32.5 10t-14.5 30v89q0 16 11.5 27.5t27.5 11.5q37 0 67 -7.5t54 -21.5l17 21q12 14 30 14q14 0 26 -9l30 -26q12 -12 12 -29q0 -15 -9 -25l-30 -37q26 -68 26 -168v-421
q0 -85 -41 -130.5t-125 -45.5q-83 0 -123.5 45.5t-40.5 130.5v253zM219 164q0 -46 -38 -46q-37 0 -37 52v235q0 45 39 45q20 0 26.5 -10.5t9.5 -24.5v-251zM56 167q0 -66 31 -101.5t94 -35.5q64 0 95.5 35.5t31.5 101.5v421q0 54 -7 97.5t-25 75.5l46 57l-30 26l-41 -50
q-43 43 -127 43v-89q23 -2 40.5 -7t29.5 -16l-97 -120l30 -26l89 109q11 -35 11 -89v-92q-11 14 -26.5 22.5t-38.5 8.5q-49 0 -77.5 -27t-28.5 -91v-253z" />
    <glyph glyph-name="ntilde" unicode="&#xf1;" horiz-adv-x="345" 
d="M328 717q0 -18 -17 -32.5t-35 -21.5q49 -33 49 -130v-495q0 -16 -11 -27t-27 -11h-81q-10 0 -18.5 5t-13.5 13q-5 -8 -13.5 -13t-19.5 -5h-80q-16 0 -27 11t-11 27v595q0 17 13 28q-8 5 -13.5 14t-5.5 21v82q17 21 41.5 35.5t56.5 14.5q18 0 34 -4.5t30 -10.5t28 -10.5
t28 -4.5q9 0 15.5 4t12.5 9.5t12.5 9.5t15.5 4q14 0 25.5 -10.5t11.5 -28.5v-69zM129 671q8 0 20 -7q3 2 5.5 3.5t6.5 3.5q-17 7 -28.5 10.5t-22.5 3.5q-12 0 -25 -14h44zM290 786h-1q-9 -12 -23 -19.5t-31 -7.5t-31 4.5t-28 10.5t-29 10.5t-32 4.5q-23 0 -37 -7t-22 -18
v-68h1q11 14 23.5 21t29.5 7q16 0 30.5 -5t28.5 -10.5t29 -10.5t32 -5q20 0 34.5 6.5t25.5 17.5v69zM287 38v495q0 109 -76 109q-51 0 -79 -48q0 21 -3 39h-68v-595h80v502q6 13 16 18.5t21 5.5q28 0 28 -36v-490h81z" />
    <glyph glyph-name="ograve" unicode="&#xf2;" horiz-adv-x="333" 
d="M17 523q0 56 18.5 92.5t59.5 52.5l-109 130q-11 11 -11 27q0 14 10.5 25t28.5 11h102q7 0 17.5 -5.5t14.5 -10.5l106 -155q8 -11 8 -24q0 -3 -0.5 -5t-1.5 -5q57 -39 57 -133v-375q0 -77 -38 -117t-112 -40q-78 0 -114 40t-36 117v375zM223 668l-107 155h-102l132 -155
h77zM200 151q0 -20 -6.5 -30t-26.5 -10t-27 9.5t-7 29.5v370q0 20 7 30t27 10t26.5 -10t6.5 -30v-369zM56 148q0 -58 26.5 -88t84.5 -30q111 0 111 118v375q0 58 -28 88.5t-83 30.5q-58 0 -84.5 -30.5t-26.5 -88.5v-375z" />
    <glyph glyph-name="oacute" unicode="&#xf3;" horiz-adv-x="333" 
d="M17 523q0 95 55 134q-1 3 -1 8q0 13 8 24l105 155q4 6 14 11.5t18 5.5h103q18 0 28.5 -11t10.5 -25t-10 -27l-111 -130q80 -34 80 -145v-375q0 -77 -38 -117t-112 -40q-78 0 -114 40t-36 117v375zM187 668l132 155h-103l-106 -155h77zM200 151q0 -20 -6.5 -30t-26.5 -10
t-27 9.5t-7 29.5v370q0 20 7 30t27 10t26.5 -10t6.5 -30v-369zM56 148q0 -58 26.5 -88t84.5 -30q111 0 111 118v375q0 58 -28 88.5t-83 30.5q-58 0 -84.5 -30.5t-26.5 -88.5v-375z" />
    <glyph glyph-name="ocircumflex" unicode="&#xf4;" horiz-adv-x="333" 
d="M17 523q0 67 28 107h-21q-18 0 -28.5 10.5t-10.5 25.5q0 12 6 23l98 155q4 6 14.5 11.5t18.5 5.5h94q8 0 18 -5.5t15 -12.5l93 -155q6 -11 6 -22q0 -15 -11 -25.5t-28 -10.5h-22q30 -41 30 -107v-375q0 -77 -38 -117t-112 -40q-78 0 -114 40t-36 117v375zM167 681
q3 0 6.5 -0.5t6.5 -0.5l-15 25l-15 -25q5 1 8.5 1h8.5zM309 668l-93 155h-94l-98 -155h74l68 112l65 -112h78zM200 151q0 -20 -6.5 -30t-26.5 -10t-27 9.5t-7 29.5v370q0 20 7 30t27 10t26.5 -10t6.5 -30v-369zM56 148q0 -58 26.5 -88t84.5 -30q111 0 111 118v375
q0 58 -28 88.5t-83 30.5q-58 0 -84.5 -30.5t-26.5 -88.5v-375z" />
    <glyph glyph-name="otilde" unicode="&#xf5;" horiz-adv-x="333" 
d="M323 717q0 -11 -6.5 -20.5t-16 -17t-21.5 -13t-23 -8.5q61 -38 61 -135v-375q0 -77 -38 -117t-112 -40q-78 0 -114 40t-36 117v375q0 68 28.5 107.5t88.5 48.5q-15 6 -29 6q-7 0 -13 -4.5t-13 -9.5t-14 -9.5t-15 -4.5q-15 0 -26.5 10.5t-11.5 28.5v82q17 21 41 35.5
t56 14.5q18 0 34 -4.5t30 -10.5t28 -10.5t28 -4.5q9 0 15.5 4t12.5 9.5t12.5 9.5t15.5 4q14 0 26 -10.5t12 -28.5v-69zM284 786h-1q-8 -12 -22.5 -19.5t-31.5 -7.5t-31 4.5t-28 10.5t-28.5 10.5t-32.5 4.5q-22 0 -36.5 -7t-22.5 -18v-68h1q22 28 54 28q15 0 29.5 -5
t29 -10.5t29.5 -10.5t32 -5q20 0 34 6.5t25 17.5v69zM200 151q0 -20 -6.5 -30t-26.5 -10t-27 9.5t-7 29.5v370q0 20 7 30t27 10t26.5 -10t6.5 -30v-369zM56 148q0 -58 26.5 -88t84.5 -30q111 0 111 118v375q0 58 -28 88.5t-83 30.5q-58 0 -84.5 -30.5t-26.5 -88.5v-375z" />
    <glyph glyph-name="odieresis" unicode="&#xf6;" horiz-adv-x="333" 
d="M54 641q-16 0 -27.5 11.5t-11.5 27.5v120q0 16 11.5 27t27.5 11h79q11 0 19.5 -5.5t13.5 -13.5q5 8 14 13.5t20 5.5h80q16 0 27.5 -11t11.5 -27v-120q0 -16 -11.5 -27.5t-27.5 -11.5h-3q40 -42 40 -118v-375q0 -77 -38 -117t-112 -40q-78 0 -114 40t-36 117v375
q0 78 37 118zM133 680v120h-79v-120h79zM280 680v120h-80v-120h80zM200 151q0 -20 -6.5 -30t-26.5 -10t-27 9.5t-7 29.5v370q0 20 7 30t27 10t26.5 -10t6.5 -30v-369zM56 148q0 -58 26.5 -88t84.5 -30q111 0 111 118v375q0 58 -28 88.5t-83 30.5q-58 0 -84.5 -30.5
t-26.5 -88.5v-375z" />
    <glyph glyph-name="divide" unicode="&#xf7;" horiz-adv-x="501" 
d="M209 173q-16 0 -27 11t-11 27v120q0 14 9.5 25.5t23.5 13.5h-143q-16 0 -27 11t-11 27v66q0 16 11 27.5t27 11.5h143q-14 2 -23.5 12.5t-9.5 25.5v120q0 16 11 27t27 11h83q16 0 27 -11t11 -27v-120q0 -15 -10 -25.5t-24 -12.5h146q16 0 27 -11.5t11 -27.5v-66
q0 -16 -11 -27t-27 -11h-146q14 -2 24 -13.5t10 -25.5v-120q0 -16 -11 -27t-27 -11h-83zM292 211v120h-83v-120h83zM292 551v120h-83v-120h83zM442 408v66h-381v-66h381z" />
    <glyph glyph-name="oslash" unicode="&#xf8;" horiz-adv-x="333" 
d="M55 -90q-17 0 -28 10.5t-11 26.5q0 6 1 10l23 96q-23 38 -23 95v375q0 77 36 117.5t114 40.5h11t11 -1q3 12 5.5 26t8 26t14 20.5t22.5 8.5h38q17 0 28 -10.5t11 -26.5q0 -7 -1 -10l-23 -94q25 -38 25 -97v-375q0 -77 -38 -117t-112 -40h-12t-12 1l-12 -52
q-3 -13 -14.5 -21.5t-23.5 -8.5h-38zM133 279v241q0 20 7 30t27 10q23 0 29 -18zM200 151q0 -20 -6.5 -30t-26.5 -10q-25 0 -31 18l64 267v-245zM93 -52l21 90q11 -3 24.5 -5.5t28.5 -2.5q111 0 111 118v375q0 56 -27 88l26 112h-38l-21 -89q-22 8 -51 8q-58 0 -84.5 -30.5
t-26.5 -88.5v-375q0 -57 26 -87l-27 -113h38z" />
    <glyph glyph-name="ugrave" unicode="&#xf9;" horiz-adv-x="343" 
d="M214 0q-11 0 -22 8q-26 -14 -59 -14q-55 0 -84 36t-29 104v499q0 16 11 27t28 11h39l-108 127q-10 11 -10 27q0 14 10.5 25t28.5 11h102q7 0 17.5 -5.5t14.5 -10.5l106 -155q6 -10 8 -19h15q16 0 27.5 -11t11.5 -27v-595q0 -16 -11.5 -27t-27.5 -11h-68zM228 668
l-107 155h-102l132 -155h77zM282 38v595h-80v-499q-6 -12 -15.5 -17.5t-20.5 -5.5q-28 0 -28 36v486h-79v-499q0 -49 18.5 -75t55.5 -26q51 0 78 43q0 -20 3 -38h68z" />
    <glyph glyph-name="uacute" unicode="&#xfa;" horiz-adv-x="343" 
d="M214 0q-11 0 -22 8q-26 -14 -59 -14q-55 0 -84 36t-29 104v499q0 16 11 27t28 11h17q2 10 8 18l105 155q4 6 14 11.5t18 5.5h103q18 0 28.5 -11t10.5 -25t-11 -27l-108 -127h38q16 0 27.5 -11t11.5 -27v-595q0 -16 -11.5 -27t-27.5 -11h-68zM192 668l132 155h-103
l-106 -155h77zM282 38v595h-80v-499q-6 -12 -15.5 -17.5t-20.5 -5.5q-28 0 -28 36v486h-79v-499q0 -49 18.5 -75t55.5 -26q51 0 78 43q0 -20 3 -38h68z" />
    <glyph glyph-name="ucircumflex" unicode="&#xfb;" horiz-adv-x="343" 
d="M214 0q-11 0 -22 8q-26 -14 -59 -14q-55 0 -84 36t-29 104v497q-14 2 -22.5 12t-8.5 23t7 23l98 155q4 6 14.5 11.5t18.5 5.5h94q8 0 18 -5.5t14 -12.5l94 -155q5 -12 5 -22q0 -14 -8.5 -24t-22.5 -12v-592q0 -16 -11.5 -27t-27.5 -11h-68zM170 654q4 5 8.5 9t11.5 6
l-20 36l-21 -36q13 -3 21 -15zM314 668l-93 155h-94l-98 -155h74l68 112l65 -112h78zM282 38v595h-80v-499q-6 -12 -15.5 -17.5t-20.5 -5.5q-28 0 -28 36v486h-79v-499q0 -49 18.5 -75t55.5 -26q51 0 78 43q0 -20 3 -38h68z" />
    <glyph glyph-name="udieresis" unicode="&#xfc;" horiz-adv-x="343" 
d="M214 0q-11 0 -22 8q-26 -14 -59 -14q-55 0 -84 36t-29 104v499q0 12 8 23q-8 10 -8 24v120q0 16 11 27t28 11h79q11 0 19.5 -5.5t13.5 -13.5q5 8 13.5 13.5t19.5 5.5h81q16 0 27.5 -11t11.5 -27v-120q0 -16 -10 -26q7 -11 7 -21v-595q0 -16 -11.5 -27t-27.5 -11h-68z
M173 658l-2 2l-3 -4l2 -2zM138 680v120h-79v-120h79zM285 680v120h-81v-120h81zM282 38v595h-80v-499q-6 -12 -15.5 -17.5t-20.5 -5.5q-28 0 -28 36v486h-79v-499q0 -49 18.5 -75t55.5 -26q51 0 78 43q0 -20 3 -38h68z" />
    <glyph glyph-name="yacute" unicode="&#xfd;" horiz-adv-x="321" 
d="M6 -15q0 17 10.5 27.5t26.5 10.5q7 0 13 -2t20 -2q7 0 7 16q0 7 -1 12l-85 580q0 2 -0.5 3.5t-0.5 3.5q0 16 11.5 26.5t28.5 10.5h28q2 10 8 18l106 155q3 6 13.5 11.5t17.5 5.5h103q18 0 28.5 -11t10.5 -25q0 -16 -10 -27l-109 -127h51q20 0 29.5 -13t9.5 -31l-81 -572
q-6 -45 -15.5 -81t-27 -60.5t-45.5 -38t-73 -13.5q-14 0 -27 1.5t-23.5 6t-17 13t-6.5 22.5v80zM180 668l132 155h-103l-105 -155h76zM44 -95q18 -5 36 -5q33 0 54 11t34.5 32t21 50.5t13.5 66.5l80 573h-77q-10 -79 -17 -139.5t-12 -109t-9.5 -89t-8.5 -79.5q-3 39 -6 79.5
t-8 89t-11 109t-15 139.5h-83l83 -576l-2 -13q-5 -29 -12.5 -46t-27.5 -17q-21 0 -33 4v-80z" />
    <glyph glyph-name="thorn" unicode="&#xfe;" horiz-adv-x="346" 
d="M61 -133q-16 0 -27 11t-11 27v923q0 17 11 28t27 11h80q16 0 27.5 -11t11.5 -28v-149q5 1 11.5 1.5t12.5 0.5q63 0 93.5 -35t30.5 -113v-395q0 -78 -30.5 -112.5t-93.5 -34.5q-6 0 -12.5 0.5t-11.5 1.5v-88q0 -16 -11.5 -27t-27.5 -11h-80zM210 149q0 -20 -7.5 -28
t-24.5 -8q-12 0 -22 5.5t-15 19.5v395q5 14 15 20t22 6q32 0 32 -37v-373zM141 -95v152q21 -27 63 -27q44 0 65 25t21 83v395q0 58 -21 83.5t-65 25.5q-41 0 -63 -28v214h-80v-923h80z" />
    <glyph glyph-name="ydieresis" unicode="&#xff;" horiz-adv-x="321" 
d="M6 -15q0 17 10.5 27.5t26.5 10.5q7 0 12 -2t15 -2q12 0 12 18v7.5t-1 8.5l-84 574q0 2 -0.5 3t-0.5 3q0 20 16 30q-3 7 -3 17v120q0 16 11 27t27 11h80q22 0 32 -19q5 8 14 13.5t20 5.5h81q16 0 27 -11t11 -27v-120q0 -11 -4 -18q8 -7 11 -15.5t3 -19.5l-81 -572
q-6 -45 -15.5 -81t-27 -60.5t-45.5 -38t-73 -13.5q-14 0 -27 1.5t-23.5 6t-17 13t-6.5 22.5v80zM127 680v120h-80v-120h80zM274 680v120h-81v-120h81zM44 -95q18 -5 36 -5q33 0 54 11t34.5 32t21 50.5t13.5 66.5l80 573h-77q-10 -79 -17 -139.5t-12 -109t-9.5 -89
t-8.5 -79.5q-3 39 -6 79.5t-8 89t-11 109t-15 139.5h-83l83 -576l-2 -13q-5 -29 -12.5 -46t-27.5 -17q-21 0 -33 4v-80z" />
    <glyph glyph-name="Amacron" unicode="&#x100;" horiz-adv-x="377" 
d="M76 862q-16 0 -27.5 11t-11.5 27v70q0 16 11.5 27t27.5 11h224q17 0 28 -11t11 -27v-70q0 -16 -11 -27t-28 -11h-40q17 -9 20 -29l97 -790q0 -18 -9 -30.5t-29 -12.5h-89q-14 0 -25.5 10t-13.5 24l-10 88h-29l-11 -87q-2 -15 -13.5 -25t-24.5 -10h-87q-19 0 -28.5 12.5
t-9.5 30.5l103 790q2 19 20 29h-45zM300 900v70h-224v-70h224zM147 242q11 88 21.5 177.5t18.5 181.5q9 -92 18.5 -180.5t20.5 -178.5h-79zM339 38l-97 790h-103l-103 -790h87q4 32 7 61.5t8 60.5h97l15 -122h89z" />
    <glyph glyph-name="amacron" unicode="&#x101;" horiz-adv-x="327" 
d="M52 666q-16 0 -27.5 11.5t-11.5 27.5v69q0 16 11.5 27t27.5 11h224q17 0 28 -11t11 -27v-69q0 -16 -11 -27.5t-28 -11.5h-41q70 -33 70 -141v-436q0 -21 2.5 -32.5t2.5 -19.5q0 -16 -10.5 -26.5t-27.5 -10.5h-73q-7 0 -17 5q-22 -14 -53 -14q-59 0 -89.5 31.5
t-30.5 101.5v87q0 57 14.5 92t39.5 58h-7q-16 0 -27.5 11t-11.5 27v126q0 108 68 141h-33zM276 705v69h-224v-69h224zM190 133q-9 -25 -32 -25q-32 0 -32 36v61q0 24 1 42.5t7 32.5t19 25t37 20v-192zM272 38q-5 18 -5 51v436q0 117 -107 117q-104 0 -104 -117v-126h70v125
q0 18 6 28t26 10q32 0 32 -38v-134q-30 -14 -56 -27.5t-45.5 -33t-30.5 -48t-11 -70.5v-87q0 -50 21 -72t61 -22q23 0 39 10.5t27 30.5q0 -22 4 -33h73z" />
    <glyph glyph-name="Abreve" unicode="&#x102;" horiz-adv-x="377" 
d="M320 1051q16 0 27 -11t11 -27q0 -77 -19.5 -116.5t-60.5 -54.5l99 -799q0 -18 -9 -30.5t-29 -12.5h-89q-14 0 -25.5 10t-13.5 24l-10 88h-29l-11 -87q-2 -15 -14 -25t-24 -10h-87q-19 0 -28.5 12.5t-9.5 30.5l104 797q-23 7 -38.5 20t-25 34t-14 50t-4.5 69q0 16 11 27
t28 11h72q16 0 27 -11t11 -27q0 -20 1.5 -32t4.5 -18.5t6.5 -8.5t7.5 -2t7.5 2t6 8.5t4 18.5t1.5 32q0 16 11.5 27t27.5 11h73zM247 1013q0 -33 -4.5 -52.5t-12.5 -30t-18.5 -13.5t-22.5 -3t-23 3t-18.5 13.5t-12 30t-4.5 52.5h-72q0 -43 6.5 -71t22 -44.5t40.5 -23t63 -6.5
q33 0 57.5 6.5t40 23t23.5 44.5t8 71h-73zM147 242q11 88 21.5 177.5t18.5 181.5q9 -92 18.5 -180.5t20.5 -178.5h-79zM339 38l-97 790h-103l-103 -790h87q4 32 7 61.5t8 60.5h97l15 -122h89z" />
    <glyph glyph-name="abreve" unicode="&#x103;" horiz-adv-x="327" 
d="M295 855q16 0 27 -11t11 -27q0 -73 -17.5 -112t-54.5 -56q44 -37 44 -124v-436q0 -21 2.5 -32.5t2.5 -19.5q0 -16 -10.5 -26.5t-27.5 -10.5h-73q-7 0 -17 5q-22 -14 -53 -14q-59 0 -89.5 31.5t-30.5 101.5v87q0 57 14.5 92t39.5 58h-7q-16 0 -27.5 11t-11.5 27v126
q0 86 44 125q-36 17 -51 56t-15 111q0 16 11 27t28 11h72q16 0 27 -11t11 -27q0 -20 1.5 -32t4.5 -18.5t6.5 -8.5t7.5 -2t7.5 2t6 8.5t4 18.5t1.5 32q0 16 11.5 27t27.5 11h73zM222 817q0 -33 -4.5 -52.5t-12.5 -30t-18.5 -13.5t-22.5 -3t-23 3t-18.5 13.5t-12 30t-4.5 52.5
h-72q0 -43 6.5 -71t22 -44.5t40.5 -23t63 -6.5q33 0 57.5 6.5t40 23t23.5 44.5t8 71h-73zM190 133q-9 -25 -32 -25q-32 0 -32 36v61q0 24 1 42.5t7 32.5t19 25t37 20v-192zM272 38q-5 18 -5 51v436q0 117 -107 117q-104 0 -104 -117v-126h70v125q0 18 6 28t26 10
q32 0 32 -38v-134q-30 -14 -56 -27.5t-45.5 -33t-30.5 -48t-11 -70.5v-87q0 -50 21 -72t61 -22q23 0 39 10.5t27 30.5q0 -22 4 -33h73z" />
    <glyph glyph-name="Aogonek" unicode="&#x104;" horiz-adv-x="377" 
d="M404 -9q0 -65 -32 -99.5t-115 -34.5q-52 0 -86.5 26.5t-34.5 78.5q0 25 12 48q-12 -10 -25 -10h-87q-19 0 -28.5 12.5t-9.5 30.5l103 790q2 14 13 24t25 10h103q14 0 25 -10t13 -24l97 -795q12 -3 19.5 -13t7.5 -23v-11zM159 26q19 22 49 35l-7 61h-29l-11 -87zM147 242
q11 88 21.5 177.5t18.5 181.5q9 -92 18.5 -180.5t20.5 -178.5h-79zM366 2h-67v-11q0 -17 -7.5 -28.5t-30.5 -11.5q-17 0 -24 8.5t-7 17.5q0 23 25.5 38t83.5 23l-97 790h-103l-103 -790h87q4 32 7 61.5t8 60.5h97l16 -125q-37 -9 -56.5 -28t-19.5 -45q0 -33 23.5 -50
t58.5 -17q62 0 85.5 25t23.5 71v11z" />
    <glyph glyph-name="aogonek" unicode="&#x105;" horiz-adv-x="327" 
d="M337 -9q0 -65 -32.5 -99.5t-114.5 -34.5q-52 0 -86.5 26.5t-34.5 78.5q0 21 7 38q-67 23 -67 124v87q0 57 14.5 92t39.5 58h-7q-16 0 -27.5 11t-11.5 27v126q0 156 143 156q145 0 145 -156v-436q0 -20 2.5 -31.5t2.5 -19.5q11 -3 19 -13t8 -23v-11zM190 133
q-9 -25 -32 -25q-32 0 -32 36v61q0 24 1 42.5t7 32.5t19 25t37 20v-192zM299 2h-68v-11q0 -17 -7 -28.5t-30 -11.5q-17 0 -24 8.5t-7 17.5q0 23 25.5 38t83.5 23q-5 18 -5 51v436q0 117 -107 117q-104 0 -104 -117v-126h70v125q0 18 6 28t26 10q32 0 32 -38v-134
q-30 -14 -56 -27.5t-45.5 -33t-30.5 -48t-11 -70.5v-87q0 -50 21 -72t61 -22q23 0 39 10.5t27 30.5q0 -8 1 -17.5t3 -16.5q-45 -6 -68 -26t-23 -49q0 -33 23.5 -50t58.5 -17q62 0 85.5 25t23.5 71v11z" />
    <glyph glyph-name="Cacute" unicode="&#x106;" horiz-adv-x="351" 
d="M220 524q-12 0 -21.5 6.5t-14.5 16.5v-204q5 11 14.5 17.5t21.5 6.5h80q17 0 28 -11.5t11 -27.5v-163q0 -89 -37 -131.5t-119 -42.5q-166 0 -166 172v538q0 109 65 150q-2 6 -2 10q0 10 7 24l106 155q4 5 14 11t18 6h102q18 0 29 -11t11 -26q0 -13 -11 -26l-108 -128
q91 -30 91 -163v-140q0 -17 -11 -28t-28 -11h-80zM196 864l131 155h-102l-106 -155h77zM220 164q0 -46 -37 -46t-37 46v539q0 45 37 45q20 0 28.5 -11t8.5 -34v-140h80v140q0 134 -117 134q-127 0 -127 -136v-538q0 -133 127 -133q62 0 89.5 33t27.5 102v163h-80v-164z" />
    <glyph glyph-name="cacute" unicode="&#x107;" horiz-adv-x="326" 
d="M199 353q-16 0 -27 11v-56q12 12 27 12h75q16 0 27 -11.5t11 -27.5v-132q0 -72 -35.5 -115t-110.5 -43q-77 0 -113 44t-36 116v368q0 44 13 78t40 55q-3 6 -3 13q0 13 8 24l105 155q4 6 14.5 11.5t17.5 5.5h103q18 0 28.5 -11t10.5 -25t-10 -27l-111 -130
q40 -17 58.5 -55.5t18.5 -92.5v-128q0 -16 -11 -27.5t-27 -11.5h-73zM183 668l132 155h-103l-105 -155h76zM199 151q0 -40 -33 -40t-33 40v370q0 39 33 39t33 -38v-130h73v128q0 55 -25 88.5t-81 33.5q-57 0 -83.5 -34t-26.5 -89v-368q0 -55 26.5 -88t83.5 -33q56 0 82 32.5
t26 86.5v132h-75v-130z" />
    <glyph glyph-name="Cdotaccent" unicode="&#x10a;" horiz-adv-x="351" 
d="M220 524q-12 0 -21.5 6.5t-14.5 16.5v-204q5 11 14.5 17.5t21.5 6.5h80q17 0 28 -11.5t11 -27.5v-163q0 -89 -37 -131.5t-119 -42.5q-166 0 -166 172v538q0 126 87 161q-1 4 -1.5 7t-0.5 7v120q0 16 11 27t27 11h80q16 0 27 -11t11 -27v-120q0 -5 -2 -13q83 -35 83 -160
v-140q0 -17 -11 -28t-28 -11h-80zM220 876v120h-80v-120h80zM220 164q0 -46 -37 -46t-37 46v539q0 45 37 45q20 0 28.5 -11t8.5 -34v-140h80v140q0 134 -117 134q-127 0 -127 -136v-538q0 -133 127 -133q62 0 89.5 33t27.5 102v163h-80v-164z" />
    <glyph glyph-name="cdotaccent" unicode="&#x10b;" horiz-adv-x="326" 
d="M199 353q-16 0 -27 11v-56q12 12 27 12h75q16 0 27 -11.5t11 -27.5v-132q0 -72 -35.5 -115t-110.5 -43q-77 0 -113 44t-36 116v368q0 51 17.5 87.5t53.5 56.5q-4 7 -4 17v120q0 16 11.5 27t27.5 11h80q16 0 27 -11t11 -27v-120q0 -8 -3 -15q38 -18 55 -56t17 -89v-128
q0 -16 -11 -27.5t-27 -11.5h-73zM203 680v120h-80v-120h80zM199 151q0 -40 -33 -40t-33 40v370q0 39 33 39t33 -38v-130h73v128q0 55 -25 88.5t-81 33.5q-57 0 -83.5 -34t-26.5 -89v-368q0 -55 26.5 -88t83.5 -33q56 0 82 32.5t26 86.5v132h-75v-130z" />
    <glyph glyph-name="Ccaron" unicode="&#x10c;" horiz-adv-x="351" 
d="M220 524q-12 0 -21.5 6.5t-14.5 16.5v-204q5 11 14.5 17.5t21.5 6.5h80q17 0 28 -11.5t11 -27.5v-163q0 -89 -37 -131.5t-119 -42.5q-166 0 -166 172v538q0 117 74 155l-85 142q-7 10 -7 22q0 15 11 26t28 11h78q8 0 18.5 -6t15.5 -13l32 -56l35 57q5 6 15 12t18 6h74
q18 0 28.5 -11t10.5 -26q0 -12 -7 -23l-89 -140q72 -39 72 -154v-140q0 -17 -11 -28t-28 -11h-80zM226 864l98 155h-74l-69 -112l-65 112h-78l94 -155h94zM220 164q0 -46 -37 -46t-37 46v539q0 45 37 45q20 0 28.5 -11t8.5 -34v-140h80v140q0 134 -117 134q-127 0 -127 -136
v-538q0 -133 127 -133q62 0 89.5 33t27.5 102v163h-80v-164z" />
    <glyph glyph-name="ccaron" unicode="&#x10d;" horiz-adv-x="326" 
d="M199 353q-16 0 -27 11v-56q12 12 27 12h75q16 0 27 -11.5t11 -27.5v-132q0 -72 -35.5 -115t-110.5 -43q-77 0 -113 44t-36 116v368q0 46 14.5 81.5t45.5 55.5l-89 147q-6 9 -6 22q0 14 11 25t28 11h78q8 0 18.5 -5.5t14.5 -13.5l33 -56l35 57q4 7 14 12.5t18 5.5h74
q18 0 29 -11t11 -25q0 -13 -7 -23l-90 -142q32 -20 46.5 -56t14.5 -84v-128q0 -16 -11 -27.5t-27 -11.5h-73zM208 668l98 155h-74l-68 -112l-65 112h-78l93 -155h94zM199 151q0 -40 -33 -40t-33 40v370q0 39 33 39t33 -38v-130h73v128q0 55 -25 88.5t-81 33.5
q-57 0 -83.5 -34t-26.5 -89v-368q0 -55 26.5 -88t83.5 -33q56 0 82 32.5t26 86.5v132h-75v-130z" />
    <glyph glyph-name="Dcaron" unicode="&#x10e;" horiz-adv-x="369" 
d="M61 0q-16 0 -27 11t-11 27v790q0 17 11 28t27 11h23l-79 131q-7 10 -7 22q0 15 11 26t28 11h78q8 0 18.5 -6t15.5 -13l32 -56l35 57q5 6 15 12t18 6h74q18 0 28.5 -11t10.5 -26q0 -12 -7 -23l-92 -145q45 -18 66.5 -58.5t21.5 -100.5v-520q0 -173 -165 -173h-125z
M225 864l98 155h-74l-69 -112l-65 112h-78l94 -155h94zM186 38q127 0 127 135v520q0 64 -31.5 99.5t-95.5 35.5h-125v-790h125zM225 173q0 -46 -39 -46h-36v612h36q39 0 39 -46v-520z" />
    <glyph glyph-name="dcaron" unicode="&#x10f;" horiz-adv-x="428" 
d="M323 612v-574q0 -16 -11.5 -27t-27.5 -11h-67q-10 0 -18 5q-25 -11 -60 -11q-60 0 -91 37t-31 114v388q0 78 31 113t94 35q6 0 12.5 -0.5t11.5 -1.5v149q0 17 11 28t27 11h80q9 0 17 -5q8 5 18 5h82q16 0 27.5 -11t11.5 -28v-116q0 -41 -23 -70.5t-78 -29.5h-16zM339 650
q34 0 48 18t14 44v116h-82v-98h37v-23q0 -21 -18 -21h-9v-36h10zM284 38v790h-80v-214q-22 28 -62 28q-44 0 -65 -25.5t-21 -83.5v-388q0 -112 83 -112q31 0 48.5 10.5t26.5 33.5q0 -21 3 -39h67zM204 145q-5 -14 -15 -20.5t-21 -6.5q-33 0 -33 38v369q0 36 33 36
q11 0 21 -6t15 -20v-390z" />
    <glyph glyph-name="Dcroat" unicode="&#x110;" horiz-adv-x="367" 
d="M60 0q-17 0 -28 11t-11 27v323q-10 5 -17 14t-7 21v90q0 11 7 21t17 14v307q0 17 11 28t28 11h125q84 0 124.5 -46t40.5 -128v-520q0 -173 -165 -173h-125zM224 173q0 -46 -39 -46h-36v269h43v90h-43v253h36q20 0 29.5 -12.5t9.5 -32.5v-521zM185 38q127 0 127 135v520
q0 64 -31.5 99.5t-95.5 35.5h-125v-342h-24v-90h24v-358h125z" />
    <glyph glyph-name="dmacron" unicode="&#x111;" horiz-adv-x="346" 
d="M217 0q-10 0 -18 5q-13 -5 -27.5 -8t-32.5 -3q-60 0 -91 37t-31 114v388q0 97 50 129q-17 12 -17 33v69q0 16 11 27.5t27 11.5h78v25q0 17 11 28t27 11h80q16 0 27.5 -11t11.5 -28v-26q12 -4 20 -14.5t8 -23.5v-69q0 -14 -8 -24.5t-20 -12.5v-620q0 -16 -11.5 -27
t-27.5 -11h-67zM204 145q-5 -14 -15 -20.5t-21 -6.5q-33 0 -33 38v369q0 36 33 36q11 0 21 -6t15 -20v-390zM284 38v657h29v69h-29v64h-80v-64h-116v-69h116v-81q-22 28 -62 28q-44 0 -65 -25.5t-21 -83.5v-388q0 -112 83 -112q31 0 48.5 10.5t26.5 33.5q0 -21 3 -39h67z
" />
    <glyph glyph-name="Emacron" unicode="&#x112;" 
d="M61 0q-16 0 -27 11t-11 27v790q0 24 20 34q-13 2 -22 13t-9 25v70q0 16 11 27t27 11h225q16 0 27 -11t11 -27v-70q0 -12 -7 -21.5t-18 -14.5q11 -4 18 -13.5t7 -22.5v-89q0 -16 -11 -27t-27 -11h-87v-177h45q16 0 27.5 -11t11.5 -27v-90q0 -16 -11.5 -27t-27.5 -11h-45
v-193h91q16 0 27.5 -11t11.5 -27v-89q0 -16 -11.5 -27t-27.5 -11h-218zM275 900v70h-225v-70h225zM279 38v89h-129v269h83v90h-83v253h125v89h-214v-790h218z" />
    <glyph glyph-name="emacron" unicode="&#x113;" 
d="M50 666q-16 0 -27 11.5t-11 27.5v69q0 16 11 27t27 11h225q16 0 27 -11t11 -27v-69q0 -16 -11 -27.5t-27 -11.5h-40q71 -33 71 -146v-196q0 -6 -2 -11.5t-4 -10.5q2 -5 4 -10.5t2 -11.5v-130q0 -159 -146 -159q-143 0 -143 159v370q0 113 69 146h-36zM275 705v69h-225
v-69h225zM193 151q0 -40 -33 -40q-30 0 -30 39v174h138v196q0 122 -108 122q-104 0 -104 -122v-370q0 -120 104 -120q108 0 108 120l7 130h-82v-129zM193 382h-63v138q0 39 30 39q33 0 33 -39v-138z" />
    <glyph glyph-name="Ebreve" unicode="&#x114;" 
d="M293 1051q16 0 27 -11t11 -27q0 -57 -10.5 -92.5t-32.5 -56.5q11 -4 18 -13.5t7 -22.5v-89q0 -16 -11 -27t-27 -11h-87v-177h45q16 0 27.5 -11t11.5 -27v-90q0 -16 -11.5 -27t-27.5 -11h-45v-193h91q16 0 27.5 -11t11.5 -27v-89q0 -16 -11.5 -27t-27.5 -11h-218
q-16 0 -27 11t-11 27v790q0 19 15 31q-24 20 -34.5 57t-10.5 97q0 16 11.5 27t27.5 11h72q16 0 27 -11t11 -27q0 -20 1.5 -32t4.5 -18.5t6.5 -8.5t7.5 -2t7.5 2t6 8.5t4 18.5t1.5 32q0 16 11.5 27t27.5 11h73zM220 1013q0 -33 -4.5 -52.5t-12.5 -30t-18.5 -13.5t-22.5 -3
t-23 3t-18.5 13.5t-12 30t-4.5 52.5h-72q0 -43 6.5 -71t22 -44.5t40.5 -23t63 -6.5q33 0 57.5 6.5t40 23t23.5 44.5t8 71h-73zM279 38v89h-129v269h83v90h-83v253h125v89h-214v-790h218z" />
    <glyph glyph-name="ebreve" unicode="&#x115;" 
d="M293 855q16 0 27 -11t11 -27q0 -72 -17.5 -111t-53.5 -56q46 -40 46 -130v-196q0 -6 -2 -11.5t-4 -10.5q2 -5 4 -10.5t2 -11.5v-130q0 -159 -146 -159q-143 0 -143 159v370q0 90 44 129q-37 17 -52.5 56t-15.5 112q0 16 11.5 27t27.5 11h72q16 0 27 -11t11 -27
q0 -20 1.5 -32t4.5 -18.5t6.5 -8.5t7.5 -2t7.5 2t6 8.5t4 18.5t1.5 32q0 16 11.5 27t27.5 11h73zM220 817q0 -33 -4.5 -52.5t-12.5 -30t-18.5 -13.5t-22.5 -3t-23 3t-18.5 13.5t-12 30t-4.5 52.5h-72q0 -43 6.5 -71t22 -44.5t40.5 -23t63 -6.5q33 0 57.5 6.5t40 23
t23.5 44.5t8 71h-73zM193 151q0 -40 -33 -40q-30 0 -30 39v174h138v196q0 122 -108 122q-104 0 -104 -122v-370q0 -120 104 -120q108 0 108 120v130h-75v-129zM193 382h-63v138q0 39 30 39q33 0 33 -39v-138z" />
    <glyph glyph-name="Edotaccent" unicode="&#x116;" 
d="M61 0q-16 0 -27 11t-11 27v790q0 17 11 28t27 11h28q-1 3 -1 9v120q0 16 11.5 27t27.5 11h79q17 0 28 -11t11 -27v-120q0 -2 -0.5 -4.5t-0.5 -4.5h31q16 0 27 -11t11 -28v-89q0 -16 -11 -27t-27 -11h-87v-177h45q16 0 27.5 -11t11.5 -27v-90q0 -16 -11.5 -27t-27.5 -11
h-45v-193h91q16 0 27.5 -11t11.5 -27v-89q0 -16 -11.5 -27t-27.5 -11h-218zM206 876v120h-79v-120h79zM279 38v89h-129v269h83v90h-83v253h125v89h-214v-790h218z" />
    <glyph glyph-name="edotaccent" unicode="&#x117;" 
d="M306 324q0 -6 -2 -11.5t-4 -10.5q2 -5 4 -10.5t2 -11.5v-130q0 -159 -146 -159q-143 0 -143 159v370q0 112 68 145q-1 5 -1 15v120q0 16 11 27t27 11h80q16 0 27 -11t11 -27v-120q0 -9 -3 -15q69 -35 69 -145v-196zM202 680v120h-80v-120h80zM193 151q0 -40 -33 -40
q-30 0 -30 39v174h138v196q0 122 -108 122q-104 0 -104 -122v-370q0 -120 104 -120q108 0 108 120v130h-75v-129zM193 382h-63v138q0 39 30 39q33 0 33 -39v-138z" />
    <glyph glyph-name="Eogonek" unicode="&#x118;" 
d="M345 -9q0 -65 -32.5 -99.5t-114.5 -34.5q-52 0 -86.5 26.5t-34.5 78.5q0 21 7 38h-23q-16 0 -27 11t-11 27v790q0 17 11 28t27 11h214q16 0 27 -11t11 -28v-89q0 -16 -11 -27t-27 -11h-87v-177h45q16 0 27.5 -11t11.5 -27v-90q0 -16 -11.5 -27t-27.5 -11h-45v-193h91
q16 0 27.5 -11t11.5 -27v-89q11 -3 19 -13t8 -23v-11zM306 2h-67v-11q0 -17 -7.5 -28.5t-29.5 -11.5q-17 0 -24 8.5t-7 17.5q0 23 25.5 38t82.5 23v89h-129v269h83v90h-83v253h125v89h-214v-790h156q-49 -5 -75.5 -25t-26.5 -51q0 -33 24 -50t59 -17q61 0 84.5 25t23.5 71
v11z" />
    <glyph glyph-name="eogonek" unicode="&#x119;" 
d="M306 -9q0 -65 -32 -99.5t-115 -34.5q-52 0 -86.5 26.5t-34.5 78.5q0 36 22 63q-26 20 -34.5 48.5t-8.5 76.5v370q0 161 143 161q146 0 146 -161v-196q0 -6 -2 -11.5t-4 -10.5q2 -5 4 -10.5t2 -11.5v-130q0 -73 -32 -111q14 -2 23 -12.5t9 -24.5v-11zM193 382h-63v138
q0 39 30 39q33 0 33 -39v-138zM268 2h-67v-11q0 -17 -7.5 -28.5t-30.5 -11.5q-17 0 -24 8.5t-7 17.5q0 18 15 33.5t40 22.5q41 11 61 38t20 79v130h-75v-129q0 -40 -33 -40q-30 0 -30 39v174h138v196q0 122 -108 122q-104 0 -104 -122v-370q0 -109 84 -118
q-31 -10 -47 -28.5t-16 -41.5q0 -33 23.5 -50t58.5 -17q62 0 85.5 25t23.5 71v11z" />
    <glyph glyph-name="Ecaron" unicode="&#x11a;" 
d="M61 0q-16 0 -27 11t-11 27v790q0 17 11 28t27 11h9l-79 131q-6 10 -6 22q0 15 11 26t28 11h78q8 0 18.5 -6t14.5 -13l33 -56l35 57q4 6 14 12t18 6h74q18 0 28.5 -11t10.5 -26q0 -13 -6 -23l-83 -130h16q16 0 27 -11t11 -28v-89q0 -16 -11 -27t-27 -11h-87v-177h45
q16 0 27.5 -11t11.5 -27v-90q0 -16 -11.5 -27t-27.5 -11h-45v-193h91q16 0 27.5 -11t11.5 -27v-89q0 -16 -11.5 -27t-27.5 -11h-218zM211 864l98 155h-74l-68 -112l-65 112h-78l93 -155h94zM279 38v89h-129v269h83v90h-83v253h125v89h-214v-790h218z" />
    <glyph glyph-name="ecaron" unicode="&#x11b;" 
d="M306 324q0 -6 -2 -11.5t-4 -10.5q2 -5 4 -10.5t2 -11.5v-130q0 -159 -146 -159q-143 0 -143 159v370q0 101 56 139l-86 144q-7 8 -7 22t11 25t28 11h78q8 0 18.5 -5.5t15.5 -13.5l32 -56l35 57q5 7 14.5 12.5t17.5 5.5h74q18 0 29 -11t11 -25q0 -13 -7 -23l-90 -142
q59 -38 59 -140v-196zM206 668l98 155h-74l-68 -112l-65 112h-78l93 -155h94zM193 151q0 -40 -33 -40q-30 0 -30 39v174h138v196q0 122 -108 122q-104 0 -104 -122v-370q0 -120 104 -120q108 0 108 120v130h-75v-129zM193 382h-63v138q0 39 30 39q33 0 33 -39v-138z" />
    <glyph glyph-name="Gbreve" unicode="&#x11e;" horiz-adv-x="365" 
d="M313 1051q16 0 27 -11t11 -27q0 -70 -16 -108.5t-50 -56.5q58 -42 58 -146v-139q0 -17 -11.5 -28t-27.5 -11h-84q-14 0 -24.5 8.5t-13.5 20.5v-102h128q16 0 27 -11t11 -27v-379q0 -17 -11 -28t-27 -11h-10q-5 0 -16 6t-15 10l-3 3q-20 -11 -43.5 -17t-46.5 -6
q-34 0 -63 9t-50.5 29t-33.5 53.5t-12 81.5v538q0 103 60 145q-35 17 -49.5 56t-14.5 110q0 16 11.5 27t27.5 11h72q16 0 27 -11t11 -27q0 -20 1.5 -32t4.5 -18.5t6.5 -8.5t7.5 -2t7.5 2t6.5 8.5t4.5 18.5t1.5 32q0 16 11 27t27 11h73zM310 34v379h-132v-85h47v-170
q-3 -40 -44 -40q-17 0 -27 11t-10 35v539q0 45 38 45q43 0 43 -45v-140h79v139q0 66 -28.5 100.5t-93.5 34.5q-63 0 -94.5 -34.5t-31.5 -100.5v-538q0 -38 9 -63.5t25.5 -41.5t38 -22.5t47.5 -6.5q29 0 55 9t40 32l29 -37h10zM240 1013q0 -33 -4.5 -52.5t-12.5 -30
t-18.5 -13.5t-22.5 -3t-23 3t-18.5 13.5t-12 30t-4.5 52.5h-72q0 -43 6.5 -71t22 -44.5t40.5 -23t63 -6.5q33 0 57.5 6.5t40.5 23t23.5 44.5t7.5 71h-73z" />
    <glyph glyph-name="gbreve" unicode="&#x11f;" horiz-adv-x="346" 
d="M303 855q16 0 27.5 -11t11.5 -27q0 -57 -11 -93t-32 -56q10 -5 17 -14.5t7 -20.5v-625q0 -74 -36 -112.5t-113 -38.5q-42 0 -71 10t-46 29t-24.5 47.5t-7.5 64.5v24q0 23 20 33q-28 37 -28 110v351q0 47 12 78.5t34 49.5q-32 18 -45.5 56t-13.5 107q0 16 11 27t27 11h72
q16 0 27.5 -11t11.5 -27q0 -20 1.5 -32t4 -18.5t6 -8.5t8.5 -2q4 0 7.5 2t6 8.5t4 18.5t1.5 32q0 16 11 27t27 11h73zM230 817q0 -33 -4.5 -52.5t-12.5 -30t-18 -13.5t-22 -3q-13 0 -23.5 3t-18.5 13.5t-12.5 30t-4.5 52.5h-72q0 -43 6.5 -71t22.5 -44.5t41 -23t63 -6.5
q33 0 57 6.5t40 23t23.5 44.5t7.5 71h-73zM207 169q-12 -26 -39 -26q-34 0 -34 36v338q0 35 34 35q28 0 39 -26v-357zM207 4q0 -39 -35 -39q-37 0 -37 39v28h-72v-24q0 -54 24 -83.5t87 -29.5q57 0 83.5 29t26.5 84v625h-67q-3 -18 -3 -39q-11 23 -28.5 33.5t-46.5 10.5
q-83 0 -83 -112v-351q0 -58 20.5 -83.5t64.5 -25.5q43 0 66 28v-90z" />
    <glyph glyph-name="Gdotaccent" unicode="&#x120;" horiz-adv-x="365" 
d="M222 876v120h-80v-120h80zM310 34v379h-132v-85h47v-170q-3 -40 -44 -40q-17 0 -27 11t-10 35v539q0 45 38 45q43 0 43 -45v-140h79v139q0 66 -28.5 100.5t-93.5 34.5q-63 0 -94.5 -34.5t-31.5 -100.5v-538q0 -38 9 -63.5t25.5 -41.5t38 -22.5t47.5 -6.5q29 0 55 9t40 32
l29 -37h10zM300 -5q-5 0 -16 6t-15 10l-3 3q-20 -11 -43.5 -17t-46.5 -6q-34 0 -63 9t-50.5 29t-33.5 53.5t-12 81.5v538q0 62 22 102.5t67 57.5q-1 4 -1.5 7t-0.5 7v120q0 16 11 27t27 11h80q16 0 27 -11t11 -27v-120q0 -7 -3 -14q45 -17 65.5 -57.5t20.5 -102.5v-139
q0 -17 -11.5 -28t-27.5 -11h-84q-14 0 -24.5 8.5t-13.5 20.5v-102h128q16 0 27 -11t11 -27v-379q0 -17 -11 -28t-27 -11h-10z" />
    <glyph glyph-name="gdotaccent" unicode="&#x121;" horiz-adv-x="346" 
d="M25 32q0 23 20 33q-28 37 -28 110v351q0 120 78 144q-1 3 -1 10v120q0 16 11 27t27 11h80q16 0 27.5 -11t11.5 -27v-120q0 -2 -0.5 -4.5t-0.5 -4.5h34q16 0 27.5 -11t11.5 -27v-625q0 -74 -36 -112.5t-113 -38.5q-42 0 -71 10t-46 29t-24.5 47.5t-7.5 64.5v24zM212 680
v120h-80v-120h80zM207 169q-12 -26 -39 -26q-34 0 -34 36v338q0 35 34 35q28 0 39 -26v-357zM207 4q0 -39 -35 -39q-37 0 -37 39v28h-72v-24q0 -54 24 -83.5t87 -29.5q57 0 83.5 29t26.5 84v625h-67q-3 -18 -3 -39q-11 23 -28.5 33.5t-46.5 10.5q-83 0 -83 -112v-351
q0 -58 20.5 -83.5t64.5 -25.5q43 0 66 28v-90z" />
    <glyph glyph-name="Gcommaaccent" unicode="&#x122;" horiz-adv-x="365" 
d="M161 -143q-16 0 -27 11t-11 27v32q-8 11 -8 23v50q-44 13 -71 51t-27 113v538q0 85 41 129.5t124 44.5q85 0 123 -44.5t38 -129.5v-139q0 -17 -11.5 -28t-27.5 -11h-83q-15 0 -26 9.5t-13 23.5v-106h128q16 0 27 -11t11 -27v-379q0 -17 -11 -28t-27 -11h-10q-5 0 -16 6
t-15 10l-3 3l-8 -3v-76q0 -35 -19 -56.5t-61 -21.5h-17zM310 34v379h-132v-85h47v-170q-3 -40 -44 -40q-17 0 -27 11t-10 35v539q0 45 38 45q43 0 43 -45v-140h79v139q0 66 -28.5 100.5t-93.5 34.5q-63 0 -94.5 -34.5t-31.5 -100.5v-538q0 -38 9 -63.5t25.5 -41.5t38 -22.5
t47.5 -6.5q29 0 55 9t40 32l29 -37h10zM178 -105q22 0 32 11t10 29v84h-66v-69h31v-16q0 -12 -10 -12h-14v-27h17z" />
    <glyph glyph-name="gcommaaccent" unicode="&#x123;" horiz-adv-x="346" 
d="M203 829q16 0 27 -11t11 -27v-32q8 -10 8 -23v-65h35q16 0 27.5 -11t11.5 -27v-625q0 -74 -36 -112.5t-113 -38.5q-42 0 -71 10t-46 29t-24.5 47.5t-7.5 64.5v24q0 23 20 33q-28 37 -28 110v351q0 127 89 147v79q0 35 19 56t61 21h17zM186 791q-23 0 -32.5 -10.5
t-9.5 -28.5v-85h66v69h-31v17q0 11 10 11h14v27h-17zM207 169q-12 -26 -39 -26q-34 0 -34 36v338q0 35 34 35q28 0 39 -26v-357zM207 4q0 -39 -35 -39q-37 0 -37 39v28h-72v-24q0 -54 24 -83.5t87 -29.5q57 0 83.5 29t26.5 84v625h-67q-3 -18 -3 -39q-11 23 -28.5 33.5
t-46.5 10.5q-83 0 -83 -112v-351q0 -58 20.5 -83.5t64.5 -25.5q43 0 66 28v-90z" />
    <glyph glyph-name="Hbar" unicode="&#x126;" horiz-adv-x="374" 
d="M225 0q-14 0 -24.5 8t-13.5 22q-4 -14 -14 -22t-23 -8h-89q-16 0 -27 11t-11 27v790q0 17 11 28t27 11h89q13 0 23 -8.5t14 -21.5q3 13 13.5 21.5t24.5 8.5h88q16 0 27 -11t11 -28v-790q0 -16 -11 -27t-27 -11h-88zM150 485v128h75v-128h-75zM313 38v790h-88v-145h-75
v145h-89v-790h89v358h75v-358h88z" />
    <glyph glyph-name="hbar" unicode="&#x127;" horiz-adv-x="345" 
d="M297 695q0 -10 -5.5 -19t-13.5 -14q47 -34 47 -129v-495q0 -16 -11 -27t-27 -11h-81q-10 0 -18.5 5t-13.5 13q-5 -8 -13.5 -13t-19.5 -5h-80q-16 0 -27 11t-11 27v620q-11 3 -19.5 13.5t-8.5 23.5v69q0 13 8.5 23t19.5 14v27q0 17 11 28t27 11h80q16 0 27.5 -11t11.5 -28
v-25h78q16 0 27.5 -11.5t11.5 -27.5v-69zM258 695v69h-117v64h-80v-64h-27v-69h27v-657h80v502q6 13 16 18.5t21 5.5q28 0 28 -36v-490h81v495q0 109 -75 109q-44 0 -71 -33v86h117z" />
    <glyph glyph-name="uni012A" unicode="&#x12a;" horiz-adv-x="215" 
d="M-5 862q-16 0 -27 11t-11 27v70q0 16 11 27t27 11h225q16 0 27 -11t11 -27v-70q0 -16 -11 -27t-27 -11h-50q8 -5 14 -14t6 -20v-790q0 -16 -11 -27t-27 -11h-89q-16 0 -27 11t-11 27v790q0 11 5.5 20t13.5 14h-49zM220 900v70h-225v-70h225zM152 38v790h-89v-790h89z" />
    <glyph glyph-name="imacron" unicode="&#x12b;" horiz-adv-x="230" 
d="M2 666q-16 0 -27 11.5t-11 27.5v69q0 16 11 27t27 11h225q16 0 27 -11t11 -27v-69q0 -16 -11 -27.5t-27 -11.5h-54q8 -5 14 -13.5t6 -19.5v-595q0 -16 -11 -27t-27 -11h-80q-16 0 -27.5 11t-11.5 27v595q0 23 20 33h-54zM227 705v69h-225v-69h225zM155 38v595h-80v-595
h80z" />
    <glyph glyph-name="Ibreve" unicode="&#x12c;" horiz-adv-x="215" 
d="M238 1051q16 0 27 -11t11 -27q0 -81 -20 -120.5t-66 -53.5v-801q0 -16 -11 -27t-27 -11h-89q-16 0 -27 11t-11 27v800q-48 13 -67 53t-19 122q0 16 11 27t27 11h72q16 0 27 -11t11 -27q0 -20 1.5 -32t4.5 -18.5t6.5 -8.5t8.5 -2q4 0 7.5 2t6 8.5t4 18.5t1.5 32
q0 16 11 27t27 11h73zM165 1013q0 -33 -4.5 -52.5t-12.5 -30t-18 -13.5t-22 -3q-13 0 -23.5 3t-18.5 13.5t-12.5 30t-4.5 52.5h-72q0 -43 6.5 -71t22 -44.5t41 -23t62.5 -6.5q33 0 57.5 6.5t40.5 23t23.5 44.5t7.5 71h-73zM152 38v790h-89v-790h89z" />
    <glyph glyph-name="ibreve" unicode="&#x12d;" horiz-adv-x="257" 
d="M258 855q16 0 27.5 -11t11.5 -27q0 -82 -22.5 -121.5t-69.5 -53.5q1 -3 1 -9v-595q0 -16 -11 -27t-27 -11h-80q-16 0 -27 11t-11 27v595q0 5 1 8q-51 13 -71.5 53t-20.5 123q0 16 11 27t27 11h72q16 0 27.5 -11t11.5 -27q0 -20 1.5 -32t4 -18.5t6 -8.5t8.5 -2q4 0 7.5 2
t6 8.5t4 18.5t1.5 32q0 16 11 27t27 11h73zM185 817q0 -33 -4.5 -52.5t-12.5 -30t-18 -13.5t-22 -3q-13 0 -23.5 3t-18.5 13.5t-12.5 30t-4.5 52.5h-72q0 -43 6.5 -71t22.5 -44.5t41 -23t63 -6.5q33 0 57 6.5t40 23t23.5 44.5t7.5 71h-73zM168 38v595h-80v-595h80z" />
    <glyph glyph-name="Iogonek" unicode="&#x12e;" horiz-adv-x="215" 
d="M217 -9q0 -65 -32.5 -99.5t-114.5 -34.5q-52 0 -86.5 26.5t-34.5 78.5q0 33 20.5 59.5t55.5 41.5v765q0 17 11 28t27 11h89q16 0 27 -11t11 -28v-790q11 -3 19 -13t8 -23v-11zM179 2h-68v-11q0 -17 -7 -28.5t-30 -11.5q-17 0 -24 8.5t-7 17.5q0 23 25.5 38t83.5 23v790
h-89v-793q-37 -9 -56 -28t-19 -45q0 -33 23.5 -50t58.5 -17q62 0 85.5 25t23.5 71v11z" />
    <glyph glyph-name="iogonek" unicode="&#x12f;" horiz-adv-x="205" 
d="M208 -9q0 -65 -32 -99.5t-115 -34.5q-52 0 -86.5 26.5t-34.5 78.5q0 36 21.5 63t63.5 41v567q0 14 9 24.5t23 12.5q-14 2 -23 13t-9 25v120q0 17 11 28t27 11h80q16 0 27 -11t11 -28v-120q0 -14 -9 -25t-23 -13q14 -2 23 -12.5t9 -24.5v-595q12 -3 19.5 -13t7.5 -23v-11z
M143 708v120h-80v-120h80zM170 2h-67v-11q0 -17 -7.5 -28.5t-30.5 -11.5q-17 0 -23.5 8.5t-6.5 17.5q0 23 25 38t83 23v595h-80v-597q-40 -8 -62 -27t-22 -47q0 -33 23.5 -50t58.5 -17q62 0 85.5 25t23.5 71v11z" />
    <glyph glyph-name="Idotaccent" unicode="&#x130;" horiz-adv-x="215" 
d="M63 0q-16 0 -27 11t-11 27v790q0 16 10 26q-6 9 -6 22v120q0 16 11 27t27 11h80q16 0 27 -11t11 -27v-120q0 -11 -5 -21q10 -10 10 -27v-790q0 -16 -11 -27t-27 -11h-89zM147 876v120h-80v-120h80zM152 38v790h-89v-790h89z" />
    <glyph glyph-name="dotlessi" unicode="&#x131;" horiz-adv-x="205" 
d="M63 0q-16 0 -27 11t-11 27v595q0 16 11 27t27 11h80q16 0 27 -11t11 -27v-595q0 -16 -11 -27t-27 -11h-80zM143 38v595h-80v-595h80z" />
    <glyph glyph-name="IJ" unicode="&#x132;" horiz-adv-x="423" 
d="M63 0q-16 0 -27 11t-11 27v790q0 17 11 28t27 11h89q16 0 27 -11t11 -28v-663q11 0 16 -2.5t22 -2.5q10 0 10 10v658q0 17 11 28t27 11h90q16 0 27 -11t11 -28v-658q0 -93 -41.5 -134.5t-122.5 -41.5q-49 0 -66 14q-10 -8 -22 -8h-89zM197 38q8 -2 18.5 -3.5t24.5 -1.5
q62 0 94 32.5t32 104.5v658h-90v-658q0 -48 -36 -48q-25 0 -43 5v-89zM152 38v790h-89v-790h89z" />
    <glyph glyph-name="ij" unicode="&#x133;" horiz-adv-x="371" 
d="M117 -16q0 8 3 16h-57q-16 0 -27 11t-11 27v595q0 14 9 24.5t23 12.5q-14 2 -23 13t-9 25v120q0 17 11 28t27 11h80q16 0 27 -11t11 -28v-120q0 -14 -9 -25t-23 -13q14 -2 23 -12.5t9 -24.5v-595q0 -5 -1 -9.5t-4 -9.5q3 0 6.5 -0.5t7.5 -0.5q-1 1 -1 8v607q0 14 9 24.5
t23 12.5q-14 2 -23 13t-9 25v120q0 17 11 28t28 11h79q16 0 27.5 -11t11.5 -28v-120q0 -14 -9.5 -25t-23.5 -13q14 -2 23.5 -12.5t9.5 -24.5v-607q0 -87 -39 -125.5t-116 -38.5q-32 0 -53 8t-21 34v80zM307 708v120h-79v-120h79zM156 -96q13 -4 35 -4q58 0 87 30t29 96v607
h-79v-607q0 -46 -37 -46q-9 0 -18 1t-17 3v-80zM143 38v595h-80v-595h80zM143 708v120h-80v-120h80z" />
    <glyph glyph-name="Kcommaaccent" unicode="&#x136;" horiz-adv-x="391" 
d="M183 -143q-16 0 -27 11t-11 27v32q-8 11 -8 23v50h-77q-16 0 -27 11t-11 27v790q0 17 11 28t27 11h90q16 0 27 -11t11 -28v-82l32 95q3 10 14 18t22 8h95q17 0 28.5 -10t11.5 -27q0 -7 -3 -14l-123 -346l132 -420q2 -10 2 -14q0 -15 -10.5 -25.5t-27.5 -10.5h-81v-65
q0 -35 -19 -56.5t-61 -21.5h-17zM188 58h25q-7 21 -13 42t-12 44v-86zM200 -105q22 0 32 11t10 29v84h-66v-69h31v-16q0 -12 -10 -12h-14v-27h17zM361 38l-136 434l126 356h-95q-28 -85 -55 -167t-53 -169q2 22 2 44.5v48.5v80v163h-90v-790h90v166v95v62t-2 59
q28 -95 55 -189t56 -193h102z" />
    <glyph glyph-name="kcommaaccent" unicode="&#x137;" horiz-adv-x="342" 
d="M155 -143q-17 0 -28 11t-11 27v32q-8 11 -8 23v50h-48q-16 0 -27 11t-11 27v790q0 17 11 28t27 11h79q16 0 27.5 -11t11.5 -28v-209l9 27q4 11 15 18t22 7h82q17 0 28.5 -10.5t11.5 -25.5q0 -8 -3 -15l-91 -249l94 -322q2 -8 2 -13q0 -15 -11 -25.5t-28 -10.5h-57v-65
q0 -35 -19 -56.5t-62 -21.5h-16zM171 -105q23 0 32.5 11t9.5 29v84h-66v-69h32v-16q0 -12 -11 -12h-13v-27h16zM309 38l-97 335l94 260h-82q-27 -75 -49 -139.5t-37 -113.5q0 33 0.5 63t0.5 74v311h-79v-790h79v142v47t-0.5 39.5t-0.5 36v37.5q5 -18 10 -36.5t14 -50
t23 -82.5t37 -133h87z" />
    <glyph glyph-name="Lacute" unicode="&#x139;" horiz-adv-x="315" 
d="M61 0q-16 0 -27 11t-11 27v790q0 2 0.5 4t0.5 4q-11 11 -11 25q0 11 8 24l106 155q4 5 14 11t17 6h103q18 0 28.5 -11t10.5 -26t-10 -26l-115 -136q13 -11 13 -30v-663h91q16 0 27.5 -11t11.5 -27v-89q0 -16 -11.5 -27t-27.5 -11h-218zM130 864l131 155h-103l-105 -155
h77zM279 38v89h-129v701h-89v-790h218z" />
    <glyph glyph-name="lacute" unicode="&#x13a;" horiz-adv-x="203" 
d="M61 0q-16 0 -27 11t-11 27v793q-17 11 -17 30q0 10 7 24l106 155q4 5 14 11t18 6h102q18 0 29 -11t11 -26q0 -13 -11 -26l-116 -137q14 -9 14 -29v-790q0 -16 -11.5 -27t-27.5 -11h-80zM122 864l131 155h-102l-106 -155h77zM141 38v790h-80v-790h80z" />
    <glyph glyph-name="Lcommaaccent" unicode="&#x13b;" horiz-adv-x="315" 
d="M145 -143q-16 0 -27 11t-11 27v32q-8 11 -8 23v50h-38q-16 0 -27 11t-11 27v790q0 17 11 28t27 11h89q16 0 27 -11t11 -28v-663h91q16 0 27.5 -11t11.5 -27v-89q0 -16 -11.5 -27t-27.5 -11h-37v-65q0 -35 -19 -56.5t-62 -21.5h-16zM161 -105q23 0 33 11t10 29v84h-67v-69
h32v-16q0 -12 -11 -12h-13v-27h16zM279 38v89h-129v701h-89v-790h218z" />
    <glyph glyph-name="lcommaaccent" unicode="&#x13c;" horiz-adv-x="203" 
d="M77 -143q-16 0 -27.5 11t-11.5 27v32q-7 12 -7 23v65q-8 11 -8 23v790q0 17 11 28t27 11h80q16 0 27.5 -11t11.5 -28v-790q0 -11 -6 -20v-83q0 -35 -19 -56.5t-62 -21.5h-16zM93 -105q23 0 32.5 11t9.5 29v84h-66v-69h32v-16q0 -12 -11 -12h-13v-27h16zM141 38v790h-80
v-790h80z" />
    <glyph glyph-name="Lcaron" unicode="&#x13d;" horiz-adv-x="321" 
d="M222 612q-23 0 -34 19v-466h91q16 0 27.5 -11t11.5 -27v-89q0 -16 -11.5 -27t-27.5 -11h-218q-16 0 -27 11t-11 27v790q0 17 11 28t27 11h89q9 0 17 -4.5t13 -10.5q5 6 13.5 10.5t17.5 4.5h83q16 0 27 -11t11 -28v-116q0 -41 -23 -70.5t-78 -29.5h-9zM231 650
q34 0 48.5 18t14.5 44v116h-83v-98h38v-23q0 -21 -19 -21h-8v-36h9zM279 38v89h-129v701h-89v-790h218z" />
    <glyph glyph-name="lcaron" unicode="&#x13e;" horiz-adv-x="285" 
d="M180 612v-574q0 -16 -11.5 -27t-27.5 -11h-80q-16 0 -27 11t-11 27v790q0 17 11 28t27 11h80q9 0 17 -5q8 5 18 5h82q16 0 27.5 -11t11.5 -28v-116q0 -41 -23 -70.5t-78 -29.5h-16zM196 650q34 0 48 18t14 44v116h-82v-98h37v-23q0 -21 -18 -21h-9v-36h10zM141 38v790
h-80v-790h80z" />
    <glyph glyph-name="Ldot" unicode="&#x13f;" horiz-adv-x="315" 
d="M61 0q-16 0 -27 11t-11 27v790q0 17 11 28t27 11h89q16 0 27 -11t11 -28v-307h70q16 0 27.5 -11t11.5 -27v-120q0 -16 -11.5 -27.5t-27.5 -11.5h-70v-159h91q16 0 27.5 -11t11.5 -27v-89q0 -16 -11.5 -27t-27.5 -11h-218zM258 363v120h-79v-120h79zM279 38v89h-129v701
h-89v-790h218z" />
    <glyph glyph-name="ldot" unicode="&#x140;" horiz-adv-x="282" 
d="M61 0q-16 0 -27 11t-11 27v790q0 17 11 28t27 11h80q16 0 27.5 -11t11.5 -28v-318h75q16 0 27.5 -11.5t11.5 -27.5v-120q0 -16 -11.5 -27t-27.5 -11h-75v-275q0 -16 -11.5 -27t-27.5 -11h-80zM255 351v120h-79v-120h79zM141 38v790h-80v-790h80z" />
    <glyph glyph-name="Lslash" unicode="&#x141;" horiz-adv-x="319" 
d="M63 0q-16 0 -27 11t-11 27v414q-17 2 -28 19l-30 49q-5 10 -5 20q0 20 19 32l44 26v230q0 17 11 28t27 11h90q16 0 27 -11t11 -28v-131q8 2 13 2q21 0 33 -20l28 -49q4 -8 4 -18q0 -22 -18 -33l-60 -37v-377h90q16 0 27.5 -11t11.5 -27v-89q0 -16 -11.5 -27t-27.5 -11
h-218zM281 38v89h-128v437l78 48l-27 48l-51 -31v199h-90v-251l-63 -37l30 -49l33 21v-474h218z" />
    <glyph glyph-name="lslash" unicode="&#x142;" horiz-adv-x="260" 
d="M91 0q-16 0 -27 11t-11 27v418q-4 -2 -14 -2q-9 0 -18 4.5t-14 13.5l-29 47q-6 9 -6 21q0 21 19 33l62 37v218q0 17 11 28t27 11h81q16 0 27 -11t11 -28v-128q8 2 12 2q9 0 18 -5t14 -13l30 -48q6 -9 6 -19t-5.5 -19t-13.5 -14l-61 -38v-508q0 -16 -11 -27t-27 -11h-81z
M172 38v530l80 48l-30 48l-50 -30v194h-81v-241l-80 -47l28 -48l52 30v-484h81z" />
    <glyph glyph-name="Nacute" unicode="&#x143;" horiz-adv-x="395" 
d="M249 0q-13 0 -24 9t-14 22l-38 176v-169q0 -16 -11 -27t-28 -11h-75q-17 0 -28 11t-11 27v790q0 17 11 28t28 11h43q1 5 3 9t4 9l106 155q4 5 14 11t18 6h102q18 0 29 -11t11 -26q0 -13 -11 -26l-108 -127h65q16 0 27 -11t11 -28v-790q0 -16 -11 -27t-27 -11h-86z
M221 715v111h-19zM218 864l131 155h-102l-106 -155h77zM335 38v790h-76v-268v-107v-80t2 -81q-9 46 -18 94.5t-20.5 110t-26.5 141.5t-34 190h-103v-790h75v205v130v97.5t-2 97.5q10 -48 21 -98.5t25 -112.5l31.5 -139.5t39.5 -179.5h86z" />
    <glyph glyph-name="nacute" unicode="&#x144;" horiz-adv-x="345" 
d="M206 0q-10 0 -18.5 5t-13.5 13q-5 -8 -13.5 -13t-19.5 -5h-80q-16 0 -27 11t-11 27v595q0 16 11 27t27 11h16q1 9 7 18l106 155q4 6 14 11.5t18 5.5h102q18 0 29 -11t11 -25t-11 -27l-103 -122q75 -24 75 -143v-495q0 -16 -11 -27t-27 -11h-81zM193 668l131 155h-102
l-106 -155h77zM287 38v495q0 109 -76 109q-51 0 -79 -48q0 21 -3 39h-68v-595h80v502q6 13 16 18.5t21 5.5q28 0 28 -36v-490h81z" />
    <glyph glyph-name="Ncommaaccent" unicode="&#x145;" horiz-adv-x="395" 
d="M172 -143q-16 0 -27.5 11t-11.5 27v32q-7 12 -7 23v50h-67q-17 0 -28 11t-11 27v790q0 17 11 28t28 11h103q14 0 25 -9.5t13 -22.5l21 -120v113q0 17 11 28t27 11h76q16 0 27 -11t11 -28v-790q0 -16 -11 -27t-27 -11h-66v-65q0 -35 -19 -56.5t-62 -21.5h-16zM173 58h32
l-32 149v-149zM188 -105q23 0 32.5 11t9.5 29v84h-66v-69h32v-16q0 -12 -11 -12h-12l-1 -27h16zM335 38v790h-76v-268v-107v-80t2 -81q-9 46 -18 94.5t-20.5 110t-26.5 141.5t-34 190h-103v-790h75v205v130v97.5t-2 97.5q10 -48 21 -98.5t25 -112.5l31.5 -139.5t39.5 -179.5
h86z" />
    <glyph glyph-name="ncommaaccent" unicode="&#x146;" horiz-adv-x="345" 
d="M150 -143q-16 0 -27.5 11t-11.5 27v32q-7 12 -7 23v50h-43q-16 0 -27 11t-11 27v595q0 16 11 27t27 11h68q8 0 20 -7q28 17 62 17q114 0 114 -148v-495q0 -16 -11 -27t-27 -11h-40v-65q0 -35 -19 -56.5t-62 -21.5h-16zM166 -105q23 0 32.5 11t9.5 29v84h-66v-69h32v-16
q0 -12 -11 -12h-13v-27h16zM287 38v495q0 109 -76 109q-51 0 -79 -48q0 21 -3 39h-68v-595h80v502q6 13 16 18.5t21 5.5q28 0 28 -36v-490h81z" />
    <glyph glyph-name="Ncaron" unicode="&#x147;" horiz-adv-x="395" 
d="M249 0q-13 0 -24 9t-14 22l-38 176v-169q0 -16 -11 -27t-28 -11h-75q-17 0 -28 11t-11 27v790q0 17 11 28t28 11h42l-79 131q-7 10 -7 22q0 15 11.5 26t28.5 11h77q8 0 18.5 -6t15.5 -13l33 -56l34 57q5 6 15 12t18 6h74q18 0 28.5 -11t10.5 -26q0 -12 -7 -23l-82 -130
h45q16 0 27 -11t11 -28v-790q0 -16 -11 -27t-27 -11h-86zM221 715v111h-19zM242 864l98 155h-74l-68 -112l-66 112h-77l93 -155h94zM335 38v790h-76v-268v-107v-80t2 -81q-9 46 -18 94.5t-20.5 110t-26.5 141.5t-34 190h-103v-790h75v205v130v97.5t-2 97.5q10 -48 21 -98.5
t25 -112.5l31.5 -139.5t39.5 -179.5h86z" />
    <glyph glyph-name="ncaron" unicode="&#x148;" horiz-adv-x="345" 
d="M206 0q-10 0 -18.5 5t-13.5 13q-5 -8 -13.5 -13t-19.5 -5h-80q-16 0 -27 11t-11 27v595q0 16 11 27t27 11h15l-79 132q-7 8 -7 22t11.5 25t28.5 11h78q8 0 18 -5.5t15 -13.5l33 -56l34 57q5 7 15 12.5t18 5.5h74q18 0 28.5 -11t10.5 -25q0 -13 -6 -23l-84 -132
q61 -28 61 -137v-495q0 -16 -11 -27t-27 -11h-81zM217 668l98 155h-74l-68 -112l-65 112h-78l93 -155h94zM287 38v495q0 109 -76 109q-51 0 -79 -48q0 21 -3 39h-68v-595h80v502q6 13 16 18.5t21 5.5q28 0 28 -36v-490h81z" />
    <glyph glyph-name="Eng" unicode="&#x14a;" horiz-adv-x="395" 
d="M145 -21q0 17 10 27q-9 -6 -21 -6h-75q-17 0 -28 11t-11 27v790q0 17 11 28t28 11h103q14 0 25 -9.5t13 -22.5l21 -120v113q0 17 11 28t27 11h76q16 0 27 -11t11 -28v-807q0 -87 -38.5 -125.5t-115.5 -38.5q-32 0 -53 8t-21 34v80zM173 38q0 -16 -12 -26q5 2 10.5 4
t10.5 2q8 0 16 -2.5t17 -2.5l-42 190v-165zM183 -101q15 -4 36 -4q58 0 87 30t29 96v807h-76v-268v-107v-80t2 -81q-9 46 -18 94.5t-20.5 110t-26.5 141.5t-34 190h-103v-790h75v205v130v97.5t-2 97.5q10 -48 22.5 -105t28 -126.5t34 -153t40.5 -183.5q-9 -25 -38 -25
q-21 0 -36 4v-80z" />
    <glyph glyph-name="eng" unicode="&#x14b;" horiz-adv-x="345" 
d="M97 -21q0 12 6 21h-42q-16 0 -27 11t-11 27v595q0 16 11 27t27 11h68q8 0 20 -7q28 17 62 17q114 0 114 -148v-512q0 -87 -38.5 -125.5t-115.5 -38.5q-32 0 -53 8t-21 34v80zM135 -101q15 -4 36 -4q58 0 87 30t29 96v512q0 109 -76 109q-51 0 -79 -48q0 21 -3 39h-68
v-595h80v502q6 13 16 18.5t21 5.5q28 0 28 -36v-507q0 -46 -35 -46q-21 0 -36 4v-80z" />
    <glyph glyph-name="Omacron" unicode="&#x14c;" horiz-adv-x="364" 
d="M69 862q-16 0 -27 11t-11 27v70q0 16 11 27t27 11h225q16 0 27 -11t11 -27v-70q0 -16 -11 -27t-27 -11h-34q87 -36 87 -159v-539q0 -85 -40.5 -129t-125.5 -44q-83 0 -123.5 44t-40.5 129v539q0 123 86 159h-34zM294 900v70h-225v-70h225zM220 164q0 -46 -39 -46
q-37 0 -37 46v539q0 45 37 45q39 0 39 -45v-539zM56 164q0 -134 125 -134q127 0 127 134v539q0 134 -127 134q-125 0 -125 -134v-539z" />
    <glyph glyph-name="omacron" unicode="&#x14d;" horiz-adv-x="333" 
d="M55 666q-16 0 -27.5 11.5t-11.5 27.5v69q0 16 11.5 27t27.5 11h224q16 0 27.5 -11t11.5 -27v-69q0 -16 -11.5 -27.5t-27.5 -11.5h-38q76 -35 76 -143v-375q0 -77 -38 -117t-112 -40q-78 0 -114 40t-36 117v375q0 54 17 90t55 53h-34zM279 705v69h-224v-69h224zM200 151
q0 -20 -6.5 -30t-26.5 -10t-27 9.5t-7 29.5v370q0 20 7 30t27 10t26.5 -10t6.5 -30v-369zM56 148q0 -58 26.5 -88t84.5 -30q111 0 111 118v375q0 58 -28 88.5t-83 30.5q-58 0 -84.5 -30.5t-26.5 -88.5v-375z" />
    <glyph glyph-name="Obreve" unicode="&#x14e;" horiz-adv-x="364" 
d="M313 1051q16 0 27 -11t11 -27q0 -69 -16 -108t-49 -57q61 -43 61 -145v-539q0 -85 -40.5 -129t-125.5 -44q-83 0 -123.5 44t-40.5 129v539q0 104 60 145q-35 17 -49.5 56t-14.5 109q0 16 11.5 27t27.5 11h72q16 0 27 -11t11 -27q0 -20 1.5 -32t4.5 -18.5t6.5 -8.5t7.5 -2
t7.5 2t6.5 8.5t4.5 18.5t1.5 32q0 16 11 27t27 11h73zM240 1013q0 -33 -4.5 -52.5t-12.5 -30t-18.5 -13.5t-22.5 -3t-23 3t-18.5 13.5t-12 30t-4.5 52.5h-72q0 -43 6.5 -71t22 -44.5t40.5 -23t63 -6.5q33 0 57.5 6.5t40.5 23t23.5 44.5t7.5 71h-73zM220 164q0 -46 -39 -46
q-37 0 -37 46v539q0 45 37 45q39 0 39 -45v-539zM56 164q0 -134 125 -134q127 0 127 134v539q0 134 -127 134q-125 0 -125 -134v-539z" />
    <glyph glyph-name="obreve" unicode="&#x14f;" horiz-adv-x="333" 
d="M298 855q16 0 27 -11t11 -27q0 -72 -17 -111t-52 -56q50 -39 50 -127v-375q0 -77 -38 -117t-112 -40q-78 0 -114 40t-36 117v375q0 88 46 127q-35 17 -50 56t-15 111q0 16 11 27t27 11h72q17 0 28 -11t11 -27q0 -20 1.5 -32t4.5 -18.5t6.5 -8.5t7.5 -2t7.5 2t6 8.5
t4 18.5t1.5 32q0 16 11.5 27t27.5 11h73zM225 817q0 -33 -4.5 -52.5t-12.5 -30t-18.5 -13.5t-22.5 -3q-13 0 -23.5 3t-18.5 13.5t-12.5 30t-4.5 52.5h-72q0 -43 6.5 -71t22.5 -44.5t41 -23t63 -6.5q33 0 57.5 6.5t40 23t23.5 44.5t8 71h-73zM200 151q0 -20 -6.5 -30
t-26.5 -10t-27 9.5t-7 29.5v370q0 20 7 30t27 10t26.5 -10t6.5 -30v-369zM56 148q0 -58 26.5 -88t84.5 -30q111 0 111 118v375q0 58 -28 88.5t-83 30.5q-58 0 -84.5 -30.5t-26.5 -88.5v-375z" />
    <glyph glyph-name="Ohungarumlaut" unicode="&#x150;" horiz-adv-x="364" 
d="M46 826q-18 0 -28.5 10.5t-10.5 24.5q0 10 7 24l106 155q4 5 14 11t18 6h102q17 0 29 -12q5 5 13 8.5t14 3.5h104q18 0 28.5 -11t10.5 -26q0 -6 -2.5 -13t-7.5 -13l-133 -155l-7 -6q44 -44 44 -130v-539q0 -85 -40.5 -129t-125.5 -44q-83 0 -123.5 44t-40.5 129v539
q0 79 36 123h-7zM123 864l131 155h-102l-106 -155h77zM281 864l133 155h-104l-106 -155h77zM220 164q0 -46 -39 -46q-37 0 -37 46v539q0 45 37 45q39 0 39 -45v-539zM56 164q0 -134 125 -134q127 0 127 134v539q0 134 -127 134q-125 0 -125 -134v-539z" />
    <glyph glyph-name="ohungarumlaut" unicode="&#x151;" horiz-adv-x="333" 
d="M31 630q-18 0 -29 10.5t-11 24.5q0 13 8 24l106 155q3 6 13.5 11.5t17.5 5.5h103q9 0 16.5 -3t12.5 -8q5 4 13 7.5t14 3.5h103q18 0 29 -11t11 -25q0 -16 -11 -27l-132 -155q-5 -5 -12 -8q34 -40 34 -112v-375q0 -77 -38 -117t-112 -40q-78 0 -114 40t-36 117v375
q0 67 28 107h-14zM108 668l131 155h-103l-105 -155h77zM266 668l132 155h-103l-106 -155h77zM200 151q0 -20 -6.5 -30t-26.5 -10t-27 9.5t-7 29.5v370q0 20 7 30t27 10t26.5 -10t6.5 -30v-369zM56 148q0 -58 26.5 -88t84.5 -30q111 0 111 118v375q0 58 -28 88.5t-83 30.5
q-58 0 -84.5 -30.5t-26.5 -88.5v-375z" />
    <glyph glyph-name="OE" unicode="&#x152;" horiz-adv-x="472" 
d="M242 0q-26 -9 -61 -9q-83 0 -123.5 44t-40.5 129v539q0 85 40.5 129t123.5 44q35 0 61 -9h181q16 0 27.5 -11t11.5 -28v-89q0 -16 -11.5 -27t-27.5 -11h-86v-177h45q16 0 27 -11t11 -27v-90q0 -16 -11 -27t-27 -11h-45v-193h91q16 0 27.5 -11t11.5 -27v-89
q0 -16 -11.5 -27t-27.5 -11h-186zM210 122q-9 -4 -29 -4q-37 0 -37 46v539q0 45 37 45q21 0 29 -4v-622zM428 38v89h-129v269h83v90h-83v253h124v89h-189q-21 9 -53 9q-125 0 -125 -134v-539q0 -134 125 -134q31 0 53 8h194z" />
    <glyph glyph-name="oe" unicode="&#x153;" horiz-adv-x="471" 
d="M455 324q0 -12 -7 -22q7 -11 7 -22v-130q0 -159 -147 -159q-40 0 -69 16q-14 -7 -33 -11.5t-39 -4.5q-78 0 -114 40t-36 117v375q0 77 36 117.5t114 40.5q40 0 72 -16q29 16 69 16q147 0 147 -161v-196zM341 382h-63v138q0 39 30 39q33 0 33 -39v-138zM200 151
q0 -20 -6.5 -30t-26.5 -10t-27 9.5t-7 29.5v370q0 20 7 30t27 10t26.5 -10t6.5 -30v-369zM341 151q0 -40 -33 -40q-30 0 -30 39v174h139v196q0 122 -109 122q-44 0 -69 -24q-25 24 -72 24q-58 0 -84.5 -30.5t-26.5 -88.5v-375q0 -58 26.5 -88t84.5 -30q48 0 71 22
q26 -22 70 -22q109 0 109 120v130h-76v-129z" />
    <glyph glyph-name="Racute" unicode="&#x154;" horiz-adv-x="372" 
d="M232 0q-15 0 -25.5 10.5t-12.5 25.5l-6 48v-46q0 -16 -11 -27t-27 -11h-90q-16 0 -27 11t-11 27v790q0 17 11 28t27 11h30q1 8 8 18l106 155q3 5 13.5 11t17.5 6h103q18 0 28.5 -11t10.5 -26q0 -13 -10 -26l-115 -135q54 -14 81.5 -54.5t27.5 -118.5v-160q0 -48 -11 -80
t-37 -52q14 -71 24 -142.5t21 -141.5l10 -67v-6q0 -16 -11 -26.5t-28 -10.5h-97zM206 864l132 155h-103l-105 -155h76zM329 38q-14 93 -27 186t-31 188q26 15 39 42t13 72v160q0 78 -35 110t-105 32h-123v-790h90v356h36q14 -90 24.5 -177.5t21.5 -178.5h97zM232 525
q0 -51 -48 -51h-34v265h33q32 0 40.5 -17t8.5 -54v-143z" />
    <glyph glyph-name="racute" unicode="&#x155;" horiz-adv-x="252" 
d="M61 0q-16 0 -27 11t-11 27v595q0 6 2.5 12.5t6.5 11.5q-1 3 -1 9q0 13 7 23l106 155q4 6 14 11.5t18 5.5h102q18 0 29 -11t11 -25t-11 -27l-103 -120q17 -2 33 -12t16 -30v-90q0 -18 -10.5 -28.5t-25.5 -10.5q-9 0 -14.5 4t-18.5 4h-4v-477q0 -16 -11.5 -27t-27.5 -11
h-80zM147 668l131 155h-102l-106 -155h77zM141 38v489q7 15 19 20.5t24 5.5q20 0 31 -7v90q-11 3 -18 3q-44 0 -65 -43q0 19 -3 37h-68v-595h80z" />
    <glyph glyph-name="Rcommaaccent" unicode="&#x156;" horiz-adv-x="372" 
d="M165 -143q-16 0 -27 11t-11 27v32q-8 11 -8 23v50h-59q-16 0 -27 11t-11 27v790q0 17 11 28t27 11h123q88 0 133 -41t45 -140v-160q0 -48 -11 -80t-37 -52q14 -71 24 -142.5t21 -141.5l10 -67q0 -18 -9.5 -30.5t-29.5 -12.5h-67v-65q0 -35 -19 -56.5t-62 -21.5h-16z
M181 -105q23 0 33 11t10 29v84h-67v-69h32v-16q0 -12 -10 -12h-14v-27h16zM329 38q-14 93 -27 186t-31 188q26 15 39 42t13 72v160q0 78 -35 110t-105 32h-123v-790h90v356h36q14 -90 24.5 -177.5t21.5 -178.5h97zM232 525q0 -51 -48 -51h-34v265h33q32 0 40.5 -17t8.5 -54
v-143z" />
    <glyph glyph-name="rcommaaccent" unicode="&#x157;" horiz-adv-x="252" 
d="M76 -143q-16 0 -27.5 11t-11.5 27v32q-7 12 -7 23v67q-7 10 -7 21v595q0 16 11 27t27 11h68q7 0 17 -5q21 12 51 12q8 0 18 -2t18.5 -7t14 -13t5.5 -20v-90q0 -18 -10.5 -28.5t-25.5 -10.5q-9 0 -14.5 4t-18.5 4h-4v-477q0 -11 -7 -21v-82q0 -35 -19 -56.5t-62 -21.5h-16
zM92 -105q23 0 32.5 11t9.5 29v84h-66v-69h32v-16q0 -12 -11 -12h-13v-27h16zM141 38v489q7 15 19 20.5t24 5.5q20 0 31 -7v90q-11 3 -18 3q-44 0 -65 -43q0 19 -3 37h-68v-595h80z" />
    <glyph glyph-name="Rcaron" unicode="&#x158;" horiz-adv-x="372" 
d="M232 0q-15 0 -25.5 10.5t-12.5 25.5l-6 48v-46q0 -16 -11 -27t-27 -11h-90q-16 0 -27 11t-11 27v790q0 17 11 28t27 11h30l-78 131q-7 10 -7 22q0 15 11 26t28 11h78q8 0 18.5 -6t15.5 -13l32 -56l35 57q4 6 14 12t18 6h74q18 0 29 -11t11 -26q0 -12 -7 -23l-91 -144
q45 -17 67.5 -56.5t22.5 -110.5v-160q0 -48 -11 -80t-37 -52q14 -71 24 -142.5t21 -141.5l10 -67v-6q0 -16 -11 -26.5t-28 -10.5h-97zM231 864l98 155h-74l-68 -112l-65 112h-78l93 -155h94zM329 38q-14 93 -27 186t-31 188q26 15 39 42t13 72v160q0 78 -35 110t-105 32
h-123v-790h90v356h36q14 -90 24.5 -177.5t21.5 -178.5h97zM232 525q0 -51 -48 -51h-34v265h33q32 0 40.5 -17t8.5 -54v-143z" />
    <glyph glyph-name="rcaron" unicode="&#x159;" horiz-adv-x="252" 
d="M61 0q-16 0 -27 11t-11 27v595q0 17 13 28l-85 142q-7 8 -7 22t11.5 25t28.5 11h77q8 0 18.5 -5.5t15.5 -13.5l33 -56l34 57q5 7 15 12.5t18 5.5h74q18 0 28.5 -11t10.5 -25q0 -13 -7 -23l-80 -128l9 -3q9 -4 16 -15t7 -20v-90q0 -18 -10.5 -28.5t-25.5 -10.5
q-9 0 -14.5 4t-18.5 4h-4v-477q0 -16 -11.5 -27t-27.5 -11h-80zM171 668l98 155h-74l-68 -112l-66 112h-77l93 -155h94zM141 38v489q7 15 19 20.5t24 5.5q20 0 31 -7v90q-11 3 -18 3q-44 0 -65 -43q0 19 -3 37h-68v-595h80z" />
    <glyph glyph-name="Sacute" unicode="&#x15a;" horiz-adv-x="353" 
d="M12 328q0 16 11.5 27.5t27.5 11.5h71q-22 26 -41 50t-38 50t-25 56t-6 65v119q0 109 70 147q-1 2 -1 7q0 10 7 24l106 155q4 5 14 11t18 6h102q18 0 29 -11t11 -26q0 -13 -11 -26l-108 -128q47 -15 67.5 -54.5t20.5 -104.5v-144q0 -17 -11 -28t-27 -11h-84l18 -21
q14 -17 31 -36.5t35 -45.5q24 -35 32.5 -68t8.5 -79v-114q0 -82 -38 -125.5t-125 -43.5q-88 0 -126.5 43.5t-38.5 125.5v168zM197 864l131 155h-102l-106 -155h77zM213 160q0 -42 -39 -42q-20 0 -29 11t-9 31v168h-85v-168q0 -63 29.5 -96.5t96.5 -33.5q66 0 95 33.5
t29 96.5v114q0 40 -6.5 68.5t-26.5 56.5q-26 37 -55.5 69.5t-56.5 67.5q-9 12 -12 24t-3 29v118q0 41 38 41q20 0 28.5 -11t8.5 -31v-143h83v144q0 66 -28 98t-94 32q-126 0 -126 -130v-119q0 -29 5 -54t19 -45q29 -42 56 -72.5t54 -64.5q17 -21 22.5 -37.5t5.5 -41.5v-113z
" />
    <glyph glyph-name="sacute" unicode="&#x15b;" horiz-adv-x="322" 
d="M307 139q0 -78 -37.5 -113t-113.5 -35q-72 0 -108 37t-36 115v94q0 16 11.5 27.5t27.5 11.5h59l-17 19q-25 26 -40.5 46t-24.5 38.5t-12.5 39.5t-3.5 49v57q0 51 14 84t40 50q-1 1 -1 6q0 13 8 24l106 155q3 6 13.5 11.5t17.5 5.5h103q18 0 28.5 -11t10.5 -25t-10 -27
l-109 -128q41 -15 56 -50t15 -95v-94q0 -16 -11 -27t-27 -11h-53q32 -35 51 -57t28.5 -41.5t12 -41t2.5 -55.5v-59zM181 668l132 155h-103l-105 -155h76zM269 198q0 37 -6.5 62t-26.5 51t-44 49t-47 52q-11 14 -13 24t-2 24v65q0 37 30 37q15 0 24 -9.5t9 -27.5v-94h73v94
q0 61 -22.5 89t-85.5 28q-52 0 -79.5 -26t-27.5 -91v-57q0 -29 5.5 -52.5t20.5 -43.5q23 -29 47 -54t47 -54q11 -15 14.5 -25t3.5 -30v-64q0 -37 -32 -37q-15 0 -24 9.5t-9 27.5v92h-73v-94q0 -59 26 -86t79 -27q57 0 85 25t28 84v59z" />
    <glyph glyph-name="Scedilla" unicode="&#x15e;" horiz-adv-x="353" 
d="M151 -143q-16 0 -27.5 11t-11.5 27v32q-7 12 -7 23v52q-49 16 -71 55.5t-22 102.5v168q0 16 11.5 27.5t27.5 11.5h71q-22 26 -41 50t-38 50t-25 56t-6 65v119q0 169 165 169q87 0 123.5 -42t36.5 -127v-144q0 -17 -11 -28t-27 -11h-84q33 -39 56.5 -68t39 -56.5t22.5 -57
t7 -68.5v-114q0 -63 -22 -102.5t-70 -55.5v-67q0 -35 -19 -56.5t-62 -21.5h-16zM167 -105q23 0 32.5 11t9.5 29v84h-66v-69h32v-16q0 -12 -11 -12h-13v-27h16zM213 160q0 -42 -39 -42q-20 0 -29 11t-9 31v168h-85v-168q0 -63 29.5 -96.5t96.5 -33.5q66 0 95 33.5t29 96.5
v114q0 40 -6.5 68.5t-26.5 56.5q-26 37 -55.5 69.5t-56.5 67.5q-9 12 -12 24t-3 29v118q0 41 38 41q20 0 28.5 -11t8.5 -31v-143h83v144q0 66 -28 98t-94 32q-126 0 -126 -130v-119q0 -29 5 -54t19 -45q29 -42 56 -72.5t54 -64.5q17 -21 22.5 -37.5t5.5 -41.5v-113z" />
    <glyph glyph-name="scedilla" unicode="&#x15f;" horiz-adv-x="322" 
d="M135 -143q-16 0 -27 11t-11 27v32q-8 11 -8 23v52q-77 29 -77 141v94q0 16 11.5 27.5t27.5 11.5h59q-31 34 -50 57.5t-29.5 44t-14.5 41t-4 49.5v57q0 85 37.5 120.5t108.5 35.5q43 0 71 -9t44.5 -28.5t23.5 -49t7 -69.5v-94q0 -16 -11 -27t-27 -11h-53q32 -35 51 -57
t28.5 -41.5t12 -41t2.5 -55.5v-59q0 -56 -18.5 -89t-56.5 -47v-68q0 -35 -19 -56.5t-61 -21.5h-17zM152 -105q22 0 32 11t10 29v84h-66v-69h31v-16q0 -12 -10 -12h-14v-27h17zM269 198q0 37 -6.5 62t-26.5 51t-44 49t-47 52q-11 14 -13 24t-2 24v65q0 37 30 37q15 0 24 -9.5
t9 -27.5v-94h73v94q0 61 -22.5 89t-85.5 28q-52 0 -79.5 -26t-27.5 -91v-57q0 -29 5.5 -52.5t20.5 -43.5q23 -29 47 -54t47 -54q11 -15 14.5 -25t3.5 -30v-64q0 -37 -32 -37q-15 0 -24 9.5t-9 27.5v92h-73v-94q0 -59 26 -86t79 -27q57 0 85 25t28 84v59z" />
    <glyph glyph-name="Scaron" unicode="&#x160;" horiz-adv-x="353" 
d="M12 328q0 16 11.5 27.5t27.5 11.5h71l-7 8q-17 20 -35 43t-37 49t-25 56t-6 65v119q0 112 74 150l-84 141q-7 10 -7 22q0 15 11.5 26t28.5 11h77q8 0 18.5 -6t15.5 -13l33 -56l34 57q5 6 15 12t18 6h74q18 0 28.5 -11t10.5 -26q0 -12 -7 -23l-87 -138q38 -18 55 -55.5
t17 -96.5v-144q0 -17 -11 -28t-27 -11h-84l18 -21q14 -17 31 -36.5t35 -45.5q24 -35 32.5 -68t8.5 -79v-114q0 -82 -38 -125.5t-125 -43.5q-88 0 -126.5 43.5t-38.5 125.5v168zM222 864l98 155h-74l-68 -112l-66 112h-77l93 -155h94zM213 160q0 -42 -39 -42q-20 0 -29 11
t-9 31v168h-85v-168q0 -63 29.5 -96.5t96.5 -33.5q66 0 95 33.5t29 96.5v114q0 40 -6.5 68.5t-26.5 56.5q-26 37 -55.5 69.5t-56.5 67.5q-9 12 -12 24t-3 29v118q0 41 38 41q20 0 28.5 -11t8.5 -31v-143h83v144q0 66 -28 98t-94 32q-126 0 -126 -130v-119q0 -29 5 -54
t19 -45q29 -42 56 -72.5t54 -64.5q17 -21 22.5 -37.5t5.5 -41.5v-113z" />
    <glyph glyph-name="scaron" unicode="&#x161;" horiz-adv-x="322" 
d="M307 139q0 -78 -37.5 -113t-113.5 -35q-72 0 -108 37t-36 115v94q0 16 11.5 27.5t27.5 11.5h59l-17 19q-24 27 -39.5 47t-25 38.5t-13 39t-3.5 48.5v57q0 53 15 86t43 50l-84 142q-7 8 -7 22t11 25t28 11h78q8 0 18.5 -5.5t15.5 -13.5l32 -56l35 57q5 7 14.5 12.5
t17.5 5.5h74q18 0 29 -11t11 -25q0 -13 -7 -23l-88 -140q32 -17 44 -50.5t12 -86.5v-94q0 -16 -11 -27t-27 -11h-53q32 -35 51 -57t28.5 -41.5t12 -41t2.5 -55.5v-59zM205 668l98 155h-74l-68 -112l-65 112h-78l93 -155h94zM269 198q0 37 -6.5 62t-26.5 51t-44 49t-47 52
q-11 14 -13 24t-2 24v65q0 37 30 37q15 0 24 -9.5t9 -27.5v-94h73v94q0 61 -22.5 89t-85.5 28q-52 0 -79.5 -26t-27.5 -91v-57q0 -29 5.5 -52.5t20.5 -43.5q23 -29 47 -54t47 -54q11 -15 14.5 -25t3.5 -30v-64q0 -37 -32 -37q-15 0 -24 9.5t-9 27.5v92h-73v-94q0 -59 26 -86
t79 -27q57 0 85 25t28 84v59z" />
    <glyph glyph-name="Tcommaaccent" unicode="&#x162;" horiz-adv-x="326" 
d="M137 -143q-16 0 -27 11t-11 27v32q-8 11 -8 23v62q-10 10 -10 26v663h-45q-16 0 -27 11t-11 27v89q0 17 11 28t27 11h254q16 0 27 -11t11 -28v-89q0 -16 -11 -27t-27 -11h-44v-663q0 -16 -12 -26v-77q0 -35 -19 -56.5t-61 -21.5h-17zM154 -105q22 0 32 11t10 29v84h-66
v-69h31v-16q0 -12 -10 -12h-14v-27h17zM207 38v701h83v89h-254v-89h83v-701h88z" />
    <glyph glyph-name="tcommaaccent" unicode="&#x163;" horiz-adv-x="237" 
d="M112 -143q-16 0 -27 11t-11 27v32q-8 11 -8 23v69q0 6 1 9q-42 41 -42 125v372q-12 3 -20.5 13.5t-8.5 24.5v70q0 13 8.5 23t20.5 14v151q0 16 11 27t27 11h81q16 0 27 -11t11 -27v-150h17q16 0 27 -11t11 -27v-70q0 -17 -11 -28t-27 -11h-17v-370q0 -17 6 -17h3
q4 1 11 1q16 0 26.5 -10.5t10.5 -27.5v-66q0 -11 -9.5 -24t-20.5 -13v-62q0 -35 -19 -56.5t-61 -21.5h-17zM129 -105q22 0 32 11t10 29v84h-66v-69h31v-16q0 -12 -10 -12h-14v-27h17zM201 100q-3 -1 -6.5 -1h-6.5q-44 0 -44 55v409h55v70h-55v188h-81v-188h-28v-70h28v-410
q0 -58 26.5 -90.5t81.5 -32.5q8 0 16 1t14 3v66z" />
    <glyph glyph-name="Tcaron" unicode="&#x164;" horiz-adv-x="326" 
d="M119 0q-16 0 -27 11t-11 27v663h-45q-16 0 -27 11t-11 27v89q0 17 11 28t27 11h31l-79 131q-6 10 -6 22q0 15 11 26t28 11h78q8 0 18.5 -6t14.5 -13l33 -56l35 57q4 6 14 12t18 6h74q18 0 29 -11t11 -26q0 -12 -7 -23l-83 -130h34q16 0 27 -11t11 -28v-89q0 -16 -11 -27
t-27 -11h-44v-663q0 -16 -11.5 -27t-27.5 -11h-88zM208 864l98 155h-74l-68 -112l-65 112h-78l93 -155h94zM207 38v701h83v89h-254v-89h83v-701h88z" />
    <glyph glyph-name="tcaron" unicode="&#x165;" horiz-adv-x="295" 
d="M239 34q0 -14 -7 -22t-17 -13t-22 -6.5t-22 -1.5q-75 0 -110.5 43t-35.5 119v372q-12 3 -20.5 13.5t-8.5 24.5v70q0 13 8.5 23t20.5 14v151q0 16 11 27t27 11h81q8 0 14 -3q11 11 27 11h83q16 0 27 -11t11 -28v-116q0 -35 -16 -62t-53 -36v-51q0 -17 -11 -28t-27 -11h-17
v-370q0 -17 6 -17h3q4 1 11 1q16 0 26.5 -10.5t10.5 -27.5v-66zM205 650q35 0 49 18t14 44v116h-83v-98h38v-23q0 -21 -19 -21h-8v-36h9zM201 100q-3 -1 -6.5 -1h-6.5q-44 0 -44 55v409h55v70h-55v188h-81v-188h-28v-70h28v-410q0 -58 26.5 -90.5t81.5 -32.5q8 0 16 1t14 3
v66z" />
    <glyph glyph-name="Tbar" unicode="&#x166;" horiz-adv-x="326" 
d="M119 0q-16 0 -27 11t-11 27v330h-14q-16 0 -27 11t-11 27v68q0 16 11 27.5t27 11.5h14v188h-45q-16 0 -27 11t-11 27v89q0 17 11 28t27 11h254q16 0 27 -11t11 -28v-89q0 -16 -11 -27t-27 -11h-44v-188h13q16 0 27.5 -11.5t11.5 -27.5v-68q0 -16 -11.5 -27t-27.5 -11h-13
v-330q0 -16 -11.5 -27t-27.5 -11h-88zM207 38v368h52v68h-52v265h83v89h-254v-89h83v-265h-52v-68h52v-368h88z" />
    <glyph glyph-name="tbar" unicode="&#x167;" horiz-adv-x="237" 
d="M182 277v-123q0 -17 6 -17h3q4 1 11 1q16 0 26.5 -10.5t10.5 -27.5v-66q0 -14 -7 -22t-17 -13t-22 -6.5t-22 -1.5q-75 0 -110.5 43t-35.5 119v127q-10 5 -16 14.5t-6 21.5v68q0 11 6 20.5t16 14.5v106q-12 3 -20.5 13.5t-8.5 24.5v70q0 13 8.5 23t20.5 14v151q0 16 11 27
t27 11h81q16 0 27 -11t11 -27v-150h17q16 0 27 -11t11 -27v-70q0 -17 -11 -28t-27 -11h-17v-102h13q16 0 27 -11t11 -27v-68q0 -16 -11 -27.5t-27 -11.5h-13zM195 316v68h-51v179h55v70h-55v188h-81v-188h-28v-70h28v-179h-22v-68h22v-163q0 -58 26.5 -90.5t81.5 -32.5
q8 0 16 1t14 3v66q-3 -1 -6.5 -1h-6.5q-44 0 -44 55v162h51z" />
    <glyph glyph-name="Utilde" unicode="&#x168;" horiz-adv-x="369" 
d="M340 913q0 -15 -12.5 -27.5t-24.5 -18.5h7q16 0 27 -11t11 -28v-664q0 -173 -164 -173t-164 173v664q0 24 20 34q-5 5 -8 12.5t-3 17.5v81q17 22 41.5 36t56.5 14q18 0 33.5 -4.5t30 -10t28 -10t28.5 -4.5q9 0 15 4t12 9t12.5 9t15.5 4q15 0 26.5 -10t11.5 -28v-69z
M147 867q13 0 23.5 -8.5t13.5 -21.5q3 13 13 20q-22 8 -40 16t-35 8q-11 0 -25 -14h50zM301 982h-1q-8 -12 -22 -19.5t-31 -7.5t-31 4.5t-28 10.5t-29 10.5t-32 4.5q-23 0 -37 -7t-23 -18v-68h1q11 14 24 21t30 7q15 0 29.5 -5t29 -10.5t29.5 -10.5t32 -5q20 0 34 6.5
t25 17.5v69zM222 164q0 -46 -38 -46q-37 0 -37 46v664h-88v-664q0 -134 125 -134q126 0 126 134v664h-88v-664z" />
    <glyph glyph-name="utilde" unicode="&#x169;" horiz-adv-x="343" 
d="M327 717q0 -16 -12.5 -27.5t-24.5 -19.5q13 -3 22 -13t9 -24v-595q0 -16 -11.5 -27t-27.5 -11h-68q-11 0 -22 8q-26 -14 -59 -14q-55 0 -84 36t-29 104v499q0 17 14 29q-8 5 -13 14t-5 20v82q17 21 41.5 35.5t56.5 14.5q18 0 34 -4.5t30 -10.5t28 -10.5t28 -4.5
q9 0 15.5 4t12.5 9.5t12.5 9.5t15.5 4q14 0 25.5 -10.5t11.5 -28.5v-69zM138 671q20 0 32 -17q2 4 9 9q-32 13 -45.5 17.5t-24.5 4.5q-12 0 -25 -14h54zM289 786h-1q-9 -12 -23 -19.5t-31 -7.5t-31 4.5t-28 10.5t-29 10.5t-32 4.5q-23 0 -37 -7t-22 -18v-68h1q11 14 23.5 21
t29.5 7q16 0 30.5 -5t28.5 -10.5t29 -10.5t32 -5q20 0 34.5 6.5t25.5 17.5v69zM282 38v595h-80v-499q-6 -12 -15.5 -17.5t-20.5 -5.5q-28 0 -28 36v486h-79v-499q0 -49 18.5 -75t55.5 -26q51 0 78 43q0 -20 3 -38h68z" />
    <glyph glyph-name="Umacron" unicode="&#x16a;" horiz-adv-x="369" 
d="M348 164q0 -173 -164 -173t-164 173v664q0 15 10 25.5t24 12.5q-20 11 -20 34v70q0 16 11 27t27 11h225q16 0 27 -11t11 -27v-70q0 -11 -6 -20t-14 -14q14 -2 23.5 -12.5t9.5 -25.5v-664zM184 837q3 15 19 25h-38q15 -10 19 -25zM297 900v70h-225v-70h225zM222 164
q0 -46 -38 -46q-37 0 -37 46v664h-88v-664q0 -134 125 -134q126 0 126 134v664h-88v-664z" />
    <glyph glyph-name="umacron" unicode="&#x16b;" horiz-adv-x="343" 
d="M214 0q-11 0 -22 8q-26 -14 -59 -14q-55 0 -84 36t-29 104v499q0 12 7 21.5t18 13.5q-11 5 -17.5 14.5t-6.5 22.5v69q0 16 11 27t28 11h224q16 0 27.5 -11t11.5 -27v-69q0 -14 -7.5 -23.5t-18.5 -13.5q11 -5 17.5 -14.5t6.5 -20.5v-595q0 -16 -11.5 -27t-27.5 -11h-68z
M170 654q2 4 5.5 7t6.5 5h-26q8 -5 14 -12zM284 705v69h-224v-69h224zM282 38v595h-80v-499q-6 -12 -15.5 -17.5t-20.5 -5.5q-28 0 -28 36v486h-79v-499q0 -49 18.5 -75t55.5 -26q51 0 78 43q0 -20 3 -38h68z" />
    <glyph glyph-name="Ubreve" unicode="&#x16c;" horiz-adv-x="369" 
d="M315 1051q16 0 27 -11t11 -27q0 -55 -10 -90t-30 -56q14 -2 24.5 -12.5t10.5 -26.5v-664q0 -173 -164 -173t-164 173v664q0 15 9.5 25.5t23.5 12.5q-20 21 -29 56.5t-9 90.5q0 16 11.5 27t27.5 11h72q16 0 27 -11t11 -27q0 -20 1.5 -32t4.5 -18.5t6.5 -8.5t7.5 -2t7.5 2
t6.5 8.5t4.5 18.5t1.5 32q0 16 11 27t27 11h73zM242 1013q0 -33 -4.5 -52.5t-12.5 -30t-18.5 -13.5t-22.5 -3t-23 3t-18.5 13.5t-12 30t-4.5 52.5h-72q0 -43 6.5 -71t22 -44.5t40.5 -23t63 -6.5q33 0 57.5 6.5t40.5 23t23.5 44.5t7.5 71h-73zM222 164q0 -46 -38 -46
q-37 0 -37 46v664h-88v-664q0 -134 125 -134q126 0 126 134v664h-88v-664z" />
    <glyph glyph-name="ubreve" unicode="&#x16d;" horiz-adv-x="343" 
d="M302 855q17 0 28 -11t11 -27q0 -57 -11 -93t-33 -56q11 -5 17.5 -14.5t6.5 -20.5v-595q0 -16 -11.5 -27t-27.5 -11h-68q-11 0 -22 8q-26 -14 -59 -14q-55 0 -84 36t-29 104v499q0 11 6.5 20t16.5 14q-22 21 -31 57t-9 93q0 16 11 27t27 11h72q16 0 27.5 -11t11.5 -27
q0 -20 1.5 -32t4 -18.5t6 -8.5t8.5 -2q4 0 7.5 2t6 8.5t4 18.5t1.5 32q0 16 11 27t27 11h73zM229 817q0 -33 -4.5 -52.5t-12 -30t-18 -13.5t-22.5 -3q-13 0 -23.5 3t-18.5 13.5t-12.5 30t-4.5 52.5h-72q0 -43 6.5 -71t22.5 -44.5t41 -23t63 -6.5q33 0 57 6.5t40 23
t23.5 44.5t7.5 71h-73zM282 38v595h-80v-499q-6 -12 -15.5 -17.5t-20.5 -5.5q-28 0 -28 36v486h-79v-499q0 -49 18.5 -75t55.5 -26q51 0 78 43q0 -20 3 -38h68z" />
    <glyph glyph-name="Uring" unicode="&#x16e;" horiz-adv-x="369" 
d="M317 942q0 -47 -27 -75h20q16 0 27 -11t11 -28v-664q0 -173 -164 -173t-164 173v664q0 17 11 28t28 11h19q-14 14 -20 33t-6 42q0 51 32.5 83t98.5 32q69 0 101.5 -32t32.5 -83zM236 942q0 -20 -12 -30.5t-41 -10.5q-53 0 -53 41q0 42 53 42q29 0 41 -10.5t12 -31.5z
M278 942q0 34 -23 55.5t-72 21.5q-47 0 -70 -21.5t-23 -55.5q0 -32 23 -53.5t70 -21.5q49 0 72 21.5t23 53.5zM222 164q0 -46 -38 -46q-37 0 -37 46v664h-88v-664q0 -134 125 -134q126 0 126 134v664h-88v-664z" />
    <glyph glyph-name="uring" unicode="&#x16f;" horiz-adv-x="343" 
d="M303 746q0 -23 -6.5 -42t-20.5 -33h6q16 0 27.5 -11t11.5 -27v-595q0 -16 -11.5 -27t-27.5 -11h-68q-11 0 -22 8q-26 -14 -59 -14q-55 0 -84 36t-29 104v499q0 16 11 27t28 11h5q-26 29 -26 75q0 51 33 83t99 32q68 0 100.5 -32t32.5 -83zM223 746q0 -40 -53 -40
q-54 0 -54 40q0 42 54 42q53 0 53 -42zM265 746q0 34 -23.5 55.5t-71.5 21.5q-47 0 -70 -21.5t-23 -55.5q0 -32 23 -53.5t70 -21.5q48 0 71.5 21.5t23.5 53.5zM282 38v595h-80v-499q-6 -12 -15.5 -17.5t-20.5 -5.5q-28 0 -28 36v486h-79v-499q0 -49 18.5 -75t55.5 -26
q51 0 78 43q0 -20 3 -38h68z" />
    <glyph glyph-name="Uhungarumlaut" unicode="&#x170;" horiz-adv-x="369" 
d="M348 164q0 -173 -164 -173t-164 173v664q0 5 1 8q-11 10 -11 25q0 13 7 24l106 155q4 5 14 11t18 6h102q17 0 29 -12q5 5 13 8.5t14 3.5h104q18 0 28.5 -11t10.5 -26q0 -6 -2.5 -13t-8.5 -13l-114 -134q17 -12 17 -32v-664zM126 864l131 155h-102l-106 -155h77zM284 864
l133 155h-104l-106 -155h77zM222 164q0 -46 -38 -46q-37 0 -37 46v664h-88v-664q0 -134 125 -134q126 0 126 134v664h-88v-664z" />
    <glyph glyph-name="uhungarumlaut" unicode="&#x171;" horiz-adv-x="343" 
d="M214 0q-11 0 -22 8q-26 -14 -59 -14q-55 0 -84 36t-29 104v498q-11 4 -17 13t-6 20q0 14 7 24l105 155q4 6 14.5 11.5t17.5 5.5h103q8 0 16 -3t13 -8q5 4 13 7.5t14 3.5h103q18 0 29 -11t11 -25q0 -16 -11 -27l-121 -140q10 -12 10 -25v-595q0 -16 -11.5 -27t-27.5 -11
h-68zM112 668l132 155h-103l-105 -155h76zM271 668l132 155h-103l-106 -155h77zM282 38v595h-80v-499q-6 -12 -15.5 -17.5t-20.5 -5.5q-28 0 -28 36v486h-79v-499q0 -49 18.5 -75t55.5 -26q51 0 78 43q0 -20 3 -38h68z" />
    <glyph glyph-name="Uogonek" unicode="&#x172;" horiz-adv-x="369" 
d="M305 -9q0 -65 -32 -99.5t-115 -34.5q-52 0 -86.5 26.5t-34.5 78.5q0 20 7.5 38.5t20.5 32.5q-45 43 -45 131v664q0 17 11 28t28 11h88q13 0 23.5 -8.5t13.5 -21.5q3 13 13.5 21.5t24.5 8.5h88q16 0 27 -11t11 -28v-664q0 -50 -13.5 -82.5t-39.5 -52.5q10 -12 10 -27v-11z
M267 2h-67v-11q0 -17 -7.5 -28.5t-30.5 -11.5q-17 0 -23.5 8.5t-6.5 17.5q0 17 15.5 32.5t50.5 21.5q55 9 83.5 39t28.5 94v664h-88v-664q0 -46 -38 -46q-37 0 -37 46v664h-88v-664q0 -114 88 -130q-34 -10 -52.5 -28.5t-18.5 -43.5q0 -33 23.5 -50t58.5 -17q62 0 85.5 25
t23.5 71v11z" />
    <glyph glyph-name="uogonek" unicode="&#x173;" horiz-adv-x="343" 
d="M348 -9q0 -65 -32.5 -99.5t-114.5 -34.5q-52 0 -86.5 26.5t-34.5 78.5q0 23 7 41q-67 26 -67 131v499q0 16 11 27t28 11h79q20 0 32 -17q12 17 32 17h80q16 0 27.5 -11t11.5 -27v-595q11 -3 19 -13t8 -23v-11zM309 2h-67v-11q0 -17 -7.5 -28.5t-30.5 -11.5
q-17 0 -23.5 8.5t-6.5 17.5q0 23 25 38t83 23v595h-80v-499q-6 -12 -15.5 -17.5t-20.5 -5.5q-28 0 -28 36v486h-79v-499q0 -49 18.5 -75t55.5 -26q51 0 78 43q0 -22 3 -38q-46 -5 -71 -26t-25 -50q0 -33 24 -50t59 -17q61 0 84.5 25t23.5 71v11z" />
    <glyph glyph-name="Wcircumflex" unicode="&#x174;" horiz-adv-x="564" 
d="M328 0q-14 0 -25 10t-13 25q-4 35 -7.5 68.5t-6.5 66.5l-13 -135q-2 -15 -13 -25t-25 -10h-106q-14 0 -25 10t-13 25l-82 790q0 17 9.5 29.5t28.5 12.5h63q0 7 7 18l97 155q4 6 15 11.5t18 5.5h94q8 0 18 -6t15 -12l93 -155q2 -5 4 -8.5t2 -8.5h64q19 0 28.5 -13t9.5 -30
l-94 -790q-2 -14 -13 -24t-25 -10h-105zM182 649l20 177h-34zM378 662v-2l17 166h-33zM259 867h41l-20 33zM424 864l-93 155h-94l-98 -155h74l68 111l66 -111h77zM433 38l94 790h-93q-10 -104 -19.5 -202t-17.5 -177.5t-13.5 -134t-6.5 -71.5q-1 17 -6 71.5t-12.5 134
t-16.5 177.5t-18 202h-83q-12 -104 -22.5 -202t-19 -177.5t-14 -134t-6.5 -71.5q-1 17 -6 71.5t-12 134t-15.5 177.5t-15.5 202h-93l82 -790h106q10 99 19 191.5t16.5 166.5t12.5 124.5t6 65.5q0 -15 4 -65t10.5 -124.5t15.5 -167t19 -191.5h105z" />
    <glyph glyph-name="wcircumflex" unicode="&#x175;" horiz-adv-x="459" 
d="M264 0q-16 0 -27 9t-11 26l-1 10q0 -18 -10.5 -31.5t-29.5 -13.5h-93q-14 0 -25 10.5t-13 25.5l-54 594q0 17 10 29t28 12h9q0 9 7 18l98 155q3 6 14 11.5t18 5.5h94q8 0 18 -5.5t15 -12.5l93 -155l4 -8t2 -9h10q18 0 28 -12.5t10 -29.5l-62 -594q-1 -15 -12.5 -25
t-25.5 -10h-94zM206 671h41l-19 34zM372 668l-94 155h-94l-98 -155h74l68 112l66 -112h78zM358 38l62 595h-74l-40 -438l-41 438h-74l-47 -438l-32 438h-74l54 -595h93l42 412l37 -412h94z" />
    <glyph glyph-name="Ycircumflex" unicode="&#x176;" horiz-adv-x="374" 
d="M140 0q-16 0 -27 11t-11 27v342l-105 440q-1 3 -1 8q0 18 11 27q-1 2 -1 7q0 11 6 23l98 155q4 6 14.5 11.5t18.5 5.5h94q8 0 18 -6t15 -12l93 -155q7 -14 7 -22q0 -2 -0.5 -3.5t-0.5 -3.5q9 -9 9 -26v-4.5t-1 -5.5l-108 -441v-340q0 -16 -11 -27t-28 -11h-90zM190 705
l26 130q0 4 3 9l-33 56l-30 -48q7 -6 9 -17zM330 864l-93 155h-94l-98 -155h74l71 111l62 -111h78zM230 38v346l110 444h-87q-9 -48 -19 -98t-19.5 -93t-16.5 -75.5t-9 -45.5q-2 14 -8.5 46t-15.5 75t-18.5 92.5t-18.5 98.5h-93l105 -444v-346h90z" />
    <glyph glyph-name="ycircumflex" unicode="&#x177;" horiz-adv-x="321" 
d="M6 -15q0 17 10.5 27.5t26.5 10.5q7 0 13.5 -2t16.5 -2t10 16v4.5t-1 5.5l-85 582v8q-18 10 -18 31q0 13 7 23l98 155q3 6 14 11.5t18 5.5h94q8 0 18 -5.5t15 -12.5l93 -155q6 -11 6 -22t-5.5 -19.5t-14.5 -12.5v-7l-81 -572q-6 -45 -15.5 -81t-27 -60.5t-45.5 -38
t-73 -13.5q-14 0 -27 1.5t-23.5 6t-17 13t-6.5 22.5v80zM163 596l5 41q2 16 15 26l-24 42l-24 -39q19 -9 22 -30zM303 668l-93 155h-94l-98 -155h74l71 112l63 -112h77zM44 -95q18 -5 36 -5q33 0 54 11t34.5 32t21 50.5t13.5 66.5l80 573h-77q-10 -79 -17 -139.5t-12 -109
t-9.5 -89t-8.5 -79.5q-3 39 -6 79.5t-8 89t-11 109t-15 139.5h-83l83 -576l-2 -13q-5 -29 -12.5 -46t-27.5 -17q-21 0 -33 4v-80z" />
    <glyph glyph-name="Ydieresis" unicode="&#x178;" horiz-adv-x="374" 
d="M140 0q-16 0 -27 11t-11 27v342l-105 440q-1 2 -1 4.5v4.5q0 17 11 27.5t28 10.5h1v129q0 16 11 27t27 11h80q22 0 32 -19q5 8 14 13.5t20 5.5h80q17 0 28 -11t11 -27v-120q0 -2 -0.5 -4.5t-0.5 -4.5h2q17 0 27.5 -10.5t10.5 -27.5v-4.5t-1 -5.5l-108 -441v-340
q0 -16 -11 -27t-28 -11h-90zM190 705l26 132q-9 1 -17 6t-13 12q-4 -5 -9.5 -10t-12.5 -7zM154 876v120h-80v-120h80zM300 876v120h-80v-120h80zM230 38v346l110 444h-87q-9 -48 -19 -98t-19.5 -93t-16.5 -75.5t-9 -45.5q-2 14 -8.5 46t-15.5 75t-18.5 92.5t-18.5 98.5h-93
l105 -444v-346h90z" />
    <glyph glyph-name="Zacute" unicode="&#x179;" horiz-adv-x="350" 
d="M50 0q-16 0 -27 11t-11 27v96l151 570h-106q-16 0 -27.5 11t-11.5 27v86q0 17 11.5 28t27.5 11h23q1 5 3 9t4 9l106 155q4 5 14 11t18 6h102q18 0 29 -11t11 -26q0 -13 -11 -26l-108 -127h53q17 0 28 -11t11 -28v-85l-148 -576h109q17 0 28 -11t11 -27v-91q0 -16 -11 -27
t-28 -11h-251zM196 864l131 155h-102l-106 -155h77zM301 38v91h-159l159 620v79h-244v-86h156l-163 -613v-91h251z" />
    <glyph glyph-name="zacute" unicode="&#x17a;" horiz-adv-x="300" 
d="M50 0q-16 0 -27 11t-11 27v80l114 398h-74q-16 0 -27.5 11t-11.5 27v79q0 16 11.5 27t27.5 11h3q1 9 7 18l106 155q4 6 14 11.5t18 5.5h102q18 0 29 -11t11 -25t-11 -27l-108 -127h29q16 0 27 -11t11 -27v-81l-110 -394h71q16 0 27 -11t11 -27v-82q0 -16 -11 -27t-27 -11
h-201zM171 668l131 155h-102l-106 -155h77zM251 38v82h-121l122 439v74h-200v-79h124l-126 -440v-76h201z" />
    <glyph glyph-name="Zdotaccent" unicode="&#x17b;" horiz-adv-x="350" 
d="M50 0q-16 0 -27 11t-11 27v96l151 570h-106q-16 0 -27.5 11t-11.5 27v86q0 17 11.5 28t27.5 11h46q-1 3 -1 9v120q0 16 11 27t27 11h80q16 0 27 -11t11 -27v-120q0 -2 -0.5 -4.5t-0.5 -4.5h44q17 0 28 -11t11 -28v-85l-148 -576h109q17 0 28 -11t11 -27v-91
q0 -16 -11 -27t-28 -11h-251zM220 876v120h-80v-120h80zM301 38v91h-159l159 620v79h-244v-86h156l-163 -613v-91h251z" />
    <glyph glyph-name="zdotaccent" unicode="&#x17c;" horiz-adv-x="300" 
d="M50 0q-16 0 -27 11t-11 27v80l114 398h-74q-16 0 -27.5 11t-11.5 27v79q0 16 11.5 27t27.5 11h21q-1 3 -1 9v120q0 16 11 27t27 11h80q16 0 27 -11t11 -27v-129h24q16 0 27 -11t11 -27v-81l-110 -394h71q16 0 27 -11t11 -27v-82q0 -16 -11 -27t-27 -11h-201zM190 680v120
h-80v-120h80zM251 38v82h-121l122 439v74h-200v-79h124l-126 -440v-76h201z" />
    <glyph glyph-name="Zcaron" unicode="&#x17d;" horiz-adv-x="350" 
d="M50 0q-16 0 -27 11t-11 27v96l151 570h-106q-16 0 -27.5 11t-11.5 27v86q0 17 11.5 28t27.5 11h27l-79 131q-7 10 -7 22q0 15 11 26t28 11h78q8 0 18.5 -6t15.5 -13l32 -56l35 57q5 6 15 12t18 6h74q18 0 28.5 -11t10.5 -26q0 -12 -7 -23l-82 -130h28q17 0 28 -11t11 -28
v-85l-148 -576h109q17 0 28 -11t11 -27v-91q0 -16 -11 -27t-28 -11h-251zM225 864l98 155h-74l-69 -112l-65 112h-78l94 -155h94zM301 38v91h-159l159 620v79h-244v-86h156l-163 -613v-91h251z" />
    <glyph glyph-name="zcaron" unicode="&#x17e;" horiz-adv-x="300" 
d="M50 0q-16 0 -27 11t-11 27v80l114 398h-74q-16 0 -27.5 11t-11.5 27v79q0 16 11.5 27t27.5 11h2l-79 132q-7 8 -7 22t11.5 25t28.5 11h77q8 0 18.5 -5.5t15.5 -13.5l33 -56l34 57q5 7 15 12.5t18 5.5h74q18 0 28.5 -11t10.5 -25q0 -13 -7 -23l-82 -131h9q16 0 27 -11
t11 -27v-81l-110 -394h71q16 0 27 -11t11 -27v-82q0 -16 -11 -27t-27 -11h-201zM195 668l98 155h-74l-68 -112l-66 112h-77l93 -155h94zM251 38v82h-121l122 439v74h-200v-79h124l-126 -440v-76h201z" />
    <glyph glyph-name="florin" unicode="&#x192;" horiz-adv-x="448" 
d="M4 109q0 17 10.5 28t26.5 11q11 0 21.5 -3t31.5 -3q9 0 12.5 7t6.5 25v-1q6 51 11.5 95.5t10.5 88t10 88t11 95.5h-29q-16 0 -27.5 11.5t-11.5 27.5v68q0 16 11.5 27t27.5 11h46q5 54 16.5 90.5t33.5 59t55.5 32t82.5 9.5q51 0 71.5 -13t20.5 -35v-71q0 -17 -11 -27.5
t-27 -10.5q-12 0 -22 2.5t-31 2.5q-14 0 -17 -22l-2 -17h51q16 0 27 -11t11 -27v-68q0 -16 -11 -27.5t-27 -11.5h-70l-43 -380q-5 -47 -17.5 -79t-34.5 -52t-55 -29t-79 -9q-51 0 -71 13t-20 34v71zM42 38q6 -2 19.5 -5t33.5 -3q37 0 63 7t43 23t27 41.5t15 63.5l47 414h104
v68h-94l6 60q3 32 16.5 43.5t39.5 11.5q20 0 31 -1.5t22 -3.5v71q-7 3 -20.5 6t-33.5 3q-37 0 -62 -6.5t-42 -21.5t-26.5 -39.5t-14.5 -60.5l-9 -62h-80v-68h73l-48 -410q-5 -37 -17 -51t-41 -14q-20 0 -31 1.5t-21 3.5v-71z" />
    <glyph glyph-name="Scommaaccent" unicode="&#x218;" horiz-adv-x="353" 
d="M151 -143q-16 0 -27.5 11t-11.5 27v32q-7 12 -7 23v52q-49 16 -71 55.5t-22 102.5v168q0 16 11.5 27.5t27.5 11.5h71q-22 26 -41 50t-38 50t-25 56t-6 65v119q0 169 165 169q87 0 123.5 -42t36.5 -127v-144q0 -17 -11 -28t-27 -11h-84q33 -38 57 -67.5t39 -57t22 -57.5
t7 -68v-114q0 -63 -22 -102.5t-70 -55.5v-67q0 -35 -19 -56.5t-62 -21.5h-16zM167 -105q23 0 32.5 11t9.5 29v84h-66v-69h32v-16q0 -12 -11 -12h-13v-27h16zM213 160q0 -42 -39 -42q-20 0 -29 11t-9 31v168h-85v-168q0 -63 29.5 -96.5t96.5 -33.5q66 0 95 33.5t29 96.5v114
q0 40 -6.5 68.5t-26.5 56.5q-26 37 -55.5 69.5t-56.5 67.5q-9 12 -12 24t-3 29v118q0 41 38 41q20 0 28.5 -11t8.5 -31v-143h83v144q0 66 -28 98t-94 32q-126 0 -126 -130v-119q0 -29 5 -54t19 -45q29 -42 56 -72.5t54 -64.5q17 -21 22.5 -37.5t5.5 -41.5v-113z" />
    <glyph glyph-name="scommaaccent" unicode="&#x219;" horiz-adv-x="322" 
d="M135 -143q-16 0 -27 11t-11 27v32q-8 11 -8 23v52q-77 29 -77 141v94q0 16 11.5 27.5t27.5 11.5h59q-34 37 -53.5 60.5t-29.5 42t-12.5 38.5t-2.5 51v57q0 85 37.5 120.5t108.5 35.5q43 0 71 -9t44.5 -28.5t23.5 -49t7 -69.5v-94q0 -16 -11 -27t-27 -11h-53
q32 -35 51 -57t28.5 -41.5t12 -41t2.5 -55.5v-59q0 -56 -18.5 -89t-56.5 -47v-68q0 -35 -19 -56.5t-61 -21.5h-17zM152 -105q22 0 32 11t10 29v84h-66v-69h31v-16q0 -12 -10 -12h-14v-27h17zM269 198q0 37 -6.5 62t-26.5 51t-44 49t-47 52q-11 14 -13 24t-2 24v65
q0 37 30 37q15 0 24 -9.5t9 -27.5v-94h73v94q0 61 -22.5 89t-85.5 28q-52 0 -79.5 -26t-27.5 -91v-57q0 -29 5.5 -52.5t20.5 -43.5q23 -29 47 -54t47 -54q11 -15 14.5 -25t3.5 -30v-64q0 -37 -32 -37q-15 0 -24 9.5t-9 27.5v92h-73v-94q0 -59 26 -86t79 -27q57 0 85 25
t28 84v59z" />
    <glyph glyph-name="uni021A" unicode="&#x21a;" horiz-adv-x="326" 
d="M137 -143q-16 0 -27 11t-11 27v32q-8 11 -8 23v62q-10 10 -10 26v663h-45q-16 0 -27 11t-11 27v89q0 17 11 28t27 11h254q16 0 27 -11t11 -28v-89q0 -16 -11 -27t-27 -11h-44v-663q0 -16 -12 -26v-77q0 -35 -19 -56.5t-61 -21.5h-17zM154 -105q22 0 32 11t10 29v84h-66
v-69h31v-16q0 -12 -10 -12h-14v-27h17zM207 38v701h83v89h-254v-89h83v-701h88z" />
    <glyph glyph-name="uni021B" unicode="&#x21b;" horiz-adv-x="237" 
d="M112 -143q-16 0 -27 11t-11 27v32q-8 11 -8 23v69q0 6 1 9q-42 41 -42 125v372q-12 3 -20.5 13.5t-8.5 24.5v70q0 13 8.5 23t20.5 14v151q0 16 11 27t27 11h81q16 0 27 -11t11 -27v-150h17q16 0 27 -11t11 -27v-70q0 -17 -11 -28t-27 -11h-17v-370q0 -17 6 -17h3
q4 1 11 1q16 0 26.5 -10.5t10.5 -27.5v-66q0 -11 -9.5 -24t-20.5 -13v-62q0 -35 -19 -56.5t-61 -21.5h-17zM129 -105q22 0 32 11t10 29v84h-66v-69h31v-16q0 -12 -10 -12h-14v-27h17zM201 100q-3 -1 -6.5 -1h-6.5q-44 0 -44 55v409h55v70h-55v188h-81v-188h-28v-70h28v-410
q0 -58 26.5 -90.5t81.5 -32.5q8 0 16 1t14 3v66z" />
    <glyph glyph-name="circumflex" unicode="&#x2c6;" horiz-adv-x="425" 
d="M277 630q-8 0 -18 5.5t-15 13.5l-33 56l-34 -57q-5 -7 -15 -12.5t-18 -5.5h-74q-18 0 -28.5 10.5t-10.5 25.5q0 12 6 23l98 155q4 6 14.5 11.5t18.5 5.5h94q8 0 18 -5.5t15 -12.5l93 -155q6 -11 6 -22q0 -15 -11 -25.5t-28 -10.5h-78zM355 668l-93 155h-94l-98 -155h74
l68 112l65 -112h78z" />
    <glyph glyph-name="caron" unicode="&#x2c7;" horiz-adv-x="425" 
d="M163 630q-8 0 -18 5.5t-14 12.5l-94 155q-6 9 -6 22q0 14 11 25t28 11h78q8 0 18.5 -5.5t14.5 -13.5l33 -56l35 57q4 7 14 12.5t18 5.5h74q18 0 29 -11t11 -25q0 -13 -7 -23l-98 -155q-4 -7 -14.5 -12t-18.5 -5h-94zM257 668l98 155h-74l-68 -112l-65 112h-78l93 -155h94
z" />
    <glyph glyph-name="breve" unicode="&#x2d8;" horiz-adv-x="383" 
d="M323 855q16 0 27 -11t11 -27q0 -55 -10 -90.5t-30.5 -56t-52 -28.5t-74.5 -8q-48 0 -81 8t-53 28.5t-28.5 56t-8.5 90.5q0 16 11 27t27 11h72q17 0 28 -11t11 -27q0 -20 1.5 -32t4 -18.5t6 -8.5t8.5 -2q4 0 7.5 2t6 8.5t4 18.5t1.5 32q0 16 11 27t28 11h73zM250 817
q0 -33 -4.5 -52.5t-12.5 -30t-18.5 -13.5t-22.5 -3q-13 0 -23.5 3t-18.5 13.5t-12.5 30t-4.5 52.5h-72q0 -43 6.5 -71t22.5 -44.5t41 -23t63 -6.5q33 0 57.5 6.5t40 23t23.5 44.5t8 71h-73z" />
    <glyph glyph-name="dotaccent" unicode="&#x2d9;" horiz-adv-x="203" 
d="M61 641q-16 0 -27 11.5t-11 27.5v120q0 16 11 27t27 11h80q16 0 27.5 -11t11.5 -27v-120q0 -16 -11.5 -27.5t-27.5 -11.5h-80zM141 680v120h-80v-120h80z" />
    <glyph glyph-name="ring" unicode="&#x2da;" horiz-adv-x="310" 
d="M288 746q0 -49 -32.5 -81t-100.5 -32q-67 0 -99.5 32t-32.5 81q0 51 32.5 83t99.5 32q68 0 100.5 -32t32.5 -83zM207 746q0 -20 -12 -30t-40 -10q-54 0 -54 40q0 42 54 42q28 0 40 -10.5t12 -31.5zM250 746q0 34 -23.5 55.5t-71.5 21.5t-71 -21.5t-23 -55.5
q0 -32 23 -53.5t71 -21.5t71.5 21.5t23.5 53.5z" />
    <glyph glyph-name="ogonek" unicode="&#x2db;" horiz-adv-x="312" 
d="M291 -9q0 -65 -32.5 -99.5t-114.5 -34.5q-52 0 -86.5 26.5t-34.5 78.5q0 47 35 77t101 38h67q16 0 24 -11.5t9 -26.5q14 -2 23 -12.5t9 -24.5v-11zM252 2h-67v-11q0 -17 -7 -28.5t-30 -11.5q-17 0 -24 8.5t-7 17.5q0 23 25.5 38t83.5 23h-63q-49 -5 -75.5 -25t-26.5 -51
q0 -33 24 -50t59 -17q62 0 85 25t23 71v11z" />
    <glyph glyph-name="tilde" unicode="&#x2dc;" horiz-adv-x="356" 
d="M333 717q0 -13 -9 -24t-23 -19.5t-31.5 -13.5t-34.5 -5q-20 0 -36.5 4.5t-30.5 10.5t-27 10.5t-26 4.5q-6 0 -12.5 -4.5t-13 -9.5t-13.5 -9.5t-16 -4.5q-15 0 -26.5 10.5t-11.5 28.5v82q17 21 41.5 35.5t56.5 14.5q18 0 34 -4.5t30 -10.5t28 -10.5t28 -4.5q9 0 15.5 4
t12.5 9.5t12.5 9.5t15.5 4q14 0 25.5 -10.5t11.5 -28.5v-69zM295 786h-1q-9 -12 -23 -19.5t-31 -7.5t-31 4.5t-28 10.5t-29 10.5t-32 4.5q-23 0 -37 -7t-23 -18v-68h1q11 14 24 21t30 7q15 0 29.5 -5t29 -10.5t29.5 -10.5t32 -5q20 0 34.5 6.5t25.5 17.5v69z" />
    <glyph glyph-name="hungarumlaut" unicode="&#x2dd;" horiz-adv-x="490" 
d="M61 630q-18 0 -28.5 10.5t-10.5 24.5q0 13 8 24l105 155q4 6 14 11.5t18 5.5h103q8 0 16 -3t13 -8q5 4 13 7.5t13 3.5h104q18 0 28.5 -11t10.5 -25q0 -7 -2 -14t-8 -13l-133 -155q-3 -5 -13 -9t-15 -4h-77q-16 0 -27 8t-13 22l-13 -17q-4 -5 -13.5 -9t-15.5 -4h-77z
M138 668l132 155h-103l-106 -155h77zM297 668l132 155h-104l-105 -155h77z" />
    <glyph glyph-name="Delta" unicode="&#x394;" horiz-adv-x="379" 
d="M36 0q-19 0 -28.5 12.5t-9.5 30.5l97 790q2 14 13 24t25 10h119q14 0 25 -10.5t13 -24.5l90 -790q0 -17 -9 -29.5t-29 -12.5h-306zM133 127q12 103 20.5 182.5t15 143.5t11.5 116.5t10 103.5q4 -50 8.5 -103.5t10.5 -117.5t13.5 -143.5t18.5 -181.5h-108zM342 38l-90 790
h-119l-97 -790h306z" />
    <glyph glyph-name="Omega" unicode="&#x3a9;" horiz-adv-x="309" 
d="M60 0q-17 0 -28 11t-11 27v89q0 14 8.5 24t21.5 13q-13 54 -23.5 138.5t-10.5 196.5v197q0 95 31.5 137.5t107.5 42.5q75 0 106 -41.5t31 -137.5v-198q0 -111 -10.5 -196t-24.5 -139q14 -3 22.5 -13t8.5 -24v-89q0 -16 -11 -27t-27 -11h-191zM251 38v89h-44q17 42 32 138
t15 234v198q0 75 -22 107.5t-76 32.5q-55 0 -77.5 -33t-22.5 -108v-197q0 -69 4.5 -127.5t11 -106t14.5 -82.5t16 -56h-42v-89h86v80q-11 55 -17.5 150.5t-6.5 235.5v193q0 28 8 39.5t26 11.5q17 0 24 -11.5t7 -39.5v-193q0 -140 -6 -235.5t-17 -150.5v-80h87z" />
    <glyph glyph-name="mu" unicode="&#x3bc;" horiz-adv-x="346" 
d="M216 0q-13 0 -25 10l-11 -4v-101q0 -16 -11.5 -27t-27.5 -11h-81q-16 0 -27 11t-11 27v728q0 16 11 27t27 11h81q20 0 32 -17q12 17 31 17h80q16 0 27.5 -11t11.5 -27v-595q0 -16 -11.5 -27t-27.5 -11h-68zM284 38v595h-80v-500q-13 -22 -36 -22q-14 0 -20.5 8t-6.5 28
v486h-81v-728h81v134q23 0 42.5 8.5t30.5 28.5v-17v-10.5t2 -10.5h68z" />
    <glyph glyph-name="pi" unicode="&#x3c0;" horiz-adv-x="428" 
d="M430 41q0 -16 -10 -25.5t-25 -14t-33.5 -5.5t-35.5 -1q-57 0 -91.5 21.5t-46.5 60.5v-39q0 -16 -11 -27t-27 -11h-89q-16 0 -27 11t-11 27v595q0 16 11 27t27 11h247q16 0 27.5 -11t11.5 -27v-483q0 -8 1 -13t6 -5q12 0 18 1l9 1.5t5 1.5t7 1q15 0 26 -11t11 -28v-57z
M392 98q-12 -5 -38 -5q-31 0 -38.5 17t-7.5 40v483h-247v-595h89v536h69v-443q0 -47 26 -72t81 -25q38 0 66 7v57z" />
    <glyph glyph-name="Wgrave" unicode="&#x1e80;" horiz-adv-x="564" 
d="M328 0q-14 0 -25 10t-13 25l-14 135l-13 -135q-2 -15 -13 -25t-25 -10h-106q-14 0 -25 10t-13 25l-82 790q0 17 9.5 29.5t28.5 12.5h93q14 0 25 -10.5t13 -25.5l14 -182l21 183q1 8 4 14.5t9 10.5l-115 137q-11 11 -11 26t11 26t29 11h101q7 0 17.5 -5.5t14.5 -10.5
l107 -155q7 -14 7 -24q0 -8 -3.5 -16.5t-11.5 -13.5l16 -172l18 172q1 15 12.5 25t25.5 10h93q19 0 28.5 -13t9.5 -30l-94 -790q-2 -14 -13 -24t-25 -10h-105zM338 864l-107 155h-101l131 -155h77zM433 38l94 790h-93q-10 -104 -19.5 -202t-17.5 -177.5t-13.5 -134
t-6.5 -71.5q-1 17 -6 71.5t-12.5 134t-16.5 177.5t-18 202h-83q-12 -104 -22.5 -202t-19 -177.5t-14 -134t-6.5 -71.5q-1 17 -6 71.5t-12 134t-15.5 177.5t-15.5 202h-93l82 -790h106q10 99 19 191.5t16.5 166.5t12.5 124.5t6 65.5q0 -15 4 -65t10.5 -124.5t15.5 -167
t19 -191.5h105z" />
    <glyph glyph-name="wgrave" unicode="&#x1e81;" horiz-adv-x="459" 
d="M264 0q-16 0 -26.5 9t-11.5 24q-2 -11 -13 -22t-28 -11h-93q-14 0 -25 10.5t-13 25.5l-54 594q0 17 10 29t28 12h74q15 0 26.5 -9.5t12.5 -25.5q3 15 13 24l-116 138q-11 11 -11 27q0 14 11 25t29 11h102q6 0 16.5 -5.5t14.5 -10.5l107 -155q5 -7 6 -13t1 -13q12 7 22 7
h74q18 0 28 -12.5t10 -29.5l-62 -594q-1 -15 -12.5 -25t-25.5 -10h-94zM285 668l-106 155h-102l131 -155h77zM358 38l62 595h-74l-40 -438l-41 438h-74l-47 -438l-32 438h-74l54 -595h93l42 412l37 -412h94z" />
    <glyph glyph-name="Wacute" unicode="&#x1e82;" horiz-adv-x="564" 
d="M328 0q-14 0 -25 10t-13 25l-14 135l-13 -135q-2 -15 -13 -25t-25 -10h-106q-14 0 -25 10t-13 25l-82 790q0 17 9.5 29.5t28.5 12.5h93q14 0 25 -10.5t13 -25.5l14 -182l21 182q-17 11 -17 30q0 11 8 24l106 155q3 5 13.5 11t17.5 6h103q18 0 28.5 -11t10.5 -26
q0 -13 -10 -26l-115 -136q5 -5 9 -12t5 -15l16 -171l18 172q1 15 12.5 25t25.5 10h93q19 0 28.5 -13t9.5 -30l-94 -790q-2 -14 -13 -24t-25 -10h-105zM302 864l132 155h-103l-105 -155h76zM433 38l94 790h-93q-10 -104 -19.5 -202t-17.5 -177.5t-13.5 -134t-6.5 -71.5
q-1 17 -6 71.5t-12.5 134t-16.5 177.5t-18 202h-83q-12 -104 -22.5 -202t-19 -177.5t-14 -134t-6.5 -71.5q-1 17 -6 71.5t-12 134t-15.5 177.5t-15.5 202h-93l82 -790h106q10 99 19 191.5t16.5 166.5t12.5 124.5t6 65.5q0 -15 4 -65t10.5 -124.5t15.5 -167t19 -191.5h105z
" />
    <glyph glyph-name="wacute" unicode="&#x1e83;" horiz-adv-x="459" 
d="M264 0q-15 0 -26.5 8.5t-13.5 23.5q-4 -14 -14 -23t-25 -9h-93q-14 0 -25 10.5t-13 25.5l-54 594q0 17 10 29t28 12h74q13 0 21 -6q0 13 8 24l106 155q4 6 14 11.5t17 5.5h103q18 0 28.5 -11t10.5 -25q0 -16 -10 -27l-118 -138q5 -5 8 -13t5 -27q3 26 14 38.5t27 12.5h74
q18 0 28 -12.5t10 -29.5l-62 -594q-1 -15 -12.5 -25t-25.5 -10h-94zM250 668l131 155h-103l-105 -155h77zM358 38l62 595h-74l-40 -438l-41 438h-74l-47 -438l-32 438h-74l54 -595h93l42 412l37 -412h94z" />
    <glyph glyph-name="Wdieresis" unicode="&#x1e84;" horiz-adv-x="564" 
d="M328 0q-14 0 -25 10t-13 25l-14 135l-13 -135q-2 -15 -13 -25t-25 -10h-106q-14 0 -25 10t-13 25l-82 790q0 17 9.5 29.5t28.5 12.5h95q-1 3 -1 9v120q0 16 11 27t27 11h80q22 0 32 -19q5 8 14 13.5t20 5.5h81q16 0 27 -11t11 -27v-120q0 -2 -0.5 -4.5t-0.5 -4.5h94
q19 0 28.5 -13t9.5 -30l-94 -790q-2 -14 -13 -24t-25 -10h-105zM203 837h-36l15 -188zM378 650l18 187h-35zM249 876v120h-80v-120h80zM396 876v120h-81v-120h81zM433 38l94 790h-93q-10 -104 -19.5 -202t-17.5 -177.5t-13.5 -134t-6.5 -71.5q-1 17 -6 71.5t-12.5 134
t-16.5 177.5t-18 202h-83q-12 -104 -22.5 -202t-19 -177.5t-14 -134t-6.5 -71.5q-1 17 -6 71.5t-12 134t-15.5 177.5t-15.5 202h-93l82 -790h106q10 99 19 191.5t16.5 166.5t12.5 124.5t6 65.5q0 -15 4 -65t10.5 -124.5t15.5 -167t19 -191.5h105z" />
    <glyph glyph-name="wdieresis" unicode="&#x1e85;" horiz-adv-x="459" 
d="M264 0q-15 0 -26.5 9.5t-12.5 31.5q-2 -17 -12.5 -29t-27.5 -12h-93q-14 0 -25 10.5t-13 25.5l-54 594q0 17 10 29t28 12h41q-1 3 -1 9v120q0 16 11 27t27 11h80q22 0 32 -19q5 8 14 13.5t20 5.5h81q16 0 27 -11t11 -27v-120q0 -2 -0.5 -4.5t-0.5 -4.5h40q18 0 28 -12.5
t10 -29.5l-62 -594q-1 -15 -12.5 -25t-25.5 -10h-94zM196 680v120h-80v-120h80zM343 680v120h-81v-120h81zM358 38l62 595h-74l-40 -438l-41 438h-74l-47 -438l-32 438h-74l54 -595h93l42 412l37 -412h94z" />
    <glyph glyph-name="Ygrave" unicode="&#x1ef2;" horiz-adv-x="374" 
d="M140 0q-16 0 -27 11t-11 27v342l-105 440q-1 2 -1 4.5v4.5q0 17 11 27.5t28 10.5h79l-107 127q-11 11 -11 26t11 26t29 11h101q7 0 17.5 -5.5t14.5 -10.5l107 -155q2 -5 4 -9.5t3 -9.5h57q17 0 27.5 -10.5t10.5 -27.5v-4.5t-1 -5.5l-108 -441v-340q0 -16 -11 -27t-28 -11
h-90zM214 826h-48l24 -121zM244 864l-107 155h-101l131 -155h77zM230 38v346l110 444h-87q-9 -48 -19 -98t-19.5 -93t-16.5 -75.5t-9 -45.5q-2 14 -8.5 46t-15.5 75t-18.5 92.5t-18.5 98.5h-93l105 -444v-346h90z" />
    <glyph glyph-name="ygrave" unicode="&#x1ef3;" horiz-adv-x="321" 
d="M6 -15q0 17 10.5 27.5t26.5 10.5q7 0 12 -2t19 -2q5 0 6.5 5t1.5 19l-85 584q0 2 -0.5 3.5t-0.5 3.5q0 16 11.5 26.5t28.5 10.5h51l-107 127q-11 11 -11 27q0 14 11 25t29 11h101q7 0 17.5 -5.5t14.5 -10.5l107 -155q2 -5 4 -9.5t3 -9.5h27q20 0 29.5 -13t9.5 -31
l-81 -572q-6 -45 -15.5 -81t-27 -60.5t-46 -38t-72.5 -13.5q-14 0 -27 1.5t-23.5 6t-17 13t-6.5 22.5v80zM217 668l-107 155h-101l131 -155h77zM44 -95q18 -5 36 -5q33 0 54 11t34.5 32t21 50.5t13.5 66.5l80 573h-77q-10 -79 -17 -139.5t-12 -109t-9.5 -89t-8.5 -79.5
q-3 39 -6 79.5t-8 89t-11 109t-15 139.5h-83l83 -576l-2 -13q-5 -29 -12.5 -46t-27.5 -17q-21 0 -33 4v-80z" />
    <glyph glyph-name="endash" unicode="&#x2013;" horiz-adv-x="323" 
d="M38 364q-16 0 -27 11t-11 27v68q0 17 11 28t27 11h247q16 0 27.5 -11t11.5 -28v-68q0 -16 -11.5 -27t-27.5 -11h-247zM285 402v68h-247v-68h247z" />
    <glyph glyph-name="emdash" unicode="&#x2014;" horiz-adv-x="478" 
d="M38 364q-16 0 -27 11t-11 27v68q0 17 11 28t27 11h404q16 0 27 -11t11 -28v-68q0 -16 -11 -27t-27 -11h-404zM442 402v68h-404v-68h404z" />
    <glyph glyph-name="quoteleft" unicode="&#x2018;" horiz-adv-x="194" 
d="M56 619q-16 0 -27.5 11t-11.5 28v117q0 41 23 70.5t78 29.5h10q16 0 27 -11.5t11 -27.5v-36q0 -8 -3 -15q14 -9 14 -29v-98q0 -17 -11.5 -28t-27.5 -11h-82zM138 658v98h-37v24q0 20 17 20h10v36h-10q-34 0 -48 -17.5t-14 -43.5v-117h82z" />
    <glyph glyph-name="quoteright" unicode="&#x2019;" horiz-adv-x="194" 
d="M66 612q-16 0 -27 11t-11 27v36q0 10 2 14q-13 13 -13 30v98q0 17 11.5 28t27.5 11h82q16 0 27.5 -11t11.5 -28v-116q0 -41 -23 -70.5t-78 -29.5h-10zM76 650q34 0 48 18t14 44v116h-82v-98h37v-23q0 -21 -18 -21h-9v-36h10z" />
    <glyph glyph-name="quotesinglbase" unicode="&#x201a;" horiz-adv-x="201" 
d="M70 -59q-16 0 -27 11.5t-11 27.5v36q0 10 2 15q-13 10 -13 29v98q0 17 11 28t28 11h82q16 0 27 -11t11 -28v-116q0 -21 -5.5 -39t-17.5 -32t-31 -22t-46 -8h-10zM80 -20q34 0 48 18t14 44v116h-82v-98h37v-24q0 -20 -18 -20h-9v-36h10z" />
    <glyph glyph-name="quotedblleft" unicode="&#x201c;" horiz-adv-x="334" 
d="M196 619q-18 0 -29 13q-13 -13 -29 -13h-82q-16 0 -27.5 11t-11.5 28v117q0 41 23 70.5t78 29.5h10q16 0 27 -11.5t11 -27.5v-14q10 23 32 38t60 15h10q16 0 27 -11.5t11 -27.5v-36q0 -8 -3 -15q14 -9 14 -29v-98q0 -17 -11 -28t-28 -11h-82zM278 658v98h-37v24
q0 20 17 20h10v36h-10q-34 0 -48 -17.5t-14 -43.5v-117h82zM138 658v98h-37v24q0 20 17 20h10v36h-10q-34 0 -48 -17.5t-14 -43.5v-117h82z" />
    <glyph glyph-name="quotedblright" unicode="&#x201d;" horiz-adv-x="334" 
d="M206 612q-16 0 -27 11t-11 27v14q-10 -23 -32 -37.5t-60 -14.5h-10q-16 0 -27 11t-11 27v36q0 10 2 14q-13 13 -13 30v98q0 17 11.5 28t27.5 11h82q17 0 29 -14q11 14 29 14h82q17 0 28 -11t11 -28v-116q0 -41 -23 -70.5t-78 -29.5h-10zM216 650q34 0 48 18t14 44v116
h-82v-98h37v-23q0 -21 -18 -21h-9v-36h10zM76 650q34 0 48 18t14 44v116h-82v-98h37v-23q0 -21 -18 -21h-9v-36h10z" />
    <glyph glyph-name="quotedblbase" unicode="&#x201e;" horiz-adv-x="348" 
d="M217 -59q-16 0 -27 11.5t-11 27.5v38q-6 -33 -29.5 -55t-69.5 -22h-10q-16 0 -27 11.5t-11 27.5v36q0 10 2 15q-13 10 -13 29v98q0 17 11 28t28 11h82q11 0 19 -5t13 -12q5 7 13.5 12t18.5 5h83q16 0 27 -11t11 -28v-116q0 -21 -5.5 -39t-17.5 -32t-31 -22t-46 -8h-10z
M227 -20q34 0 48 18t14 44v116h-83v-98h38v-24q0 -20 -18 -20h-9v-36h10zM80 -20q34 0 48 18t14 44v116h-82v-98h37v-24q0 -20 -18 -20h-9v-36h10z" />
    <glyph glyph-name="dagger" unicode="&#x2020;" horiz-adv-x="436" 
d="M186 187q-17 0 -28 11.5t-10 28.5l8 354q-25 -2 -50.5 -3.5t-49.5 -1.5q-16 0 -27.5 10.5t-11.5 27.5v65q0 17 12 27.5t29 10.5l96 -6l-7 117q0 17 10.5 28t27.5 11h65q17 0 27.5 -11t10.5 -28l-6 -116l96 6q17 0 29 -10.5t12 -27.5v-66q0 -17 -12 -27.5t-29 -10.5
l-100 5q0 -91 4 -177t4 -177q0 -17 -11 -28.5t-27 -11.5h-62zM248 226l-8 395l140 -7v66l-138 -9l8 157h-65l8 -157l-137 8v-65l139 7l-9 -395h62z" />
    <glyph glyph-name="daggerdbl" unicode="&#x2021;" horiz-adv-x="436" 
d="M185 0q-17 0 -27.5 11t-10.5 28l7 117q-26 -2 -50 -3.5t-48 -1.5q-16 0 -27.5 10.5t-11.5 27.5v63q0 18 12 28.5t29 10.5l96 -6l-13 149l13 147q-26 -2 -50 -3.5t-48 -1.5q-16 0 -27.5 10.5t-11.5 27.5v65q0 17 12 27.5t29 10.5l96 -6l-7 117q0 17 10.5 28t27.5 11h65
q17 0 27.5 -11t10.5 -28l-6 -116l96 6q17 0 29 -10.5t12 -27.5v-66q0 -17 -12 -27.5t-29 -10.5l-97 5l13 -147l-13 -149q25 2 49.5 4t49.5 2q16 0 27.5 -11t11.5 -28v-65q0 -17 -12 -27.5t-29 -10.5l-96 6q2 -29 4 -59.5t2 -58.5q0 -16 -11 -26.5t-27 -10.5h-65zM250 38
l-8 158l138 -9v65l-140 -7l15 189l-15 187l140 -7v66l-138 -9l8 157h-65l8 -157l-137 8v-65l139 7l-15 -187l15 -189l-139 7v-63l137 7l-8 -158h65z" />
    <glyph glyph-name="bullet" unicode="&#x2022;" horiz-adv-x="255" 
d="M129 368q-53 0 -82.5 34.5t-29.5 87.5q0 25 7.5 47t22 38.5t35.5 26t47 9.5t46.5 -9.5t34.5 -26t21.5 -38.5t7.5 -47q0 -53 -29 -87.5t-81 -34.5zM129 406q34 0 53 24.5t19 59.5t-19 58.5t-53 23.5q-35 0 -54 -23.5t-19 -58.5t19 -59.5t54 -24.5z" />
    <glyph glyph-name="ellipsis" unicode="&#x2026;" horiz-adv-x="750" 
d="M56 0q-16 0 -27.5 11t-11.5 27v120q0 17 11.5 28t27.5 11h82q16 0 27.5 -11t11.5 -28v-120q0 -16 -11.5 -27t-27.5 -11h-82zM334 0q-16 0 -27 11t-11 27v120q0 17 11 28t27 11h83q16 0 27 -11t11 -28v-120q0 -16 -11 -27t-27 -11h-83zM612 0q-16 0 -27 11t-11 27v120
q0 17 11 28t27 11h83q16 0 27 -11t11 -28v-120q0 -16 -11 -27t-27 -11h-83zM695 38v120h-83v-120h83zM417 38v120h-83v-120h83zM138 38v120h-82v-120h82z" />
    <glyph glyph-name="perthousand" unicode="&#x2030;" horiz-adv-x="644" 
d="M54 0q-17 0 -28.5 10.5t-11.5 25.5q0 10 4 18l155 347q-5 -1 -10.5 -1h-10.5q-55 0 -80 27.5t-25 78.5v270q0 51 25 78t80 27q103 0 103 -105v-190l116 258q3 8 14.5 15.5t20.5 7.5h59q17 0 28 -10.5t11 -26.5q0 -9 -4 -17l-154 -347q5 1 10 1h11q52 0 78 -28
q26 28 80 28q104 0 104 -106v-270q0 -105 -104 -105q-55 0 -80 27q-26 -27 -78 -27q-55 0 -80 27t-25 78v186l-113 -254q-4 -8 -15 -15.5t-21 -7.5h-59zM539 90q0 -14 -14 -14t-14 14v272q0 14 14 14t14 -14v-272zM459 91q0 -32 15.5 -49.5t50.5 -17.5q65 0 65 67v270
q0 67 -65 67q-35 0 -50.5 -17.5t-15.5 -49.5v-270zM380 90q0 -14 -13 -14q-15 0 -15 14v272q0 14 15 14q13 0 13 -14v-272zM300 91q0 -67 67 -67q65 0 65 67v270q0 67 -65 67q-67 0 -67 -67v-270zM113 38l352 790h-59l-352 -790h59zM165 505q0 -14 -13 -14q-15 0 -15 14v272
q0 14 15 14q13 0 13 -14v-272zM85 506q0 -67 67 -67q65 0 65 67v270q0 67 -65 67q-67 0 -67 -67v-270z" />
    <glyph glyph-name="guilsinglleft" unicode="&#x2039;" horiz-adv-x="241" 
d="M22 281q-6 4 -11 14.5t-5 17.5v91q0 8 5.5 18t11.5 14l153 102q12 7 23 7q15 0 25.5 -11t10.5 -28v-75q0 -8 -5.5 -18t-11.5 -14l-62 -40l63 -44q6 -4 11 -14t5 -18v-78q0 -18 -11 -28.5t-25 -10.5q-15 0 -24 8zM197 205v78l-111 76l111 72v75l-153 -102v-91z" />
    <glyph glyph-name="guilsinglright" unicode="&#x203a;" horiz-adv-x="241" 
d="M66 174q-5 -5 -11.5 -6.5t-12.5 -1.5q-14 0 -25 10.5t-11 28.5v78q0 8 5 18t11 14l64 44q-11 7 -25 14.5t-26 16.5t-20.5 19t-8.5 22v75q0 17 10.5 28t24.5 11q12 0 24 -7l153 -102q6 -4 11.5 -14t5.5 -18v-91q0 -7 -5 -17.5t-11 -14.5zM197 313v91l-153 102v-75l111 -72
l-111 -76v-78z" />
    <glyph glyph-name="fraction" unicode="&#x2044;" horiz-adv-x="216" 
d="M-97 0q-17 0 -28 10.5t-11 25.5q0 10 4 18l352 790q4 8 15 15.5t20 7.5h59q17 0 28 -10.5t11 -26.5q0 -9 -4 -17l-351 -790q-4 -8 -15 -15.5t-20 -7.5h-60zM-37 38l351 790h-59l-352 -790h60z" />
    <glyph glyph-name="zerosuperior" unicode="&#x2070;" horiz-adv-x="241" 
d="M16 776q0 51 25 78t80 27q104 0 104 -105v-270q0 -106 -104 -106q-55 0 -80 27.5t-25 78.5v270zM134 505q0 -14 -13 -14q-14 0 -14 14v272q0 14 14 14q13 0 13 -14v-272zM55 506q0 -32 15.5 -49.5t50.5 -17.5q65 0 65 67v270q0 67 -65 67q-35 0 -50.5 -17.5t-15.5 -49.5
v-270z" />
    <glyph glyph-name="foursuperior" unicode="&#x2074;" horiz-adv-x="237" 
d="M125 405q-16 0 -27.5 11t-11.5 28v37h-42q-16 0 -27 11t-11 27v49l82 281q3 11 14 19t23 8h48q16 0 27 -11t11 -27v-236q19 -11 19 -33v-50q0 -11 -5 -19.5t-14 -13.5v-42q0 -17 -11 -28t-27 -11h-48zM173 444v75h19v50h-19v269h-48l-81 -274v-45h81v-75h48zM90 569
q19 61 26.5 90.5t11.5 46.5q0 -18 -1.5 -48t-1.5 -89h-35z" />
    <glyph glyph-name="fivesuperior" unicode="&#x2075;" horiz-adv-x="235" 
d="M16 588q0 14 7 22q-7 10 -7 22l5 207q0 16 10.5 26.5t28.5 10.5h119q16 0 27 -11t11 -27v-52q0 -16 -11 -27t-27 -11h-35l-1 -16q35 -2 56 -24.5t21 -74.5v-128q0 -105 -101 -105q-103 0 -103 105v83zM137 623q0 -2 -1 -3q0 1 0.5 1.5t0.5 1.5zM131 506q0 -14 -13 -14
q-11 0 -11 14v82h-52v-83q0 -66 64 -66q62 0 62 66v128q0 34 -12 47.5t-32 13.5q-22 0 -34 -12l4 104h72v52h-119l-5 -207l44 -2q3 19 18 19q14 0 14 -13v-129z" />
    <glyph glyph-name="sixsuperior" unicode="&#x2076;" horiz-adv-x="237" 
d="M222 506q0 -49 -26 -77.5t-77 -28.5q-52 0 -77.5 28.5t-25.5 77.5v270q0 49 25.5 77t77.5 28q51 0 75.5 -28t24.5 -77v-68q0 -13 -6 -22q9 -21 9 -55v-125zM183 631q0 32 -11 46t-35 14q-12 0 -18.5 -4t-11.5 -7v96q0 14 12 14t12 -14v-68h49v68q0 31 -14.5 49t-46.5 18
t-48 -18t-16 -49v-270q0 -31 16 -49t48 -18t48 18t16 49v125zM131 506q0 -14 -12 -14t-12 14v127q2 3 4 5.5t8 2.5q12 0 12 -14v-121z" />
    <glyph glyph-name="sevensuperior" unicode="&#x2077;" horiz-adv-x="222" 
d="M67 405q-16 0 -27 11t-11 28q0 110 14 184.5t29 119.5h-26q-16 0 -27 11t-11 27v52q0 16 11 27t27 11h130q16 0 27 -11t11 -27v-57q-32 -72 -44.5 -156t-12.5 -181q0 -17 -11 -28t-27 -11h-52zM119 444q1 102 13 188t44 158v48h-130v-52h81q-2 -2 -11.5 -24.5t-20.5 -65
t-19.5 -106t-8.5 -146.5h52z" />
    <glyph glyph-name="eightsuperior" unicode="&#x2078;" horiz-adv-x="234" 
d="M219 506q0 -106 -102 -106q-103 0 -103 106v96q0 14 3.5 25.5t8.5 22.5q-7 17 -7 40v86q0 49 22 77t76 28q52 0 75 -28t23 -77v-86q0 -22 -7 -41q11 -18 11 -47v-96zM129 684q0 -15 -12 -15t-12 15v92q0 14 12 14t12 -14v-92zM129 506q0 -14 -12 -14t-12 14v100
q0 5 2.5 9.5t9.5 4.5q6 0 9 -4.5t3 -9.5v-100zM180 602q0 35 -24 46q10 7 15.5 16t5.5 26v86q0 31 -14 49t-46 18t-45.5 -18t-13.5 -49v-86q0 -17 4.5 -26t14.5 -16q-24 -11 -24 -46v-96q0 -67 64 -67q63 0 63 67v96z" />
    <glyph glyph-name="ninesuperior" unicode="&#x2079;" horiz-adv-x="236" 
d="M15 574q0 14 9 25q-9 21 -9 59v118q0 49 25.5 77t76.5 28q52 0 77.5 -28t25.5 -77v-270q0 -49 -25.5 -77.5t-77.5 -28.5q-48 0 -75 28.5t-27 77.5v68zM129 506q0 -14 -12 -14q-11 0 -11 14v68h-52v-68q0 -31 17 -49t46 -18q32 0 48 18t16 49v270q0 31 -16 49t-48 18
t-47.5 -18t-15.5 -49v-118q0 -35 10.5 -48.5t34.5 -13.5q11 0 18 4t12 8v-102zM129 658q-1 -3 -3.5 -6t-8.5 -3q-11 0 -11 15v112q0 14 11 14q12 0 12 -14v-118z" />
    <glyph glyph-name="zeroinferior" unicode="&#x2080;" horiz-adv-x="241" 
d="M16 361q0 51 25 78.5t80 27.5q104 0 104 -106v-270q0 -105 -104 -105q-55 0 -80 27t-25 78v270zM134 90q0 -14 -13 -14q-14 0 -14 14v272q0 14 14 14q13 0 13 -14v-272zM55 91q0 -32 15.5 -49.5t50.5 -17.5q65 0 65 67v270q0 67 -65 67q-35 0 -50.5 -17.5t-15.5 -49.5
v-270z" />
    <glyph glyph-name="oneinferior" unicode="&#x2081;" horiz-adv-x="180" 
d="M70 -10q-16 0 -27 11.5t-11 27.5v279q-10 5 -16 14.5t-6 21.5v51q0 13 8 22.5t19 13.5q3 13 13.5 22t24.5 9h47q16 0 27 -11.5t11 -27.5v-394q0 -16 -11 -27.5t-27 -11.5h-52zM122 29v394h-47v-9q0 -19 -17 -19h-10v-51h22v-315h52z" />
    <glyph glyph-name="twoinferior" unicode="&#x2082;" horiz-adv-x="232" 
d="M53 -10q-16 0 -27.5 11.5t-11.5 27.5v72q0 21 2 37.5t7.5 31.5t14 31t22.5 38l8 13h-15q-16 0 -27.5 11.5t-11.5 27.5v69q0 58 25 82.5t77 24.5q103 0 103 -107v-48q0 -64 -46 -132h1q-15 -23 -21.5 -36.5t-8.5 -24.5h36q17 0 28 -11t11 -27v-52q0 -16 -11 -27.5
t-28 -11.5h-127zM180 29v52h-75v20q0 12 1 21.5t4.5 21t11 25t19.5 32.5q39 58 39 111v48q0 68 -64 68q-32 0 -47.5 -15.5t-15.5 -52.5v-69h52v70q0 14 11 14q12 0 12 -14v-42q0 -29 -8.5 -50.5t-28.5 -50.5q-12 -18 -19.5 -32t-11.5 -27t-5.5 -26.5t-1.5 -31.5v-72h127z
" />
    <glyph glyph-name="threeinferior" unicode="&#x2083;" horiz-adv-x="232" 
d="M13 169q0 16 11.5 27t27.5 11h6v45h-4q-16 0 -27.5 11t-11.5 27v70q0 58 24 82.5t77 24.5t77 -25.5t24 -82.5v-89q0 -20 -8 -38q5 -9 7 -19.5t2 -24.5v-97q0 -49 -25 -77t-77 -28q-51 0 -77 28t-26 77v78zM129 91q0 -14 -13 -14q-11 0 -11 14v78h-53v-78q0 -31 16 -49
t48 -18t48 18t16 49v97q0 33 -24 41q23 14 23 41v89q0 37 -15.5 53t-47.5 16t-47 -15.5t-15 -52.5v-70h51v71q0 14 11 14q13 0 13 -14v-91q0 -16 -10 -16h-23v-49h20q13 0 13 -15v-99z" />
    <glyph glyph-name="fourinferior" unicode="&#x2084;" horiz-adv-x="237" 
d="M125 -10q-16 0 -27.5 11.5t-11.5 27.5v37h-42q-16 0 -27 11.5t-11 27.5v49l82 280q3 11 14 19.5t23 8.5h48q16 0 27 -11.5t11 -27.5v-236q19 -11 19 -32v-50q0 -23 -19 -34v-42q0 -16 -11 -27.5t-27 -11.5h-48zM173 29v76h19v50h-19v268h-48l-81 -273v-45h81v-76h48z
M90 155q9 30 15.5 52t11 37.5t7 26.5t4.5 20q0 -18 -1.5 -48t-1.5 -88h-35z" />
    <glyph glyph-name="fiveinferior" unicode="&#x2085;" horiz-adv-x="235" 
d="M16 174q0 13 7 21q-7 12 -7 22l5 207q0 16 10 27t29 11h119q16 0 27 -11.5t11 -27.5v-51q0 -17 -11 -28t-27 -11h-35l-1 -15q35 -2 56 -25t21 -75v-128q0 -104 -101 -104q-103 0 -103 104v84zM131 91q0 -14 -13 -14q-11 0 -11 14v83h-52v-84q0 -66 64 -66q62 0 62 66v128
q0 34 -12 47.5t-32 13.5q-23 0 -34 -12l4 105h72v51h-119l-5 -207l44 -2q3 19 18 19q14 0 14 -13v-129z" />
    <glyph glyph-name="sixinferior" unicode="&#x2086;" horiz-adv-x="237" 
d="M222 91q0 -49 -26 -77t-77 -28q-52 0 -77.5 28t-25.5 77v270q0 49 25.5 77.5t77.5 28.5q51 0 75.5 -28.5t24.5 -77.5v-68q0 -14 -6 -21q9 -23 9 -56v-125zM183 216q0 32 -11 46t-35 14q-12 0 -18.5 -3.5t-11.5 -7.5v96q0 14 12 14t12 -14v-68h49v68q0 31 -14.5 49
t-46.5 18t-48 -18t-16 -49v-270q0 -31 16 -49t48 -18t48 18t16 49v125zM131 91q0 -14 -12 -14t-12 14v127q2 4 4 6.5t8 2.5q12 0 12 -15v-121z" />
    <glyph glyph-name="seveninferior" unicode="&#x2087;" horiz-adv-x="222" 
d="M67 -10q-16 0 -27 11.5t-11 27.5q0 111 14 185t29 119h-26q-16 0 -27 11t-11 28v51q0 16 11 27.5t27 11.5h130q16 0 27 -11.5t11 -27.5v-56q-32 -72 -44.5 -156.5t-12.5 -181.5q0 -16 -11 -27.5t-27 -11.5h-52zM119 29q1 102 13 188t44 158v48h-130v-51h81
q-2 -2 -11.5 -24.5t-20.5 -65.5t-19.5 -106t-8.5 -147h52z" />
    <glyph glyph-name="eightinferior" unicode="&#x2088;" horiz-adv-x="234" 
d="M219 91q0 -105 -102 -105q-103 0 -103 105v96q0 14 3.5 26t8.5 22q-7 19 -7 41v85q0 49 22 77.5t76 28.5q52 0 75 -28.5t23 -77.5v-85q0 -23 -7 -42q11 -18 11 -47v-96zM129 269q0 -15 -12 -15t-12 15v92q0 14 12 14t12 -14v-92zM129 91q0 -14 -12 -14t-12 14v100
q0 14 12 14t12 -14v-100zM180 187q0 36 -24 46q10 7 15.5 16.5t5.5 26.5v85q0 31 -14 49t-46 18t-45.5 -18t-13.5 -49v-85q0 -17 4.5 -26.5t14.5 -16.5q-24 -10 -24 -46v-96q0 -67 64 -67q63 0 63 67v96z" />
    <glyph glyph-name="nineinferior" unicode="&#x2089;" horiz-adv-x="236" 
d="M15 159q0 13 9 24q-9 24 -9 60v118q0 49 25.5 77.5t76.5 28.5q52 0 77.5 -28.5t25.5 -77.5v-270q0 -49 -25.5 -77t-77.5 -28q-48 0 -75 28t-27 77v68zM129 91q0 -14 -12 -14q-11 0 -11 14v68h-52v-68q0 -31 17 -49t46 -18q32 0 48 18t16 49v270q0 31 -16 49t-48 18
t-47.5 -18t-15.5 -49v-118q0 -34 10.5 -48t34.5 -14q11 0 18 4t12 8v-102zM129 243q-1 -3 -3.5 -6t-8.5 -3q-11 0 -11 16v111q0 14 11 14q12 0 12 -14v-118z" />
    <glyph glyph-name="Euro" unicode="&#x20ac;" horiz-adv-x="385" 
d="M378 164q0 -85 -40 -129t-128 -44q-87 0 -128 44t-41 129v114h-6q-20 0 -29.5 13t-9.5 31l11 67q2 12 11.5 21.5t22.5 11.5v36h-6q-20 0 -29.5 12.5t-9.5 30.5l11 68q2 13 9.5 22.5t24.5 11.5v81q0 48 10.5 84t35 60t64.5 36t99 12q62 0 99.5 -8.5t37.5 -40.5l-15 -90
q-2 -14 -13 -23t-25 -9q-22 0 -42.5 2.5t-39.5 2.5q-29 0 -37 -6t-8 -20v-81h100q20 0 29 -13.5t9 -31.5l-12 -68q-2 -14 -13 -23t-24 -9h-89v-36h72q20 0 29 -13.5t9 -31.5l-12 -67q-2 -13 -13 -22.5t-24 -9.5h-61v-116q0 -7 3 -7q4 0 4 28v55q0 16 11 27t27 11h88
q16 0 27 -11t11 -27v-74zM340 238h-88v-55q0 -34 -7.5 -50.5t-34.5 -16.5q-20 0 -30.5 13t-10.5 33v155h99l11 67h-110v112h127l11 68h-138v120q0 17 3 29t11.5 20t25 12t43.5 4q42 0 83 -6l14 89q-20 2 -45 3.5t-54 1.5q-96 0 -133 -38t-37 -115v-120h-35l-10 -68h45v-112
h-35l-10 -67h45v-153q0 -66 31.5 -100t98.5 -34q68 0 99 34t31 100v74z" />
    <glyph glyph-name="trademark" unicode="&#x2122;" horiz-adv-x="522" 
d="M237 425q-16 0 -28 10.5t-14 28.5q-2 -18 -13 -28.5t-27 -10.5h-55q-16 0 -27.5 11.5t-11.5 27.5v284h-10q-16 0 -27.5 11t-11.5 27v42q0 17 11.5 28t27.5 11h258q14 0 25.5 -10t13.5 -24v-7q0 16 12 28.5t28 12.5h73q16 0 27 -11t11 -28v-364q0 -16 -11 -27.5t-27 -11.5
h-224zM461 464v364h-73q-9 -62 -15 -104t-10.5 -72.5t-8 -52t-6.5 -40.5q-3 20 -6 41t-7.5 51t-10.5 72.5t-15 104.5h-72v-364h50v105q0 35 -1 71t-2 71l41 -247h47l42 247q-3 -71 -3 -142v-105h50zM155 464v322h49v42h-153v-42h49v-322h55z" />
    <glyph glyph-name="onethird" unicode="&#x2153;" horiz-adv-x="518" 
d="M288 169q0 16 11 27t27 11h6v45h-4q-16 0 -27 11t-11 27v50l-141 -317q-4 -8 -15 -15.5t-21 -7.5h-59q-17 0 -28.5 10.5t-11.5 25.5q0 10 4 18l158 352q-4 -1 -11 -1h-52q-16 0 -27 11t-11 28v279q-22 11 -22 35v51q0 29 28 37q2 13 12.5 21.5t24.5 8.5h47q16 0 27.5 -11
t11.5 -27v-370l167 376q3 8 14.5 15.5t20.5 7.5h59q17 0 28 -10.5t11 -26.5q0 -9 -4 -17l-157 -353q10 3 22 5t26 2q53 0 77 -25.5t24 -82.5v-89q0 -20 -8 -38q5 -9 6.5 -19.5t1.5 -24.5v-97q0 -49 -24.5 -77t-76.5 -28q-51 0 -77 28t-26 77v78zM403 91q0 -14 -12 -14
t-12 14v78h-53v-78q0 -31 16.5 -49t48.5 -18t47.5 18t15.5 49v97q0 33 -24 41q23 14 23 41v89q0 37 -15 53t-47 16t-47.5 -15.5t-15.5 -52.5v-70h51v71q0 14 12 14t12 -14v-91q0 -16 -9 -16h-23v-49h20q12 0 12 -15v-99zM113 38l352 790h-59l-352 -790h59zM165 444v394h-47
v-10q0 -19 -17 -19h-10v-51h22v-314h52z" />
    <glyph glyph-name="twothirds" unicode="&#x2154;" horiz-adv-x="518" 
d="M278 169q0 16 11.5 27t27.5 11h6v45h-4q-16 0 -27.5 11t-11.5 27v29l-131 -296q-4 -8 -15 -15.5t-21 -7.5h-59q-17 0 -28.5 10.5t-11.5 25.5q0 10 4 18l157 351h-112q-16 0 -27 11t-11 28v72q0 21 2 37.5t8 33t16.5 35.5t27.5 45h-16q-16 0 -27 11t-11 28v69q0 58 25 82
t77 24q102 0 102 -106v-48q0 -33 -11.5 -65.5t-34.5 -67.5q-15 -23 -21 -36t-7 -24h36q10 0 19 -5.5t14 -13.5l147 329q3 8 14.5 15.5t20.5 7.5h59q17 0 28 -10.5t11 -26.5q0 -9 -4 -17l-155 -350q8 2 17 3t19 1q53 0 77 -25.5t24 -82.5v-89q0 -20 -8 -38q5 -9 7 -19.5
t2 -24.5v-97q0 -49 -25 -77t-77 -28q-51 0 -77 28t-26 77v78zM394 91q0 -14 -13 -14q-11 0 -11 14v78h-53v-78q0 -31 16 -49t48 -18t47.5 18t15.5 49v97q0 34 -24 41q24 13 24 41v89q0 37 -15.5 53t-47.5 16t-47 -15.5t-15 -52.5v-70h51v71q0 14 11 14q13 0 13 -14v-91
q0 -16 -10 -16h-23v-49h20q13 0 13 -15v-99zM113 38l352 790h-59l-352 -790h59zM191 444v51h-76v21q0 12 1 21.5t5 20.5t11.5 24.5t19.5 32.5q39 60 39 112v48q0 68 -64 68q-32 0 -48 -15.5t-16 -52.5v-69h52v70q0 14 12 14q11 0 11 -14v-43q0 -28 -8 -49.5t-28 -50.5
q-12 -18 -20 -32t-12 -27t-5.5 -26.5t-1.5 -31.5v-72h128z" />
    <glyph glyph-name="oneeighth" unicode="&#x215b;" horiz-adv-x="518" 
d="M493 91q0 -105 -101 -105q-103 0 -103 105v96q0 14 3 26t8 22q-2 8 -4 18.5t-2 22.5v72l-145 -325q-4 -8 -15 -15.5t-21 -7.5h-59q-17 0 -28.5 10.5t-11.5 25.5q0 10 4 18l158 352q-4 -1 -11 -1h-52q-16 0 -27 11t-11 28v279q-22 11 -22 35v51q0 29 28 37q2 13 12.5 21.5
t24.5 8.5h47q16 0 27.5 -11t11.5 -27v-370l167 376q3 8 14.5 15.5t20.5 7.5h59q17 0 28 -10.5t11 -26.5q0 -9 -4 -17l-158 -356q22 10 50 10q52 0 75 -28.5t23 -77.5v-85q0 -23 -7 -42q6 -10 8 -21.5t2 -25.5v-96zM403 269q0 -15 -11 -15q-13 0 -13 15v92q0 14 13 14
q11 0 11 -14v-92zM403 91q0 -14 -11 -14q-13 0 -13 14v100q0 14 13 14q11 0 11 -14v-100zM455 187q0 17 -6.5 29t-17.5 17q10 7 15 16.5t5 26.5v85q0 31 -13.5 49t-45.5 18q-33 0 -46.5 -18t-13.5 -49v-85q0 -17 5 -26.5t14 -16.5q-11 -5 -17.5 -17t-6.5 -29v-96
q0 -67 65 -67q63 0 63 67v96zM113 38l352 790h-59l-352 -790h59zM165 444v394h-47v-10q0 -19 -17 -19h-10v-51h22v-314h52z" />
    <glyph glyph-name="threeeighths" unicode="&#x215c;" horiz-adv-x="518" 
d="M484 91q0 -105 -102 -105q-103 0 -103 105v96q0 14 3.5 26t8.5 22q-7 19 -7 41v51l-135 -304q-4 -8 -15 -15.5t-21 -7.5h-59q-17 0 -28.5 10.5t-11.5 25.5q0 10 4 18l157 351q-9 -2 -18.5 -3.5t-20.5 -1.5q-51 0 -76.5 28.5t-25.5 77.5v78q0 16 11 27t27 11h6v44h-4
q-16 0 -27 11.5t-11 27.5v70q0 58 23.5 82t76.5 24t77 -25t24 -82v-90q0 -19 -8 -37q5 -9 7 -19.5t2 -24.5v-57l133 298q3 8 14.5 15.5t20.5 7.5h59q17 0 28 -10.5t11 -26.5q0 -9 -4 -17l-156 -351q17 5 38 5q52 0 75 -28.5t23 -77.5v-85q0 -23 -7 -42q11 -18 11 -47v-96z
M394 269q0 -15 -12 -15t-12 15v92q0 14 12 14t12 -14v-92zM394 91q0 -14 -12 -14t-12 14v100q0 14 12 14t12 -14v-100zM445 187q0 36 -24 46q10 7 15.5 16.5t5.5 26.5v85q0 31 -14 49t-46 18t-45.5 -18t-13.5 -49v-85q0 -17 4.5 -26.5t14.5 -16.5q-24 -10 -24 -46v-96
q0 -67 64 -67q63 0 63 67v96zM113 38l352 790h-59l-352 -790h59zM149 506q0 -14 -13 -14q-11 0 -11 14v78h-53v-78q0 -31 16 -49t48 -18q33 0 48.5 18t15.5 49v97q0 32 -24 41q23 14 23 40v90q0 37 -15 53t-48 16q-32 0 -47 -15.5t-15 -52.5v-70h51v71q0 14 11 14
q13 0 13 -14v-92q0 -15 -10 -15h-23v-49h20q13 0 13 -15v-99z" />
    <glyph glyph-name="fiveeighths" unicode="&#x215d;" horiz-adv-x="518" 
d="M484 91q0 -105 -102 -105q-103 0 -103 105v96q0 14 3.5 26t8.5 22q-7 19 -7 41v51l-135 -304q-4 -8 -15 -15.5t-21 -7.5h-59q-17 0 -28.5 10.5t-11.5 25.5q0 10 4 18l157 351q-9 -3 -18.5 -4t-20.5 -1q-102 0 -102 105v83q0 12 5 22q-5 10 -5 22l4 207q0 16 11 26.5
t28 10.5h119q16 0 27 -11t11 -27v-52q0 -16 -11 -27t-27 -11h-35l-1 -16q35 -2 56 -24.5t21 -74.5v-89l134 300q3 8 14.5 15.5t20.5 7.5h59q17 0 28 -10.5t11 -26.5q0 -9 -4 -17l-156 -351q17 5 38 5q52 0 75 -28.5t23 -77.5v-85q0 -23 -7 -42q11 -18 11 -47v-96zM394 269
q0 -15 -12 -15t-12 15v92q0 14 12 14t12 -14v-92zM394 91q0 -14 -12 -14t-12 14v100q0 14 12 14t12 -14v-100zM445 187q0 36 -24 46q10 7 15.5 16.5t5.5 26.5v85q0 31 -14 49t-46 18t-45.5 -18t-13.5 -49v-85q0 -17 4.5 -26.5t14.5 -16.5q-24 -10 -24 -46v-96q0 -67 64 -67
q63 0 63 67v96zM113 38l352 790h-59l-352 -790h59zM148 506q0 -14 -13 -14q-11 0 -11 14v82h-52v-83q0 -66 64 -66q63 0 63 66v128q0 34 -12 47.5t-32 13.5q-22 0 -35 -12l4 104h72v52h-119l-5 -207l44 -2q3 19 18 19q14 0 14 -13v-129z" />
    <glyph glyph-name="seveneighths" unicode="&#x215e;" horiz-adv-x="518" 
d="M484 91q0 -105 -102 -105q-103 0 -103 105v96q0 14 3.5 26t8.5 22q-7 19 -7 41v51l-135 -304q-4 -8 -15 -15.5t-21 -7.5h-59q-17 0 -28.5 10.5t-11.5 25.5q0 10 4 18l157 351h-58q-16 0 -27 11t-11 28q0 110 14 184.5t29 119.5h-26q-16 0 -27 11t-11 27v52q0 16 11 27
t27 11h130q16 0 27 -11t11 -27v-57q-29 -66 -42 -141t-15 -162l164 366q3 8 14.5 15.5t20.5 7.5h59q17 0 28 -10.5t11 -26.5q0 -9 -4 -17l-156 -351q17 5 38 5q52 0 75 -28.5t23 -77.5v-85q0 -23 -7 -42q11 -18 11 -47v-96zM394 269q0 -15 -12 -15t-12 15v92q0 14 12 14
t12 -14v-92zM394 91q0 -14 -12 -14t-12 14v100q0 14 12 14t12 -14v-100zM445 187q0 36 -24 46q10 7 15.5 16.5t5.5 26.5v85q0 31 -14 49t-46 18t-45.5 -18t-13.5 -49v-85q0 -17 4.5 -26.5t14.5 -16.5q-24 -10 -24 -46v-96q0 -67 64 -67q63 0 63 67v96zM113 38l352 790h-59
l-352 -790h59zM169 444q1 102 13 188t44 158v48h-130v-52h81q-2 -2 -11.5 -24.5t-20.5 -65t-19.5 -106t-8.5 -146.5h52z" />
    <glyph glyph-name="partialdiff" unicode="&#x2202;" horiz-adv-x="467" 
d="M161 828q0 26 27 36.5t75 10.5q46 0 79 -17t55 -45.5t35.5 -65t20.5 -75.5t9 -78t2 -71q0 -49 -4.5 -108t-16 -118t-31.5 -114t-51 -98t-75 -68.5t-103 -25.5q-49 0 -83 19.5t-55.5 53.5t-31 79.5t-9.5 96.5q0 59 14 113t42.5 94.5t71.5 64.5t101 24q23 0 42 -4.5
t38 -16.5v15q0 28 -2 59.5t-9 58t-20 43.5t-34 17q-13 0 -20.5 -1.5t-12.5 -3t-8.5 -3t-9.5 -1.5q-14 0 -25 10.5t-11 28.5v90zM197 156q21 0 37.5 15t28.5 40.5t20 59t14 70.5q-11 26 -27 37.5t-31 11.5q-44 0 -65 -39t-21 -101q0 -43 10.5 -68.5t33.5 -25.5zM336 345
q-6 -44 -16 -85t-26.5 -72.5t-40.5 -50.5t-56 -19q-43 0 -63 36t-20 96q0 78 31.5 128t93.5 50q28 0 55 -19t42 -64zM200 738q9 5 21.5 6.5t26.5 1.5q34 0 54.5 -21t31.5 -52.5t14 -70t3 -72.5q0 -26 -1 -53.5t-3 -58.5q-20 43 -50 61t-64 18q-48 0 -84 -21t-59.5 -56
t-35.5 -81.5t-12 -98.5q0 -44 7.5 -82t24.5 -66.5t44 -45t65 -16.5q51 0 89 24t65 63.5t44 90.5t27 106t13.5 109t3.5 100q0 43 -4.5 97.5t-21 102.5t-48.5 80.5t-88 32.5q-47 0 -63 -8v-90z" />
    <glyph glyph-name="product" unicode="&#x220f;" horiz-adv-x="488" 
d="M348 -133q-16 0 -27 11t-11 27v819h-133v-819q0 -16 -11.5 -27t-27.5 -11h-77q-16 0 -27 11t-11 27v923q0 17 11 28t27 11h366q16 0 27.5 -11t11.5 -28v-923q0 -16 -11.5 -27t-27.5 -11h-79zM427 -95v923h-366v-923h77v857h210v-857h79z" />
    <glyph glyph-name="summation" unicode="&#x2211;" horiz-adv-x="446" 
d="M46 -133q-16 0 -27 11t-11 27v71l176 391l-176 389v72q0 17 11 28t27 11h354q16 0 27.5 -11t11.5 -28v-89q0 -16 -11.5 -27t-27.5 -11h-197l139 -319q2 -6 2 -15q0 -10 -2 -16l-139 -320h197q16 0 27.5 -11.5t11.5 -27.5v-87q0 -16 -11.5 -27t-27.5 -11h-354zM400 -95v87
h-256l162 375l-162 372h256v89h-354v-66l180 -395l-180 -398v-64h354z" />
    <glyph glyph-name="minus" unicode="&#x2212;" horiz-adv-x="501" 
d="M61 370q-16 0 -27 11t-11 27v66q0 16 11 27.5t27 11.5h381q16 0 27 -11.5t11 -27.5v-66q0 -16 -11 -27t-27 -11h-381zM442 408v66h-381v-66h381z" />
    <glyph glyph-name="radical" unicode="&#x221a;" horiz-adv-x="511" 
d="M187 0q-12 0 -23 8.5t-14 21.5l-59 251h-44q-16 0 -27 11.5t-11 27.5v59q0 16 11 27.5t27 11.5h134q13 0 24 -9t14 -22l15 -75l129 526q3 11 14 20t23 9h73q17 0 28 -10.5t11 -27.5v-4.5t-1 -5.5l-199 -790q-3 -12 -14 -20.5t-23 -8.5h-88zM275 38l198 790h-73l-170 -693
l-49 244h-134v-59h75l65 -282h88z" />
    <glyph glyph-name="infinity" unicode="&#x221e;" horiz-adv-x="643" 
d="M445 227q-40 0 -71.5 7t-51.5 29q-21 -21 -52 -28.5t-72 -7.5q-37 0 -70 4t-57.5 22t-39 54.5t-14.5 102.5q0 65 14.5 101.5t39 54.5t57.5 22.5t70 4.5q42 0 72.5 -7.5t51.5 -29.5q20 23 50.5 30t72.5 7q36 0 69 -4.5t57.5 -22.5t39.5 -54.5t15 -101.5q0 -66 -15 -102.5
t-39.5 -54.5t-57.5 -22t-69 -4zM492 410q0 25 -14.5 29.5t-33.5 4.5q-23 0 -34.5 -6t-11.5 -28q0 -23 11.5 -29.5t34.5 -6.5q22 0 35 6.5t13 29.5zM246 410q0 22 -11.5 28t-34.5 6q-20 0 -34 -4.5t-14 -29.5q0 -26 14 -31t34 -5q19 0 32.5 5.5t13.5 30.5zM284 410
q0 -25 -6.5 -40t-18 -22.5t-27 -9.5t-32.5 -2t-33 1.5t-28 8.5t-19 22t-7 42q0 26 7 40.5t19 21.5t28 8.5t33 1.5q42 0 63 -13t21 -59zM531 410q0 -24 -6.5 -38.5t-17.5 -22.5t-27.5 -10.5t-35.5 -2.5q-41 0 -62.5 13t-21.5 61q0 46 21.5 59t62.5 13q17 0 33 -1.5t28 -8.5
t19 -21.5t7 -40.5zM322 351q5 -26 15.5 -43t26 -26.5t35.5 -13t46 -3.5q28 0 54 3t46 17.5t31.5 43.5t11.5 81q0 51 -11.5 80t-31.5 43.5t-46 18t-54 3.5q-51 0 -82 -17.5t-41 -69.5q-11 52 -41.5 69.5t-82.5 17.5q-29 0 -54.5 -3.5t-45 -18t-31 -43.5t-11.5 -80
q0 -52 11.5 -81t31 -43.5t45 -17.5t54.5 -3q26 0 46.5 3.5t36 13t25.5 26.5t16 43z" />
    <glyph glyph-name="integral" unicode="&#x222b;" horiz-adv-x="338" 
d="M40 -133q-16 0 -27 11t-11 27v67q0 16 11 27.5t27 11.5h41q7 0 7 22v796q0 88 41.5 127t125.5 39h44q16 0 27 -11.5t11 -27.5v-67q0 -16 -11 -27t-27 -11h-43q-5 0 -5 -23v-797q0 -87 -42.5 -125.5t-125.5 -38.5h-43zM83 -95q64 0 96.5 30t32.5 96v797q0 61 44 61h43v67
h-44q-64 0 -96 -30t-32 -97v-796q0 -32 -10.5 -46.5t-35.5 -14.5h-41v-67h43z" />
    <glyph glyph-name="approxequal" unicode="&#x2248;" horiz-adv-x="502" 
d="M480 336q0 -18 -15 -32t-37 -23.5t-47.5 -14t-47.5 -4.5q-29 0 -55 8t-50 18h1q-18 7 -35.5 12.5t-34.5 5.5q-18 0 -35 -7t-35 -28q-12 -15 -29 -15q-15 0 -26.5 11t-11.5 29v78q0 13 11 26.5t29.5 24t42.5 17.5t51 7q28 0 53.5 -7t48 -15t42 -15t36.5 -7q23 0 41 8
t37 28q13 13 29 13q14 0 25.5 -10.5t11.5 -28.5v-79zM480 509q0 -18 -15 -32t-37 -23.5t-47.5 -14t-47.5 -4.5q-29 0 -55 7.5t-50 18.5h1q-18 6 -35.5 12t-34.5 6q-18 0 -35 -7.5t-35 -27.5q-14 -15 -29 -15t-26.5 10.5t-11.5 28.5v79q0 13 11 26.5t29.5 24t42.5 17.5t51 7
q28 0 53.5 -7t48 -15t42 -15t36.5 -7q23 0 41 8t37 27q12 14 29 14q14 0 25.5 -10.5t11.5 -28.5v-79zM442 588q-26 -27 -50 -37.5t-56 -10.5q-21 0 -41.5 7t-42 15t-45.5 15t-51 7q-34 0 -57.5 -11.5t-38.5 -25.5v-79q26 29 49.5 39t49.5 10q21 0 42.5 -7t43 -15t43.5 -15
t45 -7q35 0 60.5 9t48.5 27v79zM442 415q-26 -27 -50 -37.5t-56 -10.5q-21 0 -41.5 7t-42 15t-45.5 15t-51 7q-34 0 -57.5 -11t-38.5 -26v-78q26 29 49.5 39t49.5 10q21 0 42.5 -7t43 -15.5t43.5 -15.5t45 -7q35 0 60.5 9t48.5 27v79z" />
    <glyph glyph-name="notequal" unicode="&#x2260;" horiz-adv-x="501" 
d="M49 0q-18 0 -28.5 10.5t-10.5 25.5q0 9 3 18l97 225h-49q-16 0 -27 11.5t-11 27.5v67q0 16 11 27t27 11h110l16 36h-126q-16 0 -27 11t-11 27v67q0 17 11 28t27 11h188l101 241q4 8 15 15.5t21 7.5h66q17 0 28.5 -11t11.5 -27q0 -3 -1 -7t-3 -9l-90 -210h44q16 0 27 -11
t11 -28v-67q0 -16 -11 -27t-27 -11h-106l-15 -36h121q16 0 27 -11t11 -27v-67q0 -16 -11 -27.5t-27 -11.5h-182l-108 -256q-4 -8 -15 -15.5t-21 -7.5h-67zM116 38l118 280h208v67h-179l48 112h131v67h-102l112 264h-66l-112 -264h-213v-67h184l-48 -112h-136v-67h107
l-119 -280h67z" />
    </font>
</defs>
</svg>
